Bit02w.sfdir
StartChar: exclam
Encoding: 33 33 20
Width: 500
Flags: W
HStem: 0 100<200 300> 680 20G<200 300>
VStem: 200 100<0 100 200 700>
LayerCount: 3
Fore
SplineSet
200 200 m 1
 200 700 l 1
 300 700 l 1
 300 200 l 1
 200 200 l 1
200 0 m 1
 200 100 l 1
 300 100 l 1
 300 0 l 1
 200 0 l 1
EndSplineSet
Validated: 1
EndChar
StartChar: quotedbl
Encoding: 34 34 21
Width: 500
Flags: W
HStem: 500 300<100 200 300 400>
VStem: 100 100<500 800> 300 100<500 800>
LayerCount: 3
Fore
SplineSet
100 500 m 1
 100 800 l 1
 200 800 l 1
 200 500 l 1
 100 500 l 1
300 500 m 1
 300 800 l 1
 400 800 l 1
 400 500 l 1
 300 500 l 1
EndSplineSet
Validated: 1
EndChar
StartChar: numbersign
Encoding: 35 35 91
Width: 700
Flags: W
HStem: 200 100<100 200 300 400 500 600> 400 100<100 200 300 400 500 600> 680 20G<200 300 400 500>
VStem: 200 100<0 200 300 400 500 700> 400 100<0 200 300 400 500 700>
LayerCount: 3
Fore
SplineSet
100 200 m 1
 100 300 l 1
 200 300 l 1
 200 400 l 1
 100 400 l 1
 100 500 l 1
 200 500 l 1
 200 700 l 1
 300 700 l 1
 300 500 l 1
 400 500 l 1
 400 700 l 1
 500 700 l 1
 500 500 l 1
 600 500 l 1
 600 400 l 1
 500 400 l 1
 500 300 l 1
 600 300 l 1
 600 200 l 1
 500 200 l 1
 500 0 l 1
 400 0 l 1
 400 200 l 1
 300 200 l 1
 300 0 l 1
 200 0 l 1
 200 200 l 1
 100 200 l 1
300 300 m 1
 400 300 l 1
 400 400 l 1
 300 400 l 1
 300 300 l 1
EndSplineSet
Validated: 1
EndChar
StartChar: dollar
Encoding: 36 36 92
Width: 700
Flags: W
HStem: -100 21G<300 400> 0 100<200 300 400 500> 300 100<200 300 400 500> 600 100<200 300 400 500>
VStem: 100 100<400 600> 200 300<0 100 300 400 600 700> 300 100<-100 0 100 300 400 600 700 800> 500 100<100 300>
LayerCount: 3
Fore
SplineSet
100 400 m 1xf8
 100 600 l 1
 200 600 l 1xf8
 200 700 l 1xf4
 300 700 l 1
 300 800 l 1
 400 800 l 1
 400 700 l 1xf2
 500 700 l 1
 500 600 l 1xf4
 400 600 l 1
 400 400 l 1xf2
 500 400 l 1
 500 300 l 1xf4
 400 300 l 1
 400 100 l 1xf2
 500 100 l 1
 500 300 l 1xf4
 600 300 l 1
 600 100 l 1xf1
 500 100 l 1
 500 0 l 1xf4
 400 0 l 1
 400 -100 l 1
 300 -100 l 1
 300 -0 l 1xf2
 200 0 l 1
 200 100 l 1xf4
 300 100 l 1
 300 300 l 1xf2
 200 300 l 1xf4
 200 400 l 1
 100 400 l 1xf8
200 600 m 1
 200 400 l 1
 300 400 l 1
 300 600 l 1xfa
 200 600 l 1
EndSplineSet
Validated: 5
EndChar
StartChar: quotesingle
Encoding: 39 39 19
Width: 300
Flags: W
HStem: 500 300<100 200>
VStem: 100 100<500 800>
LayerCount: 3
Fore
SplineSet
100 500 m 1
 100 800 l 1
 200 800 l 1
 200 500 l 1
 100 500 l 1
EndSplineSet
Validated: 1
EndChar
StartChar: parenleft
Encoding: 40 40 17
Width: 500
Flags: W
HStem: -100 100<300 400> 0 100<200 300> 480 20G<100 200> 500 100<200 300> 600 100<300 400>
VStem: 100 100<100 500> 200 100<0 100 500 600> 300 100<-100 0 600 700>
LayerCount: 3
Fore
SplineSet
200 500 m 1x64
 200 100 l 1
 100 100 l 1
 100 500 l 1
 200 500 l 1x64
200 500 m 1
 200 600 l 1
 300 600 l 1
 300 500 l 1x12
 200 500 l 1
300 600 m 1
 300 700 l 1
 400 700 l 1
 400 600 l 1x09
 300 600 l 1
200 100 m 1x44
 300 100 l 1x42
 300 0 l 1x82
 200 0 l 1x42
 200 100 l 1x44
300 0 m 1x82
 400 0 l 1
 400 -100 l 1
 300 -100 l 1x81
 300 0 l 1x82
EndSplineSet
Validated: 5
EndChar
StartChar: parenright
Encoding: 41 41 18
Width: 500
Flags: W
HStem: -100 100<100 200> 0 100<200 300> 500 100<200 300> 600 100<100 200>
VStem: 100 100<-100 0 600 700> 200 100<0 100 500 600> 300 100<100 500>
LayerCount: 3
Fore
SplineSet
100 600 m 1x18
 100 700 l 1
 200 700 l 1x18
 200 600 l 1x28
 100 600 l 1x18
100 -100 m 1x88
 100 0 l 1
 200 0 l 1x88
 200 100 l 1
 300 100 l 1
 300 500 l 1
 200 500 l 1x64
 200 600 l 1x68
 300 600 l 1
 300 500 l 1x64
 400 500 l 1
 400 100 l 1x62
 300 100 l 1
 300 0 l 1x64
 200 0 l 1
 200 -100 l 1
 100 -100 l 1x88
EndSplineSet
Validated: 5
EndChar
StartChar: asterisk
Encoding: 42 42 16
Width: 500
Flags: W
HStem: 400 100<100 200 300 400> 600 100<100 200 300 400>
VStem: 100 300<400 500 600 700>
LayerCount: 3
Fore
SplineSet
100 700 m 1
 400 700 l 1
 400 600 l 1
 300 600 l 1
 300 500 l 1
 400 500 l 1
 400 400 l 1
 100 400 l 1
 100 500 l 1
 200 500 l 1
 200 600 l 1
 100 600 l 1
 100 700 l 1
EndSplineSet
Validated: 1
EndChar
StartChar: plus
Encoding: 43 43 15
Width: 700
Flags: W
HStem: 300 100<100 300 400 600>
VStem: 300 100<100 300 400 600>
LayerCount: 3
Fore
SplineSet
100 300 m 1
 100 400 l 1
 300 400 l 1
 300 600 l 1
 400 600 l 1
 400 400 l 1
 600 400 l 1
 600 300 l 1
 400 300 l 1
 400 100 l 1
 300 100 l 1
 300 300 l 1
 100 300 l 1
EndSplineSet
Validated: 1
EndChar
StartChar: hyphen
Encoding: 45 45 13
Width: 500
Flags: W
HStem: 200 100<100 400>
VStem: 100 300<200 300>
LayerCount: 3
Fore
SplineSet
100 200 m 1
 100 300 l 1
 400 300 l 1
 400 200 l 1
 100 200 l 1
EndSplineSet
EndChar
StartChar: period
Encoding: 46 46 12
Width: 500
Flags: W
HStem: 0 200<100 300>
VStem: 100 200<0 200>
LayerCount: 3
Fore
SplineSet
100 0 m 1
 100 200 l 1
 300 200 l 1
 300 0 l 1
 100 0 l 1
EndSplineSet
Validated: 1
EndChar
StartChar: slash
Encoding: 47 47 1
Width: 700
Flags: W
HStem: -200 21G<100 200>
VStem: 100 100<-200 0> 200 100<0 200> 300 100<200 400> 400 100<400 600> 500 100<600 800>
LayerCount: 3
Fore
SplineSet
200 0 m 1xc0
 200 -200 l 1
 100 -200 l 1
 100 0 l 1
 200 0 l 1xc0
200 0 m 1
 200 200 l 1
 300 200 l 1
 300 0 l 1xa0
 200 0 l 1
300 200 m 1
 300 400 l 1
 400 400 l 1
 400 200 l 1x90
 300 200 l 1
400 400 m 1
 400 600 l 1
 500 600 l 1
 500 400 l 1x88
 400 400 l 1
500 600 m 1
 500 800 l 1
 600 800 l 1
 600 600 l 1x84
 500 600 l 1
EndSplineSet
Validated: 5
EndChar
StartChar: zero
Encoding: 48 48 2
Width: 700
Flags: W
HStem: 0 100<200 500> 600 100<200 500>
VStem: 100 100<100 600> 200 300<0 100 600 700>
LayerCount: 3
Fore
SplineSet
200 600 m 1xe0
 200 100 l 1
 100 100 l 1
 100 600 l 1
 200 600 l 1xe0
200 600 m 1
 200 700 l 1
 500 700 l 1
 500 600 l 1xd0
 200 600 l 1
500 600 m 1
 500 100 l 1
 600 100 l 1
 600 600 l 1
 500 600 l 1
500 100 m 1
 500 0 l 1
 200 0 l 1xd0
 200 100 l 1xe0
 500 100 l 1
EndSplineSet
Validated: 5
EndChar
StartChar: one
Encoding: 49 49 3
Width: 600
Flags: W
HStem: 400 100<100 200> 680 20G<300 400>
VStem: 100 100<400 500> 300 100<0 500 600 700>
LayerCount: 3
Fore
SplineSet
100 400 m 25
 100 500 l 25
 200 500 l 25
 200 400 l 25
 100 400 l 25
300 700 m 1
 400 700 l 1
 400 0 l 1
 300 0 l 1
 300 500 l 1
 200 500 l 1
 200 600 l 1
 300 600 l 1
 300 700 l 1
EndSplineSet
Validated: 5
EndChar
StartChar: two
Encoding: 50 50 4
Width: 700
Flags: W
HStem: 0 100<100 200 300 600> 200 100<300 400> 300 100<400 500> 600 100<200 500>
VStem: 200 100<100 200> 300 100<200 300> 400 100<300 400>
LayerCount: 3
Fore
SplineSet
200 700 m 1x9a
 500 700 l 1
 500 600 l 1
 200 600 l 1
 200 700 l 1x9a
100 0 m 1
 100 100 l 1
 200 100 l 1
 200 200 l 1
 300 200 l 1xd8
 300 300 l 1
 400 300 l 1xd4
 400 400 l 1
 500 400 l 1
 500 300 l 1xb2
 400 300 l 1
 400 200 l 1xd4
 300 200 l 1xd8
 300 100 l 1
 600 100 l 1
 600 0 l 1
 100 0 l 1
500 600 m 1xb2
 500 400 l 1
 600 400 l 1
 600 600 l 1
 500 600 l 1xb2
EndSplineSet
Validated: 5
EndChar
StartChar: three
Encoding: 51 51 5
Width: 600
Flags: W
HStem: 0 100<100 400> 300 100<200 400> 600 100<100 400>
VStem: 100 300<0 100 600 700> 400 100<100 300 400 600>
CounterMasks: 1 e0
LayerCount: 3
Fore
SplineSet
100 600 m 1xf0
 100 700 l 1
 400 700 l 1
 400 600 l 1
 100 600 l 1xf0
200 300 m 1
 200 400 l 1
 400 400 l 1xe8
 400 600 l 1xf0
 500 600 l 1
 500 400 l 1
 400 400 l 1
 400 300 l 1xe8
 200 300 l 1
100 0 m 1xf0
 100 100 l 1
 400 100 l 1xf0
 400 300 l 1
 500 300 l 1
 500 100 l 1xe8
 400 100 l 1
 400 0 l 1
 100 0 l 1xf0
EndSplineSet
Validated: 5
EndChar
StartChar: four
Encoding: 52 52 6
Width: 700
Flags: W
HStem: 200 100<200 400 500 600> 400 100<200 300> 680 20G<400 500>
VStem: 100 100<300 400> 200 100<400 500> 400 100<0 200 300 500 600 700>
LayerCount: 3
Fore
SplineSet
400 500 m 1xf4
 300 500 l 1
 300 600 l 1xec
 400 600 l 1
 400 700 l 1
 500 700 l 1
 500 300 l 1
 600 300 l 1
 600 200 l 1
 500 200 l 1
 500 0 l 1
 400 0 l 1
 400 200 l 1
 100 200 l 1
 100 300 l 1
 100 400 l 1
 200 400 l 1xf4
 200 500 l 1
 300 500 l 1
 300 400 l 1xec
 200 400 l 1
 200 300 l 1
 400 300 l 1
 400 500 l 1xf4
EndSplineSet
Validated: 5
EndChar
StartChar: five
Encoding: 53 53 7
Width: 600
Flags: W
HStem: 0 100<100 400> 400 100<200 400> 600 100<200 500>
VStem: 100 300<0 100 400 500> 100 100<500 600> 400 100<100 400>
LayerCount: 3
Fore
SplineSet
100 0 m 1xf0
 100 100 l 1
 400 100 l 1
 400 0 l 1
 100 0 l 1xf0
400 100 m 1
 400 400 l 1xf0
 500 400 l 1
 500 100 l 1xe4
 400 100 l 1
400 400 m 1
 100 400 l 1
 100 500 l 1xf0
 100 600 l 1
 200 600 l 1
 200 500 l 1xe8
 400 500 l 1
 400 400 l 1
200 600 m 1xec
 200 700 l 1
 500 700 l 1
 500 600 l 1
 200 600 l 1xec
EndSplineSet
Validated: 5
EndChar
StartChar: six
Encoding: 54 54 8
Width: 700
Flags: W
HStem: 0 100<200 500> 400 100<200 500> 600 100<200 500>
VStem: 100 100<100 400 500 600> 200 300<0 100 600 700> 500 100<100 400>
LayerCount: 3
Fore
SplineSet
100 100 m 1xf4
 100 600 l 1
 200 600 l 1
 200 500 l 1
 500 500 l 1
 500 400 l 1
 600 400 l 1
 600 100 l 1xf4
 500 100 l 1
 500 0 l 1
 200 0 l 1xe8
 200 100 l 1xf0
 500 100 l 1xe8
 500 400 l 1
 200 400 l 1
 200 100 l 1
 100 100 l 1xf4
200 600 m 1
 200 700 l 1
 500 700 l 1
 500 600 l 1xe8
 200 600 l 1
EndSplineSet
Validated: 5
EndChar
StartChar: seven
Encoding: 55 55 9
Width: 600
Flags: W
HStem: 480 20G<300 400> 500 21G<400 500> 600 100<100 400>
VStem: 200 100<0 300> 300 100<300 500> 400 100<500 600>
LayerCount: 3
Fore
SplineSet
100 600 m 1xa4
 100 700 l 1
 500 700 l 1
 500 600 l 1
 500 500 l 1x64
 400 500 l 1xa8
 400 600 l 1
 100 600 l 1xa4
200 0 m 1xb0
 200 300 l 1
 300 300 l 1xb0
 300 500 l 1
 400 500 l 1
 400 300 l 1xa8
 300 300 l 1
 300 0 l 1
 200 0 l 1xb0
EndSplineSet
Validated: 5
EndChar
StartChar: eight
Encoding: 56 56 10
Width: 700
Flags: W
HStem: 0 100<200 500> 100 200<100 200 500 600> 300 100<200 500> 400 200<100 200 500 600> 600 100<200 500>
VStem: 100 100<100 300 400 600> 200 300<0 100 300 400 600 700> 500 100<100 300 400 600>
LayerCount: 3
Fore
SplineSet
100 400 m 1x14
 100 600 l 1
 200 600 l 1x14
 200 400 l 1x24
 100 400 l 1x14
100 100 m 1x44
 100 300 l 1
 200 300 l 1x44
 200 400 l 1x24
 500 400 l 1x22
 500 600 l 1x12
 200 600 l 1x14
 200 700 l 1
 500 700 l 1x0a
 500 600 l 1x12
 600 600 l 1
 600 400 l 1x11
 500 400 l 1x22
 500 300 l 1x42
 200 300 l 1x44
 200 100 l 1x84
 100 100 l 1x44
500 300 m 1x42
 600 300 l 1
 600 100 l 1x41
 500 100 l 1x82
 500 300 l 1x42
500 100 m 1x82
 500 0 l 1
 200 0 l 1x82
 200 100 l 1x84
 500 100 l 1x82
EndSplineSet
Validated: 5
EndChar
StartChar: nine
Encoding: 57 57 11
Width: 700
Flags: W
HStem: 0 100<200 400> 100 100<400 500> 300 100<200 500> 600 100<200 500>
VStem: 100 100<400 600> 400 100<100 200> 500 100<200 300 400 600>
LayerCount: 3
Fore
SplineSet
100 400 m 1x38
 100 600 l 1
 200 600 l 1
 200 400 l 1
 100 400 l 1x38
200 0 m 1xbc
 200 100 l 1
 400 100 l 1xbc
 400 200 l 1
 500 200 l 1x7c
 500 300 l 1
 200 300 l 1
 200 400 l 1
 500 400 l 1
 500 600 l 1
 200 600 l 1
 200 700 l 1
 500 700 l 1
 500 600 l 1
 600 600 l 1
 600 200 l 1x7a
 500 200 l 1
 500 100 l 1x7c
 400 100 l 1
 400 0 l 1
 200 0 l 1xbc
EndSplineSet
Validated: 5
EndChar
StartChar: colon
Encoding: 58 58 22
Width: 500
InSpiro: 1
Flags: W
HStem: 480 20G<200 300>
VStem: 200 100<0 200 300 500>
LayerCount: 3
Fore
SplineSet
200 300 m 1
 200 500 l 1
 300 500 l 1
 300 300 l 1
 200 300 l 1
  Spiro
    200 300 v
    200 500 v
    300 500 v
    300 300 v
    0 0 z
  EndSpiro
200 0 m 1
 200 200 l 1
 300 200 l 1
 300 0 l 1
 200 0 l 1
  Spiro
    200 0 v
    200 200 v
    300 200 v
    300 0 v
    0 0 z
  EndSpiro
EndSplineSet
Validated: 1
EndChar
StartChar: semicolon
Encoding: 59 59 23
Width: 500
Flags: W
HStem: -100 100<100 200> 480 20G<200 300>
VStem: 100 100<-100 0> 200 100<0 200 300 500>
LayerCount: 3
Fore
SplineSet
200 300 m 1xd0
 200 500 l 1
 300 500 l 1
 300 300 l 1
 200 300 l 1xd0
100 -100 m 1xe0
 100 0 l 1
 200 0 l 1xe0
 200 200 l 1
 300 200 l 1
 300 0 l 1xd0
 200 0 l 1
 200 -100 l 1
 100 -100 l 1xe0
EndSplineSet
Validated: 5
EndChar
StartChar: less
Encoding: 60 60 24
Width: 600
Flags: W
HStem: 0 100<400 500> 100 100<300 400> 200 100<200 300> 300 100<100 200> 400 100<200 300> 500 100<300 400> 600 100<400 500>
VStem: 100 100<300 400> 200 100<200 300 400 500> 300 100<100 200 500 600> 400 100<0 100 600 700>
LayerCount: 3
Fore
SplineSet
100 300 m 1x11
 100 400 l 1
 200 400 l 1x11
 200 300 l 1x21
 100 300 l 1x11
200 400 m 1
 200 500 l 1
 300 500 l 1
 300 400 l 1x0880
 200 400 l 1
300 500 m 1
 300 600 l 1
 400 600 l 1
 400 500 l 1x0440
 300 500 l 1
400 600 m 1
 400 700 l 1
 500 700 l 1
 500 600 l 1x0220
 400 600 l 1
200 300 m 1x21
 300 300 l 1x2080
 300 200 l 1x4080
 200 200 l 1x2080
 200 300 l 1x21
300 200 m 1x4080
 400 200 l 1x4040
 400 100 l 1x8040
 300 100 l 1x4040
 300 200 l 1x4080
400 100 m 1x8040
 500 100 l 1
 500 0 l 1
 400 0 l 1x8020
 400 100 l 1x8040
EndSplineSet
Validated: 5
EndChar
StartChar: equal
Encoding: 61 61 25
Width: 600
Flags: W
HStem: 200 100<100 500> 400 100<100 500>
LayerCount: 3
Fore
SplineSet
100 200 m 1
 100 300 l 1
 500 300 l 1
 500 200 l 1
 100 200 l 1
100 400 m 1
 100 500 l 1
 500 500 l 1
 500 400 l 1
 100 400 l 1
EndSplineSet
Validated: 1
EndChar
StartChar: greater
Encoding: 62 62 26
Width: 600
Flags: W
HStem: 0 100<100 200> 100 100<200 300> 200 100<300 400> 400 100<300 400> 500 100<200 300> 600 100<100 200>
VStem: 100 100<0 100 600 700> 200 100<100 200 500 600> 300 100<200 300 400 500> 400 100<300 400>
LayerCount: 3
Fore
SplineSet
100 600 m 1x06
 100 700 l 1
 200 700 l 1x06
 200 600 l 1x0a
 100 600 l 1x06
100 0 m 1x82
 100 100 l 1
 200 100 l 1x82
 200 200 l 1
 300 200 l 1x41
 300 300 l 1
 400 300 l 1
 400 400 l 1
 300 400 l 1x3080
 300 500 l 1x31
 200 500 l 1x09
 200 600 l 1x0a
 300 600 l 1x09
 300 500 l 1x11
 400 500 l 1
 400 400 l 1x1080
 500 400 l 1
 500 300 l 1x3040
 400 300 l 1
 400 200 l 1x3080
 300 200 l 1
 300 100 l 1x41
 200 100 l 1
 200 0 l 1
 100 0 l 1x82
EndSplineSet
Validated: 5
EndChar
StartChar: question
Encoding: 63 63 27
Width: 600
Flags: W
HStem: 0 100<200 300> 200 100<200 300> 300 100<300 400> 600 100<200 400>
VStem: 200 100<0 100 200 300> 300 100<300 400> 400 100<400 600>
LayerCount: 3
Fore
SplineSet
200 600 m 1x9a
 200 700 l 1
 400 700 l 1
 400 600 l 1
 200 600 l 1x9a
200 200 m 1xd8
 200 300 l 1
 300 300 l 1xd8
 300 400 l 1
 400 400 l 1xb4
 400 600 l 1
 500 600 l 1
 500 400 l 1xb2
 400 400 l 1
 400 300 l 1xb4
 300 300 l 1
 300 200 l 1
 200 200 l 1xd8
200 0 m 1
 200 100 l 1
 300 100 l 1
 300 0 l 1
 200 0 l 1
EndSplineSet
Validated: 5
EndChar
StartChar: at
Encoding: 64 64 28
Width: 1000
Flags: W
HStem: -100 100<300 700> 0 100<200 300 700 800> 100 100<400 600> 300 100<400 500> 480 20G<100 200 500 600 800 900> 500 100<200 300 700 800> 600 100<300 400 500 700>
VStem: 100 100<100 500> 200 100<0 100 500 600> 300 100<200 300> 400 100<500 600> 600 100<200 300> 700 100<0 100 500 600> 800 100<100 500>
LayerCount: 3
Fore
SplineSet
100 100 m 1x31
 100 500 l 1
 200 500 l 1
 200 100 l 1x59
 300 100 l 1x5880
 300 0 l 1x9080
 200 0 l 1x5080
 200 100 l 1x51
 100 100 l 1x31
200 500 m 1
 200 600 l 1
 300 600 l 1
 300 500 l 1x1480
 200 500 l 1
300 600 m 1
 300 700 l 1
 700 700 l 1x1248
 700 600 l 1x1448
 500 600 l 1
 500 500 l 1x1a28
 400 500 l 1x1428
 400 600 l 1x1228
 300 600 l 1
700 600 m 1x1408
 800 600 l 1x1408
 800 500 l 1x1808
 700 500 l 1
 700 600 l 1x1408
800 500 m 1x5808
 900 500 l 1
 900 100 l 1x3804
 800 100 l 1
 800 500 l 1x5808
800 100 m 1x5008
 800 0 l 1x5008
 700 0 l 1x9008
 700 100 l 1
 800 100 l 1x5008
700 0 m 1x9088
 700 -100 l 1
 300 -100 l 1x9048
 300 0 l 1
 700 0 l 1x9088
500 500 m 1x3820
 600 500 l 1
 600 400 l 1x3830
 700 400 l 1
 700 100 l 1
 300 100 l 1x5888
 300 300 l 1
 400 300 l 1
 400 200 l 1
 600 200 l 1
 600 300 l 1
 400 300 l 1x3050
 400 400 l 1
 500 400 l 1
 500 500 l 1x3820
EndSplineSet
Validated: 5
EndChar
StartChar: A
Encoding: 65 65 29
Width: 700
VWidth: 1600
Flags: W
HStem: -100 200<0 100 600 700> 100 200<100 200 500 600> 100 100<200 500> 300 200<200 300 400 500> 680 20G<300 400>
VStem: 0 100<-100 100> 100 100<200 300> 200 100<300 500> 300 100<500 700> 400 100<300 500> 500 100<200 300> 600 100<-100 100>
AnchorPoint: "top" 350 800 basechar 0
AnchorPoint: "ogonek" 350 -100 basechar 0
AnchorPoint: "bottom-adjoined" 350 -100 basechar 0
AnchorPoint: "bottom" 350 -200 basechar 0
AnchorPoint: "top-even" 350 800 basechar 0
LayerCount: 3
Fore
SplineSet
0 -100 m 1x8c10
 0 100 l 1
 100 100 l 1x8c10
 100 300 l 1
 200 300 l 1x4a
 200 500 l 1
 300 500 l 1x19
 300 700 l 1
 400 700 l 1
 400 500 l 1x1880
 300 500 l 1
 300 300 l 1x19
 200 300 l 1x4a
 200 200 l 1
 500 200 l 1x2a20
 500 300 l 1x4840
 400 300 l 1x1840
 400 500 l 1x1880
 500 500 l 1x1840
 500 300 l 1x4840
 600 300 l 1x4820
 600 100 l 1
 100 100 l 1
 100 -100 l 1
 0 -100 l 1x8c10
600 100 m 1
 700 100 l 1
 700 -100 l 1
 600 -100 l 1
 600 100 l 1
EndSplineSet
Validated: 5
EndChar
StartChar: B
Encoding: 66 66 30
Width: 700
VWidth: 1600
Flags: W
HStem: -100 100<200 500> 300 100<200 400> 600 100<200 400>
VStem: 100 100<0 300 400 600> 400 100<400 600> 500 100<0 300>
AnchorPoint: "ogonek" 350 -100 basechar 0
AnchorPoint: "bottom-adjoined" 350 -100 basechar 0
AnchorPoint: "top" 250 800 basechar 0
AnchorPoint: "bottom" 350 -200 basechar 0
LayerCount: 3
Fore
SplineSet
500 -100 m 1xf4
 100 -100 l 1
 100 700 l 1
 400 700 l 1
 400 600 l 1
 500 600 l 1xf8
 500 300 l 1
 600 300 l 1
 600 0 l 1
 500 0 l 1
 500 -100 l 1xf4
400 600 m 1
 200 600 l 1
 200 400 l 1
 400 400 l 1
 400 600 l 1
500 300 m 1xf4
 200 300 l 1
 200 0 l 1
 500 0 l 1
 500 300 l 1xf4
EndSplineSet
Validated: 5
EndChar
StartChar: C
Encoding: 67 67 31
Width: 700
VWidth: 1600
Flags: W
HStem: -100 100<300 600> 0 100<200 300> 480 20G<100 200> 500 100<200 300> 600 100<300 600>
VStem: 100 100<100 500> 200 100<0 100 500 600> 300 300<-100 0 600 700>
AnchorPoint: "ogonek" 450 -100 basechar 0
AnchorPoint: "top-even" 350 800 basechar 0
AnchorPoint: "bottom-adjoined" 450 -100 basechar 0
AnchorPoint: "bottom" 450 -200 basechar 0
AnchorPoint: "top" 450 800 basechar 0
LayerCount: 3
Fore
SplineSet
300 700 m 5x09
 600 700 l 1
 600 600 l 1x09
 300 600 l 5x12
 300 700 l 5x09
300 600 m 5x12
 300 500 l 5x12
 200 500 l 5x24
 200 600 l 5
 300 600 l 5x12
200 500 m 5x64
 200 100 l 5
 100 100 l 5
 100 500 l 5
 200 500 l 5x64
200 100 m 5
 300 100 l 5x42
 300 0 l 5x82
 200 0 l 5x42
 200 100 l 5
300 0 m 5x82
 600 0 l 1
 600 -100 l 1
 300 -100 l 5x81
 300 0 l 5x82
EndSplineSet
Validated: 5
EndChar
StartChar: D
Encoding: 68 68 32
Width: 800
VWidth: 1600
Flags: W
HStem: -100 100<200 500> 0 100<500 600> 500 100<500 600> 600 100<200 500>
VStem: 100 100<0 600> 500 100<0 100 500 600> 600 100<100 500>
AnchorPoint: "ogonek" 350 -100 basechar 0
AnchorPoint: "top-even" 250 800 basechar 0
AnchorPoint: "bottom-adjoined" 350 -100 basechar 0
AnchorPoint: "top" 350 800 basechar 0
AnchorPoint: "bottom" 350 -200 basechar 0
LayerCount: 3
Fore
SplineSet
500 -100 m 5x8c
 100 -100 l 1
 100 700 l 1
 500 700 l 5x9c
 500 600 l 5
 600 600 l 5
 600 500 l 5x2c
 700 500 l 5
 700 100 l 5x6a
 600 100 l 5
 600 0 l 5x6c
 500 0 l 5
 500 -100 l 5x8c
500 600 m 5x6c
 200 600 l 1
 200 0 l 1
 500 0 l 5x9c
 500 100 l 5
 600 100 l 5
 600 500 l 5
 500 500 l 5
 500 600 l 5x6c
EndSplineSet
Validated: 5
EndChar
StartChar: E
Encoding: 69 69 33
Width: 600
VWidth: 1600
Flags: W
HStem: -100 100<200 500> 300 100<200 500> 600 100<200 500>
VStem: 100 400<-100 0 300 400 600 700> 100 100<0 300 400 600>
AnchorPoint: "ogonek" 250 -100 basechar 0
AnchorPoint: "top-even" 250 800 basechar 0
AnchorPoint: "bottom-adjoined" 350 -100 basechar 0
AnchorPoint: "bottom" 350 -200 basechar 0
AnchorPoint: "top" 350 800 basechar 0
LayerCount: 3
Fore
SplineSet
200 0 m 1xe8
 500 0 l 1
 500 -100 l 1
 100 -100 l 1
 100 700 l 1
 500 700 l 1
 500 600 l 1xf0
 200 600 l 1
 200 400 l 1xe8
 500 400 l 1
 500 300 l 1xf0
 200 300 l 1
 200 0 l 1xe8
EndSplineSet
Validated: 1
EndChar
StartChar: F
Encoding: 70 70 34
Width: 600
VWidth: 1600
Flags: W
HStem: -100 21G<100 200> 300 100<200 500> 600 100<200 500>
VStem: 100 100<-100 300 400 600>
AnchorPoint: "ogonek" 50 -100 basechar 0
AnchorPoint: "top-even" 250 800 basechar 0
AnchorPoint: "bottom-adjoined" 150 -100 basechar 0
AnchorPoint: "bottom" 150 -200 basechar 0
AnchorPoint: "top" 350 800 basechar 0
LayerCount: 3
Fore
SplineSet
100 -100 m 1
 100 700 l 1
 500 700 l 1
 500 600 l 1
 200 600 l 1
 200 400 l 1
 500 400 l 1
 500 300 l 1
 200 300 l 1
 200 -100 l 1
 100 -100 l 1
EndSplineSet
Validated: 1
EndChar
StartChar: H
Encoding: 72 72 36
Width: 800
VWidth: 1600
Flags: W
HStem: -100 21G<100 200 600 700> 300 100<200 600> 680 20G<100 200 600 700>
VStem: 100 100<-100 300 400 700> 600 100<-100 300 400 700>
AnchorPoint: "ogonek" 350 -100 basechar 0
AnchorPoint: "bottom" 450 -200 basechar 0
AnchorPoint: "bottom-adjoined" 350 -100 basechar 0
AnchorPoint: "top" 450 800 basechar 0
AnchorPoint: "top-even" 350 800 basechar 0
LayerCount: 3
Fore
SplineSet
600 -100 m 1
 600 300 l 1
 200 300 l 1
 200 -100 l 1
 100 -100 l 1
 100 700 l 1
 200 700 l 1
 200 400 l 1
 600 400 l 1
 600 700 l 1
 700 700 l 1
 700 -100 l 1
 600 -100 l 1
EndSplineSet
Validated: 1
EndChar
StartChar: I
Encoding: 73 73 37
Width: 500
VWidth: 1600
Flags: W
HStem: -100 21G<200 300> 680 20G<200 300>
VStem: 200 100<-100 700>
AnchorPoint: "ogonek" 150 -100 basechar 0
AnchorPoint: "top" 250 800 basechar 0
AnchorPoint: "bottom" 250 -200 basechar 0
AnchorPoint: "bottom-adjoined" 250 -100 basechar 0
LayerCount: 3
Fore
SplineSet
200 -100 m 1
 200 700 l 1
 300 700 l 1
 300 -100 l 1
 200 -100 l 1
EndSplineSet
Validated: 1
EndChar
StartChar: J
Encoding: 74 74 38
Width: 400
VWidth: 1600
Flags: W
HStem: -200 100<0 200> -100 21G<200 300> 680 20G<200 300>
VStem: 200 100<-100 700>
AnchorPoint: "ogonek" 150 -200 basechar 0
AnchorPoint: "bottom-adjoined" 150 -200 basechar 0
AnchorPoint: "bottom" 150 -300 basechar 0
AnchorPoint: "top" 250 800 basechar 0
LayerCount: 3
Fore
SplineSet
200 -100 m 1xb0
 200 700 l 1
 300 700 l 1
 300 -100 l 1x70
 200 -100 l 1xb0
200 -100 m 1xb0
 200 -200 l 1
 0 -200 l 1
 0 -100 l 1
 200 -100 l 1xb0
EndSplineSet
Validated: 5
EndChar
StartChar: K
Encoding: 75 75 39
Width: 700
VWidth: 1600
Flags: W
HStem: -100 100<600 700> 0 100<500 600> 100 100<400 500> 400 100<400 500> 500 100<500 600> 600 100<600 700>
VStem: 100 100<-100 700> 300 100<200 400> 400 100<100 200 400 500> 500 100<0 100 500 600> 600 100<-100 0 600 700>
AnchorPoint: "top" 350 800 basechar 0
AnchorPoint: "top-even" 350 800 basechar 0
AnchorPoint: "ogonek" 350 -100 basechar 0
AnchorPoint: "bottom" 350 -200 basechar 0
AnchorPoint: "bottom-adjoined" 350 -100 basechar 0
LayerCount: 3
Fore
SplineSet
100 -100 m 1x86
 100 700 l 1
 200 700 l 1
 200 -100 l 1
 100 -100 l 1x86
600 600 m 1x0a40
 600 700 l 1
 700 700 l 1
 700 600 l 1x0620
 600 600 l 1x0a40
600 600 m 1x0a40
 600 500 l 1x0a40
 500 500 l 1x1280
 500 600 l 1
 600 600 l 1x0a40
500 500 m 1x1280
 500 400 l 1x1280
 400 400 l 1x13
 400 500 l 1
 500 500 l 1x1280
400 400 m 1x33
 400 200 l 1
 300 200 l 1
 300 400 l 1
 400 400 l 1x33
400 200 m 1
 500 200 l 1x2280
 500 100 l 1x4280
 400 100 l 1x2280
 400 200 l 1
500 100 m 1x4280
 600 100 l 1x4240
 600 0 l 1x8240
 500 0 l 1x4240
 500 100 l 1x4280
600 0 m 1x8240
 700 0 l 1
 700 -100 l 1
 600 -100 l 1x8220
 600 0 l 1x8240
EndSplineSet
Validated: 5
EndChar
StartChar: L
Encoding: 76 76 40
Width: 600
VWidth: 1600
Flags: W
HStem: -100 100<200 500> 680 20G<100 200>
VStem: 100 100<0 700>
AnchorPoint: "caron-alt" 350 600 basemark 0
AnchorPoint: "bottom" 250 -200 basechar 0
AnchorPoint: "bottom-adjoined" 250 -100 basechar 0
AnchorPoint: "ogonek" 250 -100 basechar 0
AnchorPoint: "top" 150 800 basechar 0
LayerCount: 3
Fore
SplineSet
200 0 m 1
 500 0 l 1
 500 -100 l 1
 100 -100 l 1
 100 700 l 1
 200 700 l 1
 200 0 l 1
EndSplineSet
Validated: 1
EndChar
StartChar: M
Encoding: 77 77 41
Width: 1000
VWidth: 1600
Flags: W
HStem: -100 21G<100 200 800 900> 0 200<400 600> 200 200<300 400 600 700> 400 200<200 300 700 800> 680 20G<100 200 800 900>
VStem: 100 200<400 600> 100 100<-100 400 600 700> 300 100<200 400> 400 200<0 200> 600 100<200 400> 700 200<400 600> 800 100<-100 400 600 700>
AnchorPoint: "ogonek" 450 -100 basechar 0
AnchorPoint: "bottom-adjoined" 450 -100 basechar 0
AnchorPoint: "bottom" 450 -200 basechar 0
AnchorPoint: "top-even" 450 800 basechar 0
AnchorPoint: "top" 550 800 basechar 0
LayerCount: 3
Fore
SplineSet
100 -100 m 1x9a
 100 700 l 1
 200 700 l 1
 200 600 l 1x9a
 300 600 l 1x9c
 300 400 l 1xac
 200 400 l 1
 200 -100 l 1
 100 -100 l 1x9a
800 -100 m 1x9810
 800 400 l 1x9810
 700 400 l 1xa850
 700 600 l 1x9820
 800 600 l 1
 800 700 l 1
 900 700 l 1
 900 -100 l 1
 800 -100 l 1x9810
300 400 m 1xac
 400 400 l 1xa9
 400 200 l 1xc9
 300 200 l 1xa9
 300 400 l 1xac
400 200 m 1xc9
 600 200 l 1xc880
 600 400 l 1
 700 400 l 1
 700 200 l 1xa840
 600 200 l 1
 600 0 l 1
 400 0 l 1xc880
 400 200 l 1xc9
EndSplineSet
Validated: 5
EndChar
StartChar: N
Encoding: 78 78 42
Width: 800
VWidth: 1600
Flags: W
HStem: -100 21G<100 200 600 700> 0 100<500 600> 480 20G<300 400> 500 100<200 300> 680 20G<100 200 600 700>
VStem: 100 100<-100 500 600 700> 300 100<300 500> 400 100<100 300> 600 100<-100 0 100 700>
AnchorPoint: "ogonek" 350 -100 basechar 0
AnchorPoint: "bottom-adjoined" 350 -100 basechar 0
AnchorPoint: "bottom" 350 -200 basechar 0
AnchorPoint: "top-even" 350 800 basechar 0
AnchorPoint: "top" 450 800 basechar 0
LayerCount: 3
Fore
SplineSet
100 -100 m 1xde80
 100 700 l 1
 200 700 l 1
 200 600 l 1
 300 600 l 1xde80
 300 500 l 1xee80
 200 500 l 1
 200 -100 l 1
 100 -100 l 1xde80
600 -100 m 1
 600 0 l 1
 500 0 l 1
 500 100 l 1
 400 100 l 1xed80
 400 300 l 1
 300 300 l 1
 300 500 l 1
 400 500 l 1
 400 300 l 1xee80
 500 300 l 1
 500 100 l 1xed80
 600 100 l 1
 600 700 l 1
 700 700 l 1
 700 -100 l 1
 600 -100 l 1
EndSplineSet
Validated: 5
EndChar
StartChar: Q
Encoding: 81 81 45
Width: 900
VWidth: 1600
Flags: W
HStem: -200 100<500 800> -100 100<300 500> 0 100<500 600> 100 100<200 300 600 700> 200 300<100 200 700 800> 500 100<200 300 600 700> 600 100<300 600>
VStem: 100 100<200 500> 200 100<100 200 500 600> 500 100<0 100> 600 100<100 200 500 600> 700 100<200 500>
AnchorPoint: "ogonek" 450 -200 basechar 0
AnchorPoint: "bottom-adjoined" 450 -200 basechar 0
AnchorPoint: "bottom" 350 -200 basechar 0
AnchorPoint: "top" 450 800 basechar 0
LayerCount: 3
Fore
SplineSet
300 100 m 1x1080
 200 100 l 1x1080
 200 200 l 1x11
 100 200 l 1
 100 500 l 1
 200 500 l 1x09
 200 600 l 1
 300 600 l 1x0480
 300 700 l 1
 600 700 l 1x02a0
 600 600 l 1
 300 600 l 1
 300 500 l 1x04a0
 200 500 l 1x09
 200 200 l 1x11
 300 200 l 1
 300 100 l 1x1080
600 600 m 1x0420
 700 600 l 1x0420
 700 500 l 1x0820
 600 500 l 1
 600 600 l 1x0420
700 500 m 1x0820
 800 500 l 1
 800 200 l 1x0810
 700 200 l 1x1020
 700 500 l 1x0820
700 200 m 1x1020
 700 100 l 1x1020
 600 100 l 1x2040
 600 200 l 1
 700 200 l 1x1020
600 100 m 1x2040
 600 0 l 1x2040
 500 0 l 1x4040
 500 100 l 1
 600 100 l 1x2040
500 0 m 1x40d0
 500 -100 l 1
 800 -100 l 1
 800 -200 l 1
 500 -200 l 1
 500 -100 l 1x80d0
 300 -100 l 1
 300 0 l 1
 500 0 l 1x40d0
EndSplineSet
Validated: 5
EndChar
StartChar: W
Encoding: 87 87 51
Width: 1100
VWidth: 1600
Flags: W
HStem: -100 200<300 400 700 800> 100 300<200 300 800 900> 100 200<400 500 600 700> 400 300<100 200 900 1000>
VStem: 100 100<400 700> 200 100<100 400> 300 100<-100 100> 400 100<100 300> 600 100<100 300> 700 100<-100 100> 800 100<100 400> 900 100<400 700>
AnchorPoint: "bottom" 550 -200 basechar 0
AnchorPoint: "bottom-adjoined" 550 -100 basechar 0
AnchorPoint: "ogonek" 550 -100 basechar 0
AnchorPoint: "top" 550 800 basechar 0
LayerCount: 3
Fore
SplineSet
600 300 m 1x2180
 600 600 l 1
 500 600 l 1
 500 300 l 1
 600 300 l 1x2180
200 400 m 1x48
 100 400 l 1
 100 700 l 1
 200 700 l 1x18
 200 400 l 1x48
200 400 m 1x48
 300 400 l 1x44
 300 100 l 1x84
 200 100 l 1x44
 200 400 l 1x48
900 400 m 1x4020
 900 700 l 1
 1000 700 l 1
 1000 400 l 1x1010
 900 400 l 1x4020
900 400 m 1x4020
 900 100 l 1x4020
 800 100 l 1x8040
 800 400 l 1
 900 400 l 1x4020
400 100 m 1x82
 400 300 l 1
 500 300 l 1
 500 100 l 1x21
 400 100 l 1x82
400 100 m 1x82
 400 -100 l 1
 300 -100 l 1x82
 300 100 l 1x84
 400 100 l 1x82
800 100 m 1x8040
 800 -100 l 1
 700 -100 l 1x8040
 700 100 l 1x8080
 600 100 l 1
 600 300 l 1
 700 300 l 1x2080
 700 100 l 1x8080
 800 100 l 1x8040
600 300 m 1x2180
 600 600 l 1
 500 600 l 1
 500 300 l 1
 600 300 l 1x2180
EndSplineSet
Validated: 5
EndChar
StartChar: Y
Encoding: 89 89 53
Width: 700
VWidth: 1600
Flags: W
HStem: -100 21G<300 400> 300 100<200 300 400 500> 400 200<100 200 500 600> 600 100<0 100 600 700>
VStem: -0 100<600 700> 100 100<400 600> 200 100<300 400> 300 100<-100 300> 400 100<300 400> 500 100<400 600> 600 100<600 700>
AnchorPoint: "ogonek" 250 -100 basechar 0
AnchorPoint: "bottom-adjoined" 350 -100 basechar 0
AnchorPoint: "bottom" 350 -200 basechar 0
AnchorPoint: "top" 350 800 basechar 0
LayerCount: 3
Fore
SplineSet
100 600 m 1xa8
 -0 600 l 1
 -0 700 l 1
 100 700 l 1x98
 100 600 l 1xa8
100 600 m 1xa8
 200 600 l 1xa4
 200 400 l 1xc4
 100 400 l 1xa4
 100 600 l 1xa8
600 600 m 1xa040
 600 700 l 1
 700 700 l 1
 700 600 l 1x9020
 600 600 l 1xa040
600 600 m 1xa040
 600 400 l 1xa040
 500 400 l 1xc080
 500 600 l 1
 600 600 l 1xa040
200 400 m 1xc4
 300 400 l 1
 300 300 l 1
 200 300 l 1xc2
 200 400 l 1xc4
500 400 m 1xc080
 500 300 l 1xc080
 400 300 l 1xc1
 400 400 l 1
 500 400 l 1xc080
400 300 m 1xc1
 400 -100 l 1
 300 -100 l 1xc1
 300 300 l 1xc2
 400 300 l 1xc1
EndSplineSet
Validated: 5
EndChar
StartChar: Z
Encoding: 90 90 54
Width: 800
VWidth: 1600
Flags: W
HStem: -100 100<200 700> 100 100<200 300> 200 100<300 400> 300 100<400 500> 400 100<500 600> 600 100<100 600>
VStem: 100 100<0 100> 200 100<100 200> 300 100<200 300> 400 100<300 400> 500 100<400 500> 600 100<500 600>
AnchorPoint: "ogonek" 350 -100 basechar 0
AnchorPoint: "bottom-adjoined" 450 -100 basechar 0
AnchorPoint: "bottom" 450 -200 basechar 0
AnchorPoint: "top-even" 350 800 basechar 0
AnchorPoint: "top" 450 800 basechar 0
LayerCount: 3
Fore
SplineSet
200 0 m 1xc6
 700 0 l 1
 700 -100 l 1
 100 -100 l 1
 100 100 l 1
 200 100 l 1xc610
 200 200 l 1
 300 200 l 1xc5
 300 300 l 1
 400 300 l 1xa480
 400 400 l 1
 500 400 l 1x9440
 500 500 l 1
 600 500 l 1x8c20
 600 600 l 1
 100 600 l 1
 100 700 l 1
 700 700 l 1
 700 500 l 1x8e10
 600 500 l 1
 600 400 l 1x8c20
 500 400 l 1
 500 300 l 1x9440
 400 300 l 1
 400 200 l 1xa480
 300 200 l 1
 300 100 l 1xc5
 200 100 l 1
 200 0 l 1xc6
EndSplineSet
Validated: 5
EndChar
StartChar: bracketleft
Encoding: 91 91 85
Width: 500
Flags: W
HStem: -100 100<300 400> 600 100<300 400>
VStem: 200 200<-100 0 600 700> 200 100<0 600>
LayerCount: 3
Fore
SplineSet
200 700 m 1xe0
 400 700 l 1
 400 600 l 1xe0
 300 600 l 1
 300 0 l 1xd0
 400 0 l 1
 400 -100 l 1
 200 -100 l 1
 200 700 l 1xe0
EndSplineSet
Validated: 1
EndChar
StartChar: backslash
Encoding: 92 92 84
Width: 700
Flags: W
HStem: -200 21G<500 600>
VStem: 100 100<600 800> 200 100<400 600> 300 100<200 400> 400 100<0 200> 500 100<-200 0>
LayerCount: 3
Fore
SplineSet
100 600 m 1xc0
 100 800 l 1
 200 800 l 1
 200 600 l 1
 100 600 l 1xc0
200 600 m 1
 300 600 l 1
 300 400 l 1
 200 400 l 1xa0
 200 600 l 1
300 400 m 1
 400 400 l 1
 400 200 l 1
 300 200 l 1x90
 300 400 l 1
400 200 m 1
 500 200 l 1
 500 0 l 1
 400 0 l 1x88
 400 200 l 1
500 0 m 1
 600 0 l 1
 600 -200 l 1
 500 -200 l 1x84
 500 0 l 1
EndSplineSet
Validated: 5
EndChar
StartChar: bracketright
Encoding: 93 93 86
Width: 500
Flags: W
HStem: -100 100<100 200> 600 100<100 200>
VStem: 100 200<-100 0 600 700> 200 100<0 600>
LayerCount: 3
Fore
SplineSet
100 600 m 1xe0
 100 700 l 1
 300 700 l 1
 300 -100 l 1
 100 -100 l 1
 100 0 l 1xe0
 200 0 l 1
 200 600 l 1xd0
 100 600 l 1xe0
EndSplineSet
Validated: 1
EndChar
StartChar: asciicircum
Encoding: 94 94 55
Width: 700
VWidth: 1600
Flags: W
HStem: 500 100<100 200 500 600> 600 100<200 300 400 500> 700 100<300 400>
VStem: 100 100<500 600> 200 100<600 700> 300 100<700 800> 400 100<600 700> 500 100<500 600>
LayerCount: 3
Fore
SplineSet
100 500 m 1x90
 100 600 l 1
 200 600 l 1x90
 200 700 l 1
 300 700 l 1x48
 300 800 l 1
 400 800 l 1x24
 400 700 l 1x44
 300 700 l 1
 300 600 l 1x48
 200 600 l 1
 200 500 l 1
 100 500 l 1x90
400 700 m 1x44
 500 700 l 1x42
 500 600 l 1x82
 400 600 l 1x42
 400 700 l 1x44
500 600 m 1x82
 600 600 l 1
 600 500 l 1
 500 500 l 1x81
 500 600 l 1x82
EndSplineSet
Validated: 5
EndChar
StartChar: underscore
Encoding: 95 95 56
Width: 600
VWidth: 1600
Flags: W
HStem: -100 100
LayerCount: 3
Fore
SplineSet
500 0 m 1
 100 0 l 1
 100 -100 l 1
 500 -100 l 1
 500 0 l 1
EndSplineSet
Validated: 9
EndChar
StartChar: grave
Encoding: 96 96 57
Width: 500
VWidth: 1600
Flags: W
HStem: 500 100<300 400> 600 100<200 300> 700 100<100 200>
VStem: 100 100<700 800> 200 100<600 700> 300 100<500 600>
LayerCount: 3
Fore
SplineSet
200 700 m 1x50
 100 700 l 1
 100 800 l 1
 200 800 l 1x30
 200 700 l 1x50
200 700 m 1x50
 300 700 l 1x48
 300 600 l 1x88
 200 600 l 1x48
 200 700 l 1x50
300 600 m 1x88
 400 600 l 1
 400 500 l 1
 300 500 l 1x84
 300 600 l 1x88
EndSplineSet
Validated: 5
EndChar
StartChar: b
Encoding: 98 98 59
Width: 600
VWidth: 1600
Flags: W
HStem: 0 100<200 400> 400 100<200 400> 680 20G<100 200>
VStem: 100 100<100 400 500 700> 400 100<100 400>
AnchorPoint: "ogonek" 250 0 basechar 0
AnchorPoint: "bottom-adjoined" 350 0 basechar 0
AnchorPoint: "bottom" 350 -100 basechar 0
AnchorPoint: "top" 150 800 basechar 0
LayerCount: 3
Fore
SplineSet
400 400 m 1
 200 400 l 1
 200 100 l 1
 100 100 l 1
 100 700 l 1
 200 700 l 1
 200 500 l 1
 400 500 l 1
 400 400 l 1
400 400 m 1
 500 400 l 1
 500 100 l 1
 400 100 l 1
 400 400 l 1
400 100 m 1
 400 0 l 1
 200 0 l 1
 200 100 l 1
 400 100 l 1
EndSplineSet
Validated: 5
EndChar
StartChar: c
Encoding: 99 99 60
Width: 500
VWidth: 1600
Flags: W
HStem: 0 100<200 400> 400 100<200 400>
VStem: 100 100<100 400> 200 200<0 100 400 500>
AnchorPoint: "top" 250 600 basechar 0
AnchorPoint: "bottom" 250 -100 basechar 0
AnchorPoint: "bottom-adjoined" 250 0 basechar 0
AnchorPoint: "ogonek" 250 0 basechar 0
LayerCount: 3
Fore
SplineSet
200 500 m 1xd0
 400 500 l 1
 400 400 l 1xd0
 200 400 l 1xe0
 200 500 l 1xd0
200 400 m 1xe0
 200 100 l 1
 100 100 l 1
 100 400 l 1
 200 400 l 1xe0
200 100 m 1
 400 100 l 1
 400 0 l 1
 200 0 l 1xd0
 200 100 l 1
EndSplineSet
Validated: 5
EndChar
StartChar: d
Encoding: 100 100 61
Width: 600
VWidth: 1600
Flags: W
HStem: 0 100<200 400> 400 100<200 400> 680 20G<400 500>
VStem: 100 100<100 400> 200 300<0 100 400 500> 400 100<100 400 500 700>
AnchorPoint: "caron-alt" 650 600 basechar 0
AnchorPoint: "ogonek" 250 0 basechar 0
AnchorPoint: "bottom-adjoined" 350 0 basechar 0
AnchorPoint: "bottom" 350 -100 basechar 0
AnchorPoint: "top" 450 800 basechar 0
LayerCount: 3
Fore
SplineSet
200 100 m 1xf4
 400 100 l 1
 400 400 l 1
 200 400 l 1
 200 100 l 1xf4
200 100 m 1
 100 100 l 1
 100 400 l 1
 200 400 l 1xf0
 200 500 l 1xe8
 400 500 l 1
 400 700 l 1
 500 700 l 1xe4
 500 0 l 1
 200 0 l 1xe8
 200 100 l 1
EndSplineSet
Validated: 5
EndChar
StartChar: e
Encoding: 101 101 62
Width: 600
VWidth: 1600
Flags: W
HStem: 0 100<200 400> 200 100<200 400> 400 100<200 400>
VStem: 100 100<100 200 300 400> 200 200<0 100 400 500> 400 100<300 400>
CounterMasks: 1 e0
AnchorPoint: "bottom-adjoined" 250 0 basechar 0
AnchorPoint: "ogonek" 250 0 basechar 0
AnchorPoint: "bottom" 250 -100 basechar 0
AnchorPoint: "top-even" 250 600 basechar 0
AnchorPoint: "top" 350 600 basechar 0
LayerCount: 3
Fore
SplineSet
400 400 m 1xe8
 200 400 l 1xf0
 200 500 l 1
 400 500 l 1
 400 400 l 1xe8
400 400 m 1xe8
 500 400 l 1
 500 200 l 1
 200 200 l 1
 200 100 l 1
 100 100 l 1
 100 400 l 1
 200 400 l 1
 200 300 l 1
 400 300 l 1xf4
 400 400 l 1xe8
200 100 m 1
 400 100 l 1
 400 0 l 1
 200 0 l 1xe8
 200 100 l 1
EndSplineSet
Validated: 5
EndChar
StartChar: f
Encoding: 102 102 63
Width: 400
VWidth: 1600
Flags: W
HStem: -200 21G<100 200> 300 100<200 400> 600 100<200 400>
VStem: 100 100<-200 300 400 600>
AnchorPoint: "ogonek" 50 -200 basechar 0
AnchorPoint: "bottom-adjoined" 150 -200 basechar 0
AnchorPoint: "bottom" 150 -300 basechar 0
AnchorPoint: "top" 250 800 basechar 0
LayerCount: 3
Fore
SplineSet
200 700 m 1
 400 700 l 1
 400 600 l 1
 200 600 l 1
 200 700 l 1
100 -200 m 1
 100 600 l 1
 200 600 l 1
 200 400 l 1
 400 400 l 1
 400 300 l 1
 200 300 l 1
 200 -200 l 1
 100 -200 l 1
EndSplineSet
Validated: 5
EndChar
StartChar: g
Encoding: 103 103 64
Width: 600
VWidth: 1600
Flags: W
HStem: -200 100<200 400>
AnchorPoint: "ogonek" 250 -200 basechar 0
AnchorPoint: "bottom-adjoined" 350 -200 basechar 0
AnchorPoint: "bottom" 350 -300 basechar 0
AnchorPoint: "top-even" 250 600 basechar 0
AnchorPoint: "top" 350 600 basechar 0
LayerCount: 3
Fore
SplineSet
500 400 m 1
 500 500 l 1
 200 500 l 1
 200 400 l 1
 500 400 l 1
400 -100 m 1
 400 -200 l 1
 200 -200 l 1
 200 -100 l 1
 400 -100 l 1
400 -100 m 1
 500 -100 l 1
 500 300 l 1
 400 300 l 1
 400 100 l 1
 200 100 l 1
 200 400 l 1
 100 400 l 1
 100 100 l 1
 200 100 l 1
 200 0 l 1
 400 0 l 1
 400 -100 l 1
EndSplineSet
Validated: 5
EndChar
StartChar: i
Encoding: 105 105 66
Width: 400
VWidth: 1600
Flags: W
HStem: 400 100<100 200> 600 100<200 300>
VStem: 200 100<0 400 600 700>
AnchorPoint: "ogonek" 150 0 basechar 0
AnchorPoint: "bottom-adjoined" 250 0 basechar 0
AnchorPoint: "bottom" 250 -100 basechar 0
AnchorPoint: "top" 250 800 basechar 0
LayerCount: 3
Fore
SplineSet
200 600 m 1
 200 700 l 1
 300 700 l 1
 300 600 l 1
 200 600 l 1
100 400 m 1
 100 500 l 1
 300 500 l 1
 300 0 l 1
 200 0 l 1
 200 400 l 1
 100 400 l 1
EndSplineSet
Validated: 1
EndChar
StartChar: j
Encoding: 106 106 67
Width: 300
VWidth: 1600
Flags: W
HStem: -200 100<0 100> 480 20G<100 200> 600 100<100 200>
VStem: 0 100<-200 -100> 100 100<-100 500 600 700>
AnchorPoint: "ogonek" 50 -100 basechar 0
AnchorPoint: "bottom-adjoined" 50 -200 basechar 0
AnchorPoint: "bottom" 50 -300 basechar 0
AnchorPoint: "top" 150 800 basechar 0
LayerCount: 3
Fore
SplineSet
100 600 m 1xe8
 100 700 l 1
 200 700 l 1
 200 600 l 1
 100 600 l 1xe8
0 -200 m 1xf0
 0 -100 l 1
 100 -100 l 1xf0
 100 500 l 1
 200 500 l 1
 200 -100 l 1xe8
 100 -100 l 1
 100 -200 l 1
 0 -200 l 1xf0
EndSplineSet
Validated: 5
EndChar
StartChar: k
Encoding: 107 107 68
Width: 600
VWidth: 1600
Flags: W
HStem: 0 100<400 500> 100 100<300 400> 200 100<200 300> 300 100<300 400> 400 100<400 500> 680 20G<100 200>
VStem: 100 100<0 200 300 700> 300 100<100 200 300 400> 400 100<0 100 400 500>
AnchorPoint: "top-even" 250 800 basechar 0
AnchorPoint: "ogonek" 250 0 basechar 0
AnchorPoint: "bottom-adjoined" 250 0 basechar 0
AnchorPoint: "bottom" 250 -100 basechar 0
AnchorPoint: "top" 250 800 basechar 0
LayerCount: 3
Fore
SplineSet
100 0 m 1xa7
 100 700 l 1
 200 700 l 1
 200 300 l 1
 300 300 l 1xa7
 300 400 l 1
 400 400 l 1x17
 400 500 l 1
 500 500 l 1
 500 400 l 1x0e80
 400 400 l 1
 400 300 l 1x17
 300 300 l 1x27
 300 200 l 1x47
 200 200 l 1
 200 0 l 1
 100 0 l 1xa7
300 200 m 1x47
 400 200 l 1x47
 400 100 l 1x87
 300 100 l 1
 300 200 l 1x47
400 100 m 1x87
 500 100 l 1
 500 0 l 1
 400 0 l 1x8680
 400 100 l 1x87
EndSplineSet
Validated: 5
EndChar
StartChar: l
Encoding: 108 108 69
Width: 300
VWidth: 1600
Flags: W
HStem: 0 100<200 300> 680 20G<100 200>
VStem: 100 100<100 700> 200 100<0 100>
AnchorPoint: "caron-alt" 350 600 basechar 0
AnchorPoint: "ogonek" 150 0 basechar 0
AnchorPoint: "bottom-adjoined" 150 0 basechar 0
AnchorPoint: "bottom" 150 -100 basechar 0
AnchorPoint: "top" 150 800 basechar 0
LayerCount: 3
Fore
SplineSet
200 100 m 1xe0
 100 100 l 1
 100 700 l 1
 200 700 l 1
 200 100 l 1xe0
200 100 m 1
 300 100 l 1
 300 0 l 1
 200 0 l 1xd0
 200 100 l 1
EndSplineSet
Validated: 5
EndChar
StartChar: m
Encoding: 109 109 70
Width: 700
VWidth: 1600
Flags: W
HStem: 480 20G<100 200 300 400 500 600>
VStem: 100 100<0 500> 300 100<200 500> 500 100<0 500>
CounterMasks: 1 70
AnchorPoint: "ogonek" 350 0 basechar 0
AnchorPoint: "bottom-adjoined" 350 0 basechar 0
AnchorPoint: "bottom" 350 -100 basechar 0
AnchorPoint: "top" 350 600 basechar 0
LayerCount: 3
Fore
SplineSet
300 200 m 1
 300 500 l 1
 400 500 l 1
 400 200 l 1
 300 200 l 1
100 0 m 1
 100 500 l 1
 200 500 l 1
 200 0 l 1
 100 0 l 1
500 0 m 1
 500 500 l 1
 600 500 l 1
 600 0 l 1
 500 0 l 1
EndSplineSet
Validated: 1
EndChar
StartChar: n
Encoding: 110 110 71
Width: 600
VWidth: 1600
Flags: W
HStem: 400 100<200 400>
VStem: 100 100<0 400> 400 100<0 400>
AnchorPoint: "ogonek" 250 0 basechar 0
AnchorPoint: "bottom-adjoined" 350 0 basechar 0
AnchorPoint: "bottom" 350 -100 basechar 0
AnchorPoint: "top-even" 250 600 basechar 0
AnchorPoint: "top" 350 600 basechar 0
LayerCount: 3
Fore
SplineSet
100 0 m 1
 100 500 l 1
 400 500 l 1
 400 400 l 1
 200 400 l 1
 200 0 l 1
 100 0 l 1
400 400 m 1
 500 400 l 1
 500 0 l 1
 400 0 l 1
 400 400 l 1
EndSplineSet
Validated: 5
EndChar
StartChar: o
Encoding: 111 111 72
Width: 600
VWidth: 1600
Flags: W
HStem: 0 100<200 400> 100 300<100 200 400 500> 400 100<200 400>
VStem: 100 100<100 400> 200 200<0 100 400 500> 400 100<100 400>
AnchorPoint: "ogonek" 350 0 basechar 0
AnchorPoint: "bottom-adjoined" 350 0 basechar 0
AnchorPoint: "bottom" 350 -100 basechar 0
AnchorPoint: "top-even" 250 600 basechar 0
AnchorPoint: "top" 350 600 basechar 0
LayerCount: 3
Fore
SplineSet
200 400 m 1x50
 200 500 l 1
 400 500 l 1x28
 400 400 l 1x48
 200 400 l 1x50
200 400 m 1x50
 200 100 l 1x90
 100 100 l 1
 100 400 l 1
 200 400 l 1x50
400 400 m 1x48
 500 400 l 1
 500 100 l 1x44
 400 100 l 1x88
 400 400 l 1x48
400 100 m 1x88
 400 0 l 1
 200 0 l 1x88
 200 100 l 1x90
 400 100 l 1x88
EndSplineSet
Validated: 5
EndChar
StartChar: p
Encoding: 112 112 73
Width: 600
VWidth: 1600
Flags: W
HStem: 400 100<100 400>
VStem: 400 100<100 400>
AnchorPoint: "ogonek" 50 -200 basechar 0
AnchorPoint: "bottom-adjoined" 150 -200 basechar 0
AnchorPoint: "bottom" 150 -300 basechar 0
AnchorPoint: "top" 250 600 basechar 0
LayerCount: 3
Fore
SplineSet
100 400 m 1
 100 500 l 1
 400 500 l 1
 400 400 l 1
 100 400 l 1
100 300 m 1
 100 -200 l 1
 200 -200 l 1
 200 0 l 1
 400 0 l 1
 400 100 l 1
 200 100 l 1
 200 300 l 1
 100 300 l 1
400 400 m 1
 500 400 l 1
 500 100 l 1
 400 100 l 1
 400 400 l 1
EndSplineSet
Validated: 5
EndChar
StartChar: q
Encoding: 113 113 74
Width: 600
VWidth: 1600
Flags: W
HStem: -200 21G<400 500> 0 100<200 300> 100 100<300 400> 400 100<200 400>
VStem: 100 100<100 400> 200 100<0 100> 400 100<-200 100 200 400>
AnchorPoint: "ogonek" 350 -200 basechar 0
AnchorPoint: "bottom-adjoined" 450 -200 basechar 0
AnchorPoint: "bottom" 450 -300 basechar 0
AnchorPoint: "top" 350 600 basechar 0
LayerCount: 3
Fore
SplineSet
400 -200 m 1xb6
 400 100 l 1xb6
 300 100 l 1
 300 0 l 1
 200 0 l 1xd6
 200 100 l 1xda
 100 100 l 1
 100 400 l 1
 200 400 l 1xba
 200 500 l 1
 500 500 l 1
 500 -200 l 1
 400 -200 l 1xb6
200 100 m 1xda
 300 100 l 1xd6
 300 200 l 1
 400 200 l 1xb6
 400 400 l 1
 200 400 l 1
 200 100 l 1xda
EndSplineSet
Validated: 5
EndChar
StartChar: r
Encoding: 114 114 75
Width: 400
VWidth: 1600
Flags: W
HStem: 400 100<200 400>
VStem: 100 100<0 400>
AnchorPoint: "top-even" 150 600 basechar 0
AnchorPoint: "ogonek" 50 0 basechar 0
AnchorPoint: "bottom-adjoined" 150 0 basechar 0
AnchorPoint: "bottom" 150 -100 basechar 0
AnchorPoint: "top" 250 600 basechar 0
LayerCount: 3
Fore
SplineSet
200 500 m 1
 400 500 l 1
 400 400 l 1
 200 400 l 1
 200 500 l 1
100 0 m 1
 100 400 l 1
 200 400 l 1
 200 0 l 1
 100 0 l 1
EndSplineSet
Validated: 5
EndChar
StartChar: s
Encoding: 115 115 76
Width: 500
VWidth: 1600
Flags: W
HStem: 0 100<100 300> 100 100<300 400> 200 100<200 300> 300 100<100 200> 400 100<200 400>
VStem: 100 100<300 400> 200 100<200 300> 300 100<100 200>
AnchorPoint: "bottom-adjoined" 250 0 basechar 0
AnchorPoint: "ogonek" 150 0 basechar 0
AnchorPoint: "bottom" 250 -100 basechar 0
AnchorPoint: "top" 250 600 basechar 0
LayerCount: 3
Fore
SplineSet
200 500 m 1x0a
 400 500 l 1
 400 400 l 1x09
 200 400 l 1x15
 200 500 l 1x0a
200 400 m 1x14
 200 300 l 1x24
 100 300 l 1
 100 400 l 1
 200 400 l 1x14
200 300 m 1
 300 300 l 1x22
 300 200 l 1x42
 200 200 l 1x22
 200 300 l 1
300 200 m 1x42
 400 200 l 1
 400 100 l 1x41
 300 100 l 1x81
 300 200 l 1x42
300 100 m 1x85
 300 0 l 1
 100 0 l 1
 100 100 l 1
 300 100 l 1x85
EndSplineSet
Validated: 5
EndChar
StartChar: t
Encoding: 116 116 77
Width: 500
VWidth: 1600
Flags: W
HStem: 0 100<200 400> 400 100<200 400>
VStem: 100 100<100 400 500 600>
AnchorPoint: "caron-alt" 350 600 basechar 0
AnchorPoint: "bottom" 250 -100 basechar 0
AnchorPoint: "bottom-adjoined" 250 0 basechar 0
AnchorPoint: "ogonek" 250 0 basechar 0
AnchorPoint: "top" 150 700 basechar 0
LayerCount: 3
Fore
SplineSet
200 100 m 1
 100 100 l 1
 100 600 l 1
 200 600 l 1
 200 500 l 1
 400 500 l 1
 400 400 l 1
 200 400 l 1
 200 100 l 1
200 100 m 1
 400 100 l 1
 400 0 l 1
 200 0 l 1
 200 100 l 1
EndSplineSet
Validated: 5
EndChar
StartChar: u
Encoding: 117 117 78
Width: 600
VWidth: 1600
Flags: W
HStem: 0 100<200 400> 480 20G<100 200 400 500>
VStem: 100 100<100 500> 400 100<100 500>
AnchorPoint: "top" 350 600 basechar 0
AnchorPoint: "bottom" 350 -100 basechar 0
AnchorPoint: "bottom-adjoined" 350 0 basechar 0
AnchorPoint: "top-even" 250 600 basechar 0
AnchorPoint: "ogonek" 350 0 basechar 0
LayerCount: 3
Fore
SplineSet
500 0 m 1
 200 0 l 1
 200 100 l 1
 100 100 l 1
 100 500 l 1
 200 500 l 1
 200 100 l 1
 400 100 l 1
 400 500 l 1
 500 500 l 1
 500 0 l 1
EndSplineSet
Validated: 5
EndChar
StartChar: v
Encoding: 118 118 79
Width: 700
VWidth: 1600
Flags: W
HStem: 0 100<300 400> 100 200<200 300 400 500> 300 200<100 200 500 600>
VStem: 100 100<300 500> 200 100<100 300> 300 100<0 100> 400 100<100 300> 500 100<300 500>
AnchorPoint: "bottom" 350 -100 basechar 0
AnchorPoint: "top" 350 600 basechar 0
AnchorPoint: "bottom-adjoined" 350 0 basechar 0
AnchorPoint: "ogonek" 250 0 basechar 0
LayerCount: 3
Fore
SplineSet
200 300 m 1x50
 100 300 l 1
 100 500 l 1
 200 500 l 1x30
 200 300 l 1x50
200 300 m 1x50
 300 300 l 1x48
 300 100 l 1x88
 200 100 l 1x48
 200 300 l 1x50
500 300 m 1x42
 500 500 l 1
 600 500 l 1
 600 300 l 1x21
 500 300 l 1x42
500 300 m 1x42
 500 100 l 1x42
 400 100 l 1x84
 400 300 l 1
 500 300 l 1x42
400 100 m 1x84
 400 0 l 1
 300 0 l 1x84
 300 100 l 1x88
 400 100 l 1x84
EndSplineSet
Validated: 5
EndChar
StartChar: w
Encoding: 119 119 80
Width: 900
VWidth: 1600
Flags: W
HStem: 0 200<200 300 600 700> 200 300<100 200 700 800> 200 100<300 400 500 600>
VStem: 100 100<200 500> 200 100<0 200> 300 100<200 300> 400 100<300 500> 500 100<200 300> 600 100<0 200> 700 100<200 500>
AnchorPoint: "bottom" 450 -100 basechar 0
AnchorPoint: "bottom-adjoined" 450 0 basechar 0
AnchorPoint: "ogonek" 450 0 basechar 0
AnchorPoint: "top" 450 600 basechar 0
LayerCount: 3
Fore
SplineSet
400 300 m 1x24
 400 500 l 1
 500 500 l 1x42
 500 300 l 1x22
 400 300 l 1x24
400 300 m 1x24
 400 200 l 1x24
 300 200 l 1x88
 300 300 l 1
 400 300 l 1x24
500 300 m 1x22
 600 300 l 1x21
 600 200 l 1x81
 500 200 l 1x21
 500 300 l 1x22
300 200 m 1x88
 300 0 l 1
 200 0 l 1x88
 200 200 l 1x90
 100 200 l 1
 100 500 l 1
 200 500 l 1x50
 200 200 l 1x90
 300 200 l 1x88
700 200 m 1x8080
 700 500 l 1
 800 500 l 1
 800 200 l 1x4040
 700 200 l 1x8080
700 200 m 1x8080
 700 0 l 1
 600 0 l 1x8080
 600 200 l 1x81
 700 200 l 1x8080
EndSplineSet
Validated: 5
EndChar
StartChar: x
Encoding: 120 120 81
Width: 700
VWidth: 1600
Flags: W
HStem: 0 100<100 200 500 600> 100 100<200 300 400 500> 200 100<300 400> 300 100<200 300 400 500> 400 100<100 200 500 600>
VStem: 100 100<0 100 400 500> 200 100<100 200 300 400> 300 100<200 300> 400 100<100 200 300 400> 500 100<0 100 400 500>
AnchorPoint: "bottom" 350 -100 basechar 0
AnchorPoint: "bottom-adjoined" 350 0 basechar 0
AnchorPoint: "ogonek" 350 0 basechar 0
AnchorPoint: "top" 350 600 basechar 0
LayerCount: 3
Fore
SplineSet
100 0 m 1x84
 100 100 l 1
 200 100 l 1x84
 200 200 l 1
 300 200 l 1x42
 300 300 l 1x22
 200 300 l 1x12
 200 400 l 1x14
 100 400 l 1
 100 500 l 1
 200 500 l 1x0c
 200 400 l 1x14
 300 400 l 1x12
 300 300 l 1x22
 400 300 l 1x21
 400 400 l 1
 500 400 l 1x1080
 500 500 l 1
 600 500 l 1
 600 400 l 1x0840
 500 400 l 1
 500 300 l 1x1080
 400 300 l 1x21
 400 200 l 1x41
 300 200 l 1
 300 100 l 1x42
 200 100 l 1
 200 0 l 1
 100 0 l 1x84
400 200 m 1x41
 500 200 l 1x4080
 500 100 l 1x8080
 400 100 l 1x4080
 400 200 l 1x41
500 100 m 1x8080
 600 100 l 1
 600 0 l 1
 500 0 l 1x8040
 500 100 l 1x8080
EndSplineSet
Validated: 5
EndChar
StartChar: y
Encoding: 121 121 82
Width: 600
VWidth: 1600
Flags: W
HStem: -200 100<100 300> -100 21G<300 400> 480 20G<100 200 400 500>
VStem: 100 100<300 500> 200 100<100 300> 300 100<-100 100> 400 100<100 500>
AnchorPoint: "bottom" 250 -300 basechar 0
AnchorPoint: "bottom-adjoined" 250 -200 basechar 0
AnchorPoint: "ogonek" 150 -200 basechar 0
AnchorPoint: "top-even" 250 600 basechar 0
AnchorPoint: "top" 250 600 basechar 0
LayerCount: 3
Fore
SplineSet
200 300 m 1x30
 100 300 l 1
 100 500 l 1
 200 500 l 1
 200 300 l 1x30
200 300 m 1
 300 300 l 1
 300 100 l 1
 200 100 l 1x28
 200 300 l 1
400 100 m 1x24
 400 500 l 1
 500 500 l 1
 500 100 l 1x22
 400 100 l 1x24
400 100 m 1xa4
 400 -100 l 1x64
 300 -100 l 1xa4
 300 100 l 1xa8
 400 100 l 1xa4
300 -100 m 1xb4
 300 -200 l 1
 100 -200 l 1
 100 -100 l 1
 300 -100 l 1xb4
EndSplineSet
Validated: 5
EndChar
StartChar: z
Encoding: 122 122 83
Width: 600
VWidth: 1600
Flags: W
HStem: 0 100<200 500> 200 100<200 300> 400 100<100 300 400 500>
VStem: 100 100<100 200> 200 100<200 300> 300 100<300 400>
CounterMasks: 1 e0
AnchorPoint: "bottom" 250 -100 basechar 0
AnchorPoint: "bottom-adjoined" 250 0 basechar 0
AnchorPoint: "ogonek" 250 0 basechar 0
AnchorPoint: "top-even" 250 600 basechar 0
AnchorPoint: "top" 350 600 basechar 0
LayerCount: 3
Fore
SplineSet
200 100 m 1xf0
 500 100 l 1
 500 0 l 1
 100 0 l 1
 100 200 l 1
 200 200 l 1xf0
 200 300 l 1
 300 300 l 1xe8
 300 400 l 1
 100 400 l 1
 100 500 l 1
 500 500 l 1
 500 400 l 1
 400 400 l 1
 400 300 l 1xf4
 300 300 l 1
 300 200 l 1xe8
 200 200 l 1
 200 100 l 1xf0
EndSplineSet
Validated: 5
EndChar
StartChar: braceleft
Encoding: 123 123 87
Width: 600
Flags: W
HStem: -100 100<400 500> 300 100<100 300> 600 100<400 500>
VStem: 300 200<-100 0 600 700> 300 100<0 300 400 600>
LayerCount: 3
Fore
SplineSet
300 700 m 1xf0
 500 700 l 1
 500 600 l 1xf0
 400 600 l 1
 400 400 l 1
 300 400 l 1xe8
 300 700 l 1xf0
100 300 m 1
 100 400 l 1
 300 400 l 1
 300 300 l 1xe8
 100 300 l 1
300 300 m 1
 400 300 l 1
 400 3.27515792264e-015 l 1xe8
 500 0 l 1
 500 -100 l 1
 300 -100 l 1xf0
 300 300 l 1
EndSplineSet
Validated: 5
EndChar
StartChar: bar
Encoding: 124 124 89
Width: 500
Flags: W
HStem: -200 21G<200 300>
VStem: 200 100<-200 800>
LayerCount: 3
Fore
SplineSet
200 -200 m 1
 200 800 l 1
 300 800 l 1
 300 -200 l 1
 200 -200 l 1
EndSplineSet
Validated: 1
EndChar
StartChar: braceright
Encoding: 125 125 88
Width: 600
Flags: W
LayerCount: 3
Fore
SplineSet
300 700 m 1
 100 700 l 1
 100 600 l 1
 200 600 l 1
 200 400 l 1
 300 400 l 1
 300 700 l 1
500 300 m 1
 500 400 l 1
 300 400 l 1
 300 300 l 1
 500 300 l 1
300 300 m 1
 200 300 l 1
 200 0 l 1
 100 0 l 1
 100 -100 l 1
 300 -100 l 1
 300 300 l 1
EndSplineSet
Validated: 5
EndChar
StartChar: asciitilde
Encoding: 126 126 90
Width: 800
Flags: W
HStem: 300 100<100 200 400 600> 400 100<200 400 600 700>
VStem: 100 100<300 400> 600 100<400 500>
LayerCount: 3
Fore
SplineSet
100 300 m 1xb0
 100 400 l 1
 200 400 l 1
 200 300 l 1
 100 300 l 1xb0
200 400 m 1
 200 500 l 1
 400 500 l 1x70
 400 400 l 1
 200 400 l 1
400 400 m 1xb0
 600 400 l 1
 600 300 l 1
 400 300 l 1
 400 400 l 1xb0
600 400 m 1
 600 500 l 1
 700 500 l 1
 700 400 l 1x70
 600 400 l 1
EndSplineSet
Validated: 5
EndChar
StartChar: exclamdown
Encoding: 161 161 96
Width: 500
Flags: W
VStem: 200 100
LayerCount: 3
Fore
SplineSet
200 500 m 1
 200 400 l 1
 300 400 l 1
 300 500 l 1
 200 500 l 1
200 300 m 1
 200 -200 l 1
 300 -200 l 1
 300 300 l 1
 200 300 l 1
EndSplineSet
Validated: 9
EndChar
StartChar: cent
Encoding: 162 162 98
Width: 600
Flags: W
HStem: 100 100<200 300 400 500> 480 20G<100 200> 500 100<200 300 400 500> 680 20G<300 400>
VStem: 100 100<200 500> 200 300<100 200 500 600> 300 100<0 100 200 500 600 700>
LayerCount: 3
Fore
SplineSet
100 200 m 1xd8
 100 500 l 1
 200 500 l 1
 200 200 l 1
 100 200 l 1xd8
200 500 m 1
 200 600 l 1xb4
 300 600 l 1
 300 700 l 1
 400 700 l 1
 400 600 l 1xb2
 500 600 l 1
 500 500 l 1xb4
 400 500 l 1
 400 200 l 1xb2
 500 200 l 1
 500 100 l 1xb4
 400 100 l 1
 400 0 l 1
 300 0 l 1
 300 100 l 1xb2
 200 100 l 1xb4
 200 200 l 1
 300 200 l 1
 300 500 l 1xba
 200 500 l 1
EndSplineSet
Validated: 5
EndChar
StartChar: sterling
Encoding: 163 163 99
Width: 700
Flags: W
HStem: 0 100<100 200 300 600> 300 100<100 200 300 500> 680 20G<200 300> 700 100<300 500>
VStem: 200 100<100 300 400 700>
LayerCount: 3
Fore
SplineSet
100 300 m 1xe8
 100 400 l 1
 200 400 l 1
 200 700 l 1
 300 700 l 1
 300 400 l 1
 500 400 l 1
 500 300 l 1
 300 300 l 1
 300 100 l 1
 600 100 l 1
 600 0 l 1
 100 0 l 1
 100 100 l 1
 200 100 l 1
 200 300 l 1
 100 300 l 1xe8
300 700 m 1
 300 800 l 1
 500 800 l 1
 500 700 l 1xd8
 300 700 l 1
EndSplineSet
Validated: 5
EndChar
StartChar: currency
Encoding: 164 164 100
Width: 800
Flags: W
HStem: 0 100<100 200 600 700> 100 100<300 500> 400 100<300 500> 500 100<100 200 600 700>
VStem: 100 100<0 100 500 600> 200 100<200 400> 500 100<200 400> 600 100<0 100 500 600>
LayerCount: 3
Fore
SplineSet
300 200 m 1x66
 500 200 l 1
 500 400 l 1
 300 400 l 1
 300 200 l 1x66
100 0 m 1x99
 100 100 l 1
 200 100 l 1
 200 500 l 1
 600 500 l 1
 600 100 l 1
 200 100 l 1
 200 0 l 1
 100 0 l 1x99
100 500 m 1
 100 600 l 1
 200 600 l 1
 200 500 l 1
 100 500 l 1
600 100 m 1
 700 100 l 1
 700 0 l 1
 600 0 l 1
 600 100 l 1
600 500 m 1
 600 600 l 1
 700 600 l 1
 700 500 l 1
 600 500 l 1
EndSplineSet
Validated: 5
EndChar
StartChar: yen
Encoding: 165 165 101
Width: 900
VWidth: 1600
Flags: W
HStem: 100 100<200 400 500 700> 300 200<300 400 500 600> 300 100<200 300 600 700> 500 200<200 300 600 700> 700 100<100 200 700 800>
VStem: 100 100<700 800> 200 100<500 700> 400 100<0 100 200 300> 600 100<500 700> 700 100<700 800>
LayerCount: 3
Fore
SplineSet
200 300 m 1xa340
 200 400 l 1
 300 400 l 1xa340
 300 500 l 1
 400 500 l 1xc340
 400 400 l 1
 500 400 l 1xa340
 500 500 l 1
 600 500 l 1xc380
 600 400 l 1xa380
 700 400 l 1
 700 300 l 1xa140
 500 300 l 1
 500 200 l 1
 700 200 l 1
 700 100 l 1
 500 100 l 1
 500 0 l 1
 400 0 l 1
 400 100 l 1
 200 100 l 1
 200 200 l 1
 400 200 l 1
 400 300 l 1xc340
 200 300 l 1xa340
600 500 m 1xc180
 600 700 l 1
 700 700 l 1
 700 500 l 1x9180
 600 500 l 1xc180
700 700 m 1
 700 800 l 1
 800 800 l 1
 800 700 l 1x8940
 700 700 l 1
300 500 m 1xc3
 200 500 l 1x93
 200 700 l 1x95
 300 700 l 1x93
 300 500 l 1xc3
200 700 m 1x95
 100 700 l 1
 100 800 l 1
 200 800 l 1x8d
 200 700 l 1x95
EndSplineSet
Validated: 5
EndChar
StartChar: brokenbar
Encoding: 166 166 103
Width: 500
Flags: W
HStem: -200 21G<200 300>
VStem: 200 100<-200 200 400 800>
LayerCount: 3
Fore
SplineSet
200 400 m 1
 200 800 l 1
 300 800 l 1
 300 400 l 1
 200 400 l 1
200 -200 m 1
 200 200 l 1
 300 200 l 1
 300 -200 l 1
 200 -200 l 1
EndSplineSet
Validated: 1
EndChar
StartChar: section
Encoding: 167 167 102
Width: 700
Flags: W
HStem: -200 100<200 500> -100 21G<500 600> 100 100<300 400> 200 100<200 300> 300 100<400 500> 400 100<300 400> 680 20G<100 200> 700 100<200 500>
VStem: 100 100<300 500 600 700> 200 100<200 300> 300 100<100 200 400 500> 400 100<300 400> 500 100<-100 0 100 300>
LayerCount: 3
Fore
SplineSet
100 300 m 1x08a0
 100 700 l 1
 200 700 l 1
 200 600 l 1
 300 600 l 1
 300 500 l 1
 200 500 l 1
 200 300 l 1x16a0
 100 300 l 1x08a0
600 300 m 1x0808
 600 -100 l 1x4808
 500 -100 l 1
 500 0 l 1x8008
 400 0 l 1x8010
 400 100 l 1
 500 100 l 1xa028
 500 300 l 1
 400 300 l 1xa810
 400 400 l 1xa820
 300 400 l 1
 300 500 l 1
 400 500 l 1x0420
 400 400 l 1x0820
 500 400 l 1
 500 300 l 1x0810
 600 300 l 1x0808
200 700 m 1x0288
 200 800 l 1
 500 800 l 1
 500 700 l 1x0148
 200 700 l 1x0288
500 -100 m 1x8048
 500 -200 l 1
 200 -200 l 1
 200 -100 l 1
 500 -100 l 1x8048
400 100 m 1x2020
 300 100 l 1x2020
 300 200 l 1x2040
 400 200 l 1
 400 100 l 1x2020
200 300 m 1x1080
 300 300 l 1x1040
 300 200 l 1x2040
 200 200 l 1x1040
 200 300 l 1x1080
EndSplineSet
Validated: 5
EndChar
StartChar: copyright
Encoding: 169 169 105
Width: 900
VWidth: 1600
Flags: W
HStem: -100 100<300 600> 0 100<200 300 600 700> 100 100<400 600> 400 100<400 600> 500 100<200 300 600 700> 600 100<300 600>
VStem: 100 100<100 500> 200 100<0 100 500 600> 300 100<200 400> 400 200<100 200 400 500> 600 100<0 100 500 600> 700 100<100 500>
LayerCount: 3
Fore
SplineSet
300 200 m 1x3080
 300 400 l 1
 400 400 l 1x3080
 400 500 l 1
 600 500 l 1x3040
 600 600 l 1
 700 600 l 1
 700 500 l 1x0820
 800 500 l 1
 800 100 l 1x2810
 700 100 l 1
 700 0 l 1x4020
 600 0 l 1
 600 -100 l 1
 300 -100 l 1x80a0
 300 0 l 1
 600 0 l 1x8120
 600 100 l 1x4040
 700 100 l 1
 700 500 l 1x4820
 600 500 l 1
 600 400 l 1x1040
 400 400 l 1
 400 200 l 1
 300 200 l 1x3080
300 0 m 1x81
 200 0 l 1x41
 200 100 l 1x42
 300 100 l 1x41
 300 0 l 1x81
200 100 m 1x4a
 100 100 l 1x22
 100 500 l 1
 200 500 l 1
 200 100 l 1x4a
200 500 m 1x0a
 200 600 l 1
 300 600 l 1
 300 500 l 1x09
 200 500 l 1x0a
600 600 m 1x08a0
 300 600 l 1x0920
 300 700 l 1
 600 700 l 1x04a0
 600 600 l 1x08a0
600 100 m 1x4040
 400 100 l 1x2040
 400 200 l 1x2080
 600 200 l 1x2040
 600 100 l 1x4040
EndSplineSet
Validated: 5
EndChar
StartChar: ordfeminine
Encoding: 170 170 125
Width: 500
Flags: W
HStem: 300 100<200 300> 400 100<100 200> 500 100<200 300> 680 20G<300 400> 700 100<200 300>
VStem: 100 100<400 500> 200 100<300 400 700 800> 300 100<300 500 600 700>
LayerCount: 3
Fore
SplineSet
200 700 m 1x0a
 200 800 l 1
 300 800 l 1x0a
 300 700 l 1x12
 200 700 l 1x0a
100 400 m 1x45
 100 500 l 1
 200 500 l 1x45
 200 600 l 1x22
 300 600 l 1x21
 300 700 l 1x32
 400 700 l 1
 400 300 l 1xb1
 300 300 l 1xb2
 300 500 l 1xb1
 200 500 l 1x45
 200 400 l 1x85
 100 400 l 1x45
300 400 m 1x82
 300 300 l 1
 200 300 l 1x82
 200 400 l 1x84
 300 400 l 1x82
EndSplineSet
Validated: 5
EndChar
StartChar: guillemotleft
Encoding: 171 171 107
Width: 700
Flags: W
HStem: 0 100<300 400 500 600> 100 100<200 300 400 500> 200 100<100 200 300 400> 300 100<200 300 400 500> 400 100<300 400 500 600>
VStem: 100 100<200 300> 200 100<100 200 300 400> 300 100<0 100 200 300 400 500> 400 100<100 200 300 400> 500 100<0 100 400 500>
LayerCount: 3
Fore
SplineSet
100 200 m 1x24
 100 300 l 1
 200 300 l 1x24
 200 400 l 1
 300 400 l 1x12
 300 500 l 1
 400 500 l 1x09
 400 400 l 1x11
 300 400 l 1x12
 300 300 l 1x22
 200 300 l 1x24
 200 200 l 1x44
 300 200 l 1x42
 300 100 l 1x82
 400 100 l 1
 400 0 l 1
 300 0 l 1x81
 300 100 l 1x82
 200 100 l 1x42
 200 200 l 1x44
 100 200 l 1x24
400 100 m 1x81
 400 200 l 1x41
 500 200 l 1x4080
 500 100 l 1x8080
 600 100 l 1
 600 0 l 1
 500 0 l 1x8040
 500 100 l 1x8080
 400 100 l 1x81
500 400 m 1x1080
 500 500 l 1
 600 500 l 1
 600 400 l 1x0840
 500 400 l 1x1080
500 400 m 1x1080
 500 300 l 1x1080
 400 300 l 1x21
 400 400 l 1x11
 500 400 l 1x1080
400 200 m 1x41
 300 200 l 1x42
 300 300 l 1x22
 400 300 l 1x21
 400 200 l 1x41
EndSplineSet
Validated: 5
EndChar
StartChar: logicalnot
Encoding: 172 172 111
Width: 600
Flags: W
HStem: 300 100<100 400>
VStem: 400 100<100 300>
LayerCount: 3
Fore
SplineSet
100 300 m 1
 100 400 l 1
 500 400 l 1
 500 100 l 1
 400 100 l 1
 400 300 l 1
 100 300 l 1
EndSplineSet
Validated: 1
EndChar
StartChar: macron
Encoding: 175 175 109
Width: 600
VWidth: 1600
Flags: W
HStem: 600 100
LayerCount: 3
Fore
SplineSet
500 700 m 1
 100 700 l 1
 100 600 l 1
 500 600 l 1
 500 700 l 1
EndSplineSet
Validated: 9
EndChar
StartChar: degree
Encoding: 176 176 112
Width: 600
VWidth: 1600
Flags: W
HStem: 400 100<200 400> 500 200<100 200 400 500> 700 100<200 400>
VStem: 100 100<500 700> 200 200<400 500 700 800> 400 100<500 700>
LayerCount: 3
Fore
SplineSet
400 500 m 1x88
 400 400 l 1
 200 400 l 1x88
 200 500 l 1x90
 400 500 l 1x88
400 500 m 1
 400 700 l 1x48
 500 700 l 1
 500 500 l 1x44
 400 500 l 1
200 500 m 1x90
 100 500 l 1
 100 700 l 1
 200 700 l 1x50
 200 500 l 1x90
400 700 m 1x48
 200 700 l 1x50
 200 800 l 1
 400 800 l 1x28
 400 700 l 1x48
EndSplineSet
Validated: 5
EndChar
StartChar: plusminus
Encoding: 177 177 113
Width: 700
Flags: W
HStem: 100 100<100 600> 400 100<100 300 400 600>
VStem: 300 100<300 400 500 600>
LayerCount: 3
Fore
SplineSet
100 400 m 1
 100 500 l 1
 300 500 l 1
 300 600 l 1
 400 600 l 1
 400 500 l 1
 600 500 l 1
 600 400 l 1
 400 400 l 1
 400 300 l 1
 300 300 l 1
 300 400 l 1
 100 400 l 1
100 100 m 1
 100 200 l 1
 600 200 l 1
 600 100 l 1
 100 100 l 1
EndSplineSet
Validated: 1
EndChar
StartChar: uni00B2
Encoding: 178 178 114
Width: 500
Flags: W
HStem: 300 100<200 400> 500 100<200 300> 600 100<300 400> 700 100<100 300>
VStem: 100 100<400 500> 200 100<500 600> 300 100<600 700>
LayerCount: 3
Fore
SplineSet
100 700 m 1x9a
 100 800 l 1
 300 800 l 1x9a
 300 700 l 1xaa
 100 700 l 1x9a
100 300 m 1
 100 500 l 1
 200 500 l 1xca
 200 600 l 1
 300 600 l 1xc4
 300 700 l 1
 400 700 l 1
 400 600 l 1xa2
 300 600 l 1
 300 500 l 1xc4
 200 500 l 1xc8
 200 400 l 1
 400 400 l 1
 400 300 l 1
 100 300 l 1
EndSplineSet
Validated: 5
EndChar
StartChar: uni00B3
Encoding: 179 179 115
Width: 500
Flags: W
HStem: 300 100<100 300> 400 100<300 400> 500 100<200 300> 600 100<300 400> 700 100<100 300>
VStem: 100 200<300 400 700 800> 200 100<500 600> 300 100<400 500 600 700>
LayerCount: 3
Fore
SplineSet
100 700 m 1x0c
 100 800 l 1
 300 800 l 1x0c
 300 700 l 1x14
 100 700 l 1x0c
200 500 m 1x22
 200 600 l 1
 300 600 l 1x22
 300 700 l 1x14
 400 700 l 1
 400 600 l 1x11
 300 600 l 1x22
 300 500 l 1x42
 200 500 l 1x22
100 300 m 1x84
 100 400 l 1
 300 400 l 1x84
 300 500 l 1x42
 400 500 l 1
 400 400 l 1x41
 300 400 l 1
 300 300 l 1
 100 300 l 1x84
EndSplineSet
Validated: 5
EndChar
StartChar: acute
Encoding: 180 180 116
Width: 500
VWidth: 1600
Flags: W
LayerCount: 3
Fore
SplineSet
300 700 m 1
 400 700 l 1
 400 800 l 1
 300 800 l 1
 300 700 l 1
300 700 m 1
 200 700 l 1
 200 600 l 1
 300 600 l 1
 300 700 l 1
200 600 m 1
 100 600 l 1
 100 500 l 1
 200 500 l 1
 200 600 l 1
EndSplineSet
Validated: 5
EndChar
StartChar: mu
Encoding: 181 181 117
Width: 600
VWidth: 1600
Flags: W
LayerCount: 3
Fore
SplineSet
100 500 m 1
 100 -200 l 1
 200 -200 l 1
 200 0 l 1
 500 0 l 1
 500 500 l 1
 400 500 l 1
 400 100 l 1
 200 100 l 1
 200 500 l 1
 100 500 l 1
EndSplineSet
Validated: 9
EndChar
StartChar: paragraph
Encoding: 182 182 118
Width: 700
Flags: W
HStem: -100 21G<300 400 500 600> 200 100<200 300> 600 100<200 300>
VStem: 100 100<300 600> 200 200<200 300 600 700> 300 100<-100 200 300 600> 500 100<-100 700>
LayerCount: 3
Fore
SplineSet
100 300 m 1xf2
 100 600 l 1
 200 600 l 1
 200 300 l 1
 100 300 l 1xf2
500 -100 m 1
 500 700 l 1
 600 700 l 1
 600 -100 l 1
 500 -100 l 1
200 600 m 1
 200 700 l 1
 400 700 l 1xea
 400 -100 l 1
 300 -100 l 1
 300 200 l 1xe6
 200 200 l 1xea
 200 300 l 1
 300 300 l 1
 300 600 l 1xf6
 200 600 l 1
EndSplineSet
Validated: 5
EndChar
StartChar: periodcentered
Encoding: 183 183 119
Width: 300
Flags: W
HStem: 200 200<100 200>
VStem: 100 100<200 400>
LayerCount: 3
Fore
SplineSet
100 200 m 1
 100 400 l 1
 200 400 l 1
 200 200 l 1
 100 200 l 1
EndSplineSet
Validated: 1
EndChar
StartChar: cedilla
Encoding: 184 184 120
Width: 500
Flags: W
HStem: -200 100<100 300> -100 100<300 400>
VStem: 300 100<-100 0>
LayerCount: 3
Fore
SplineSet
100 -200 m 1xa0
 100 -100 l 1
 300 -100 l 1
 300 -200 l 1
 100 -200 l 1xa0
300 -100 m 1
 300 0 l 1
 400 0 l 1
 400 -100 l 1x60
 300 -100 l 1
EndSplineSet
Validated: 5
EndChar
StartChar: uni00B9
Encoding: 185 185 121
Width: 500
Flags: W
HStem: 500 100<100 200>
VStem: 100 100<500 600> 300 100<300 600 700 800>
LayerCount: 3
Fore
SplineSet
100 500 m 25
 100 600 l 25
 200 600 l 25
 200 500 l 25
 100 500 l 25
300 800 m 1
 400 800 l 1
 400 300 l 1
 300 300 l 1
 300 600 l 1
 200 600 l 1
 200 700 l 1
 300 700 l 1
 300 800 l 1
EndSplineSet
Validated: 5
EndChar
StartChar: ordmasculine
Encoding: 186 186 126
Width: 500
VWidth: 1600
Flags: W
HStem: 400 100<200 300> 500 200<100 200 300 400> 700 100<200 300>
VStem: 100 100<500 700> 200 100<400 500 700 800> 300 100<500 700>
LayerCount: 3
Fore
SplineSet
300 500 m 1x88
 300 400 l 1
 200 400 l 1x88
 200 500 l 1x90
 300 500 l 1x88
300 500 m 1
 300 700 l 1x48
 400 700 l 1
 400 500 l 1x44
 300 500 l 1
200 500 m 1x90
 100 500 l 1
 100 700 l 1
 200 700 l 1x50
 200 500 l 1x90
300 700 m 1x48
 200 700 l 1x50
 200 800 l 1
 300 800 l 1x28
 300 700 l 1x48
EndSplineSet
Validated: 5
EndChar
StartChar: guillemotright
Encoding: 187 187 108
Width: 700
Flags: W
LayerCount: 3
Fore
SplineSet
200 400 m 1
 200 300 l 1
 300 300 l 1
 300 200 l 1
 200 200 l 1
 200 100 l 1
 100 100 l 1
 100 0 l 1
 200 0 l 1
 200 100 l 1
 300 100 l 1
 300 200 l 1
 400 200 l 1
 400 300 l 1
 300 300 l 1
 300 400 l 1
 200 400 l 1
200 400 m 1
 200 500 l 1
 100 500 l 1
 100 400 l 1
 200 400 l 1
300 100 m 1
 300 0 l 1
 400 0 l 1
 400 100 l 1
 300 100 l 1
400 200 m 1
 400 100 l 1
 500 100 l 1
 500 200 l 1
 400 200 l 1
400 300 m 1
 500 300 l 1
 500 200 l 1
 600 200 l 1
 600 300 l 1
 500 300 l 1
 500 400 l 1
 400 400 l 1
 400 300 l 1
300 400 m 1
 400 400 l 1
 400 500 l 1
 300 500 l 1
 300 400 l 1
EndSplineSet
Validated: 5
EndChar
StartChar: onequarter
Encoding: 188 188 123
Width: 1000
Flags: W
HStem: -100 21G<700 800> 0 100<600 700 800 900> 200 100<600 700> 500 100<100 200> 600 100<200 300>
VStem: 100 100<500 600> 300 100<300 600 700 800> 500 100<100 200> 700 100<-100 0 100 200 300 400>
LayerCount: 3
Fore
SplineSet
100 500 m 25xf780
 100 600 l 25
 200 600 l 25
 200 500 l 25
 100 500 l 25xf780
300 800 m 1
 400 800 l 1
 400 300 l 1
 300 300 l 1
 300 600 l 1xef80
 200 600 l 1xf780
 200 700 l 1
 300 700 l 1xef80
 300 800 l 1
600 200 m 1
 600 300 l 1
 700 300 l 1
 700 400 l 1
 800 400 l 1
 800 100 l 1
 900 100 l 1
 900 0 l 1
 800 0 l 1
 800 -100 l 1
 700 -100 l 1
 700 0 l 1
 500 0 l 1
 500 200 l 1
 600 200 l 1
600 200 m 1
 600 100 l 1
 700 100 l 1
 700 200 l 1
 600 200 l 1
200 0 m 1
 100 0 l 1
 100 -100 l 1
 200 -100 l 1
 200 0 l 1
200 0 m 1
 300 0 l 1
 300 100 l 1
 200 100 l 1
 200 0 l 1
300 100 m 1
 400 100 l 1
 400 200 l 1
 300 200 l 1
 300 100 l 1
700 600 m 1
 600 600 l 1xef80
 600 500 l 1
 700 500 l 1xf780
 700 600 l 1
700 600 m 1
 800 600 l 1
 800 700 l 1
 700 700 l 1
 700 600 l 1
800 700 m 1
 900 700 l 1
 900 800 l 1
 800 800 l 1
 800 700 l 1
EndSplineSet
Validated: 5
EndChar
StartChar: onehalf
Encoding: 189 189 122
Width: 1000
Flags: W
HStem: -100 100<700 900> 100 100<700 800> 200 100<800 900> 300 100<600 800> 500 100<100 200> 600 100<200 300>
VStem: 100 100<500 600> 300 100<300 600 700 800> 600 100<0 100> 700 100<100 200> 800 100<200 300>
LayerCount: 3
Fore
SplineSet
100 500 m 25x8b
 100 600 l 25
 200 600 l 25
 200 500 l 25
 100 500 l 25x8b
300 800 m 1
 400 800 l 1
 400 300 l 1
 300 300 l 1
 300 600 l 1x97
 200 600 l 1x8b
 200 700 l 1
 300 700 l 1x87
 300 800 l 1
600 300 m 1x93a0
 600 400 l 1
 800 400 l 1x93a0
 800 300 l 1xa3a0
 600 300 l 1x93a0
600 -100 m 1
 600 100 l 1
 700 100 l 1xc3a0
 700 200 l 1
 800 200 l 1xc340
 800 300 l 1
 900 300 l 1
 900 200 l 1xa320
 800 200 l 1
 800 100 l 1xc340
 700 100 l 1xc380
 700 0 l 1
 900 0 l 1
 900 -100 l 1
 600 -100 l 1
800 700 m 1x8720
 900 700 l 1
 900 800 l 1
 800 800 l 1
 800 700 l 1x8720
800 700 m 1
 700 700 l 1
 700 600 l 1x8740
 800 600 l 1
 800 700 l 1
700 600 m 1
 600 600 l 1x8780
 600 500 l 1x8b80
 700 500 l 1x8b40
 700 600 l 1
300 100 m 1xc3
 400 100 l 1xc3
 400 200 l 1
 300 200 l 1xa3
 300 100 l 1xc3
300 100 m 1
 200 100 l 1
 200 0 l 1
 300 0 l 1
 300 100 l 1
200 0 m 1
 100 0 l 1
 100 -100 l 1
 200 -100 l 1
 200 0 l 1
EndSplineSet
Validated: 5
EndChar
StartChar: threequarters
Encoding: 190 190 124
Width: 1000
Flags: W
HStem: -100 21G<700 800> 0 100<600 700 800 900> 200 100<600 700> 300 100<100 300> 400 100<300 400> 500 100<200 300> 600 100<300 400> 700 100<100 300>
VStem: 100 200<300 400 700 800> 200 100<500 600> 300 100<400 500 600 700> 500 100<100 200> 700 100<-100 0 100 200 300 400>
LayerCount: 3
Fore
SplineSet
100 700 m 1xc198
 100 800 l 1
 300 800 l 1xc198
 300 700 l 1xc298
 100 700 l 1xc198
200 500 m 1xc458
 200 600 l 1
 300 600 l 1xc458
 300 700 l 1xc298
 400 700 l 1
 400 600 l 1xc238
 300 600 l 1xc458
 300 500 l 1xc858
 200 500 l 1xc458
100 300 m 1xd098
 100 400 l 1
 300 400 l 1xd098
 300 500 l 1xc858
 400 500 l 1
 400 400 l 1xc838
 300 400 l 1
 300 300 l 1
 100 300 l 1xd098
600 200 m 1xe818
 600 300 l 1
 700 300 l 1
 700 400 l 1
 800 400 l 1
 800 100 l 1
 900 100 l 1
 900 0 l 1
 800 0 l 1
 800 -100 l 1
 700 -100 l 1
 700 0 l 1
 500 0 l 1
 500 200 l 1
 600 200 l 1xe818
600 200 m 1
 600 100 l 1
 700 100 l 1
 700 200 l 1
 600 200 l 1
200 0 m 1xc058
 100 0 l 1
 100 -100 l 1xc098
 200 -100 l 1
 200 0 l 1xc058
200 0 m 1xc058
 300 0 l 1
 300 100 l 1xc038
 200 100 l 1
 200 0 l 1xc058
300 100 m 1
 400 100 l 1
 400 200 l 1
 300 200 l 1xe038
 300 100 l 1
700 600 m 1xc218
 600 600 l 1xc218
 600 500 l 1
 700 500 l 1xc418
 700 600 l 1xc218
700 600 m 1
 800 600 l 1xc218
 800 700 l 1
 700 700 l 1xc118
 700 600 l 1
800 700 m 1xc118
 900 700 l 1
 900 800 l 1
 800 800 l 1
 800 700 l 1xc118
EndSplineSet
Validated: 5
EndChar
StartChar: AE
Encoding: 198 198 162
Width: 1000
VWidth: 1600
Flags: W
HStem: 480 20G<300 400>
AnchorPoint: "bottom" 450 -200 basechar 0
AnchorPoint: "top" 450 800 basechar 0
LayerCount: 3
Back
SplineSet
100 100 m 5
 400 100 l 29
 400 -100 l 21
 533.333007812 -100 666.666992188 -100 800 -100 c 5
 800 0 l 5
 500 0 l 5
 500 300 l 5
 800 300 l 5
 800 400 l 5
 500 400 l 5
 500 466.666992188 500 533.333007812 500 600 c 5
 800 600 l 5
 800 700 l 5
 666.666992188 700 433.333007812 700 300 700 c 5
 300 633.333007812 300 566.666992188 300 500 c 5
 200 500 l 5
 200 433.333007812 200 366.666992188 200 300 c 5
 100 300 l 5
 100 233.333007812 100 166.666992188 100 100 c 5
 0 100 l 5
 0 33.3330078125 0 -33.3330078125 0 -100 c 5
 100 -100 l 5
 100 100 l 5
300 500 m 29
 400 500 l 5
 400 200 l 29
 200 200 l 29
 200 300 l 29
 300 300 l 5
 300 500 l 29
EndSplineSet
Fore
SplineSet
100 100 m 1
 500 100 l 25
 500 -100 l 17
 900 -100 l 1
 900 0 l 1
 600 0 l 1
 600 300 l 1
 900 300 l 1
 900 400 l 1
 500 400 l 1
 500 600 l 1
 900 600 l 1
 900 700 l 1
 300 700 l 1
 300 500 l 1
 200 500 l 1
 200 300 l 1
 100 300 l 1
 100 100 l 1
 0 100 l 1
 0 -100 l 1
 100 -100 l 1
 100 100 l 1
300 500 m 1
 400 500 l 1
 400 300 l 1
 500 300 l 1
 500 200 l 1
 200 200 l 1
 200 300 l 25
 300 300 l 1
 300 500 l 1
EndSplineSet
Validated: 5
EndChar
StartChar: multiply
Encoding: 215 215 175
Width: 600
Flags: W
HStem: 100 100<100 200 400 500> 200 200<200 400> 400 100<100 200 400 500>
VStem: 100 100<100 200 400 500> 200 200<200 400> 400 100<100 200 400 500>
LayerCount: 3
Fore
SplineSet
400 100 m 25x84
 400 200 l 25x88
 500 200 l 25
 500 100 l 25
 400 100 l 25x84
400 400 m 25x48
 400 500 l 25
 500 500 l 25
 500 400 l 25x24
 400 400 l 25x48
100 400 m 25x30
 100 500 l 25
 200 500 l 25x30
 200 400 l 25x50
 100 400 l 25x30
200 200 m 25x90
 200 400 l 25x50
 400 400 l 25x48
 400 200 l 25x88
 200 200 l 25x90
100 100 m 25x90
 100 200 l 25
 200 200 l 25
 200 100 l 25
 100 100 l 25x90
EndSplineSet
Validated: 5
EndChar
StartChar: Oslash
Encoding: 216 216 164
Width: 900
VWidth: 1600
Flags: W
HStem: -100 100<100 200 300 600> 0 100<200 300 600 700> 100 100<300 400> 400 100<500 600> 480 20G<100 200 700 800> 500 100<200 300 600 700> 600 100<300 600 700 800>
VStem: 100 100<-100 0 100 500> 200 100<0 100 500 600> 300 100<100 200> 300 300<-100 0 600 700> 400 100<200 400> 500 100<400 500> 600 100<0 100 500 600> 700 100<100 500 600 700>
AnchorPoint: "ogonek" 450 -100 basechar 0
AnchorPoint: "bottom" 450 -200 basechar 0
AnchorPoint: "top" 450 800 basechar 0
LayerCount: 3
Fore
SplineSet
700 600 m 1x0404
 700 700 l 1
 800 700 l 1
 800 600 l 1x0202
 700 600 l 1x0404
200 0 m 1x81
 200 -100 l 1
 100 -100 l 1
 100 0 l 1
 200 0 l 1x81
500 400 m 1x1010
 500 500 l 1
 600 500 l 1
 600 400 l 1x1008
 500 400 l 1x1010
500 400 m 1x3010
 500 200 l 1x3010
 400 200 l 1
 400 100 l 1x3040
 300 100 l 1x4080
 300 200 l 1
 400 200 l 1x2040
 400 400 l 1
 500 400 l 1x3010
EndSplineSet
Refer: 43 79 N 1 0 0 1 0 0 2
Validated: 5
EndChar
StartChar: Thorn
Encoding: 222 222 169
Width: 700
VWidth: 1600
Flags: W
HStem: -100 21G<100 200> 100 100<200 500> 480 20G<500 600> 500 100<200 500>
VStem: 100 100<-100 100 200 500 600 800> 500 100<200 500>
LayerCount: 3
Fore
SplineSet
500 200 m 1xec
 500 500 l 1
 600 500 l 1
 600 200 l 1
 500 200 l 1xec
500 200 m 1
 500 100 l 1
 200 100 l 1
 200 -100 l 1
 100 -100 l 1
 100 800 l 1
 200 800 l 1
 200 600 l 1
 500 600 l 1xdc
 500 500 l 1xec
 200 500 l 1xdc
 200 200 l 1
 500 200 l 1
EndSplineSet
Validated: 5
EndChar
StartChar: germandbls
Encoding: 223 223 170
Width: 600
Flags: W
HStem: -200 21G<100 200> 0 100<300 500> 100 100<500 600> 200 100<400 500> 300 100<300 400> 600 100<200 400>
VStem: 100 100<-200 600> 300 100<300 400> 400 100<200 300 400 600> 500 100<100 200>
LayerCount: 3
Fore
SplineSet
300 300 m 1x8f
 300 400 l 1
 400 400 l 1x8f
 400 300 l 1x97
 300 300 l 1x8f
400 200 m 1x9680
 400 300 l 1x97
 500 300 l 1x9680
 500 200 l 1xa680
 400 200 l 1x9680
100 -200 m 1
 100 600 l 1
 200 600 l 1
 200 -200 l 1
 100 -200 l 1
400 400 m 1x8f
 400 600 l 1
 200 600 l 1
 200 700 l 1
 400 700 l 1
 400 600 l 1
 500 600 l 1
 500 400 l 1x8e80
 400 400 l 1x8f
300 0 m 1xc740
 300 100 l 1
 500 100 l 1
 500 0 l 1
 300 0 l 1xc740
500 100 m 1
 500 200 l 1xa680
 600 200 l 1
 600 100 l 1xa640
 500 100 l 1
EndSplineSet
Validated: 5
EndChar
StartChar: ae
Encoding: 230 230 163
Width: 900
VWidth: 1600
Flags: W
HStem: 0 100<100 300 500 700> 400 100<100 300 500 700>
VStem: 100 200<0 100 400 500> 500 200<0 100 400 500>
AnchorPoint: "bottom" 450 -100 basechar 0
AnchorPoint: "top" 450 600 basechar 0
LayerCount: 3
Back
SplineSet
300 400 m 5x74
 400 400 l 5
 400 300 l 5
 433.333007812 300 466.666992188 300 500 300 c 5
 500 400 l 5
 600 400 l 5
 600 300 l 5
 666.666992188 300 733.333007812 300 800 300 c 5x7340
 800 400 l 5x7080
 900 400 l 5
 900 333.333007812 900 266.666992188 900 200 c 5
 600 200 l 5
 600 100 l 5x7140
 666.666992188 100 733.333007812 100 800 100 c 5
 800 0 l 5
 733.333007812 0 666.666992188 0 600 0 c 5x7080
 600 100 l 5
 500 100 l 5
 500 200 l 5
 400 200 l 5
 400 0 l 5x73
 366.666992188 0 333.333007812 0 300 0 c 5xb4
 300 66.6669921875 300 133.333007812 300 200 c 5
 233.333007812 200 166.666992188 200 100 200 c 5
 100 133.333007812 100 66.6669921875 100 0 c 5xba
 66.6669921875 0 33.3330078125 0 0 0 c 5
 0 66.6669921875 0 133.333007812 0 200 c 5
 100 200 l 5x7a
 100 233.333007812 100 266.666992188 100 300 c 5x74
 166.666992188 300 233.333007812 300 300 300 c 5x72
 300 400 l 5x74
300 400 m 5x34
 233.333007812 400 166.666992188 400 100 400 c 5
 100 500 l 5
 166.666992188 500 233.333007812 500 300 500 c 5
 300 466.666992188 300 433.333007812 300 400 c 5x34
300 0 m 5xb4
 300 -100 l 5
 100 -100 l 5xb4
 100 0 l 5xb8
 300 0 l 5xb4
600 400 m 5x31
 600 500 l 5
 666.666992188 500 733.333007812 500 800 500 c 5
 800 400 l 5x3080
 733.333007812 400 666.666992188 400 600 400 c 5x31
EndSplineSet
Fore
SplineSet
500 0 m 1
 500 100 l 1
 700 100 l 1
 700 0 l 1
 500 0 l 1
400 200 m 1
 800 200 l 1
 800 400 l 1
 700 400 l 1
 700 300 l 1
 400 300 l 1
 400 400 l 1
 300 400 l 1
 300 300 l 1
 100 300 l 1
 100 200 l 1
 0 200 l 1
 0 100 l 1
 100 100 l 1
 100 200 l 1
 300 200 l 1
 300 100 l 1
 400 100 l 1
 400 200 l 1
300 400 m 1
 100 400 l 1
 100 500 l 1
 300 500 l 1
 300 400 l 1
300 100 m 1
 300 0 l 1
 100 0 l 1
 100 100 l 1
 300 100 l 1
500 400 m 1
 500 500 l 1
 700 500 l 1
 700 400 l 1
 500 400 l 1
EndSplineSet
Layer: 2
SplineSet
500 400 m 5x76
 500 300 l 5
 700 300 l 5x7680
 700 400 l 5x71
 800 400 l 5
 800 200 l 5
 500 200 l 5
 500 100 l 5x7280
 700 100 l 5
 700 0 l 5
 500 0 l 5x71
 500 100 l 5
 400 100 l 5x72
 400 200 l 5
 500 200 l 5
 400 200 l 5
 200 200 l 5
 200 0 l 5xba
 100 0 l 5
 100 200 l 5
 200 200 l 29x7a
 200 300 l 5
 400 300 l 5
 400 400 l 5
 500 400 l 5x76
400 400 m 5
 200 400 l 5
 200 500 l 5
 400 500 l 5
 400 400 l 5
300 0 m 5xb4
 300 -100 l 5
 200 -100 l 5xb4
 200 0 l 5xb8
 300 0 l 5xb4
500 400 m 5x32
 500 500 l 5
 700 500 l 5
 700 400 l 5x31
 500 400 l 5x32
EndSplineSet
EndChar
StartChar: eth
Encoding: 240 240 212
Width: 600
VWidth: 1600
Flags: W
HStem: 0 100<200 400> 300 100<200 400> 480 20G<400 500> 500 100<100 200 300 400> 600 100<200 300> 700 100<100 200 300 400>
VStem: 100 100<100 300 500 600 700 800> 200 100<600 700> 300 100<500 600 700 800> 400 100<100 300 400 500>
LayerCount: 3
Fore
SplineSet
300 500 m 17xd080
 300 600 l 9xd1
 400 600 l 25xd080
 400 500 l 25xe080
 300 500 l 17xd080
100 500 m 17xd2
 100 600 l 9
 200 600 l 25
 200 500 l 25
 100 500 l 17xd2
300 700 m 25xc9
 300 800 l 25
 400 800 l 25
 400 700 l 25xc480
 300 700 l 25xc9
100 700 m 25xc6
 100 800 l 25
 200 800 l 25xc6
 200 700 l 25xca
 100 700 l 25xc6
200 600 m 1xd2
 200 700 l 25xca
 300 700 l 25xc9
 300 600 l 1xd1
 200 600 l 1xd2
200 100 m 1
 400 100 l 1
 400 300 l 1xc240
 200 300 l 1
 200 100 l 1
200 100 m 1
 100 100 l 1
 100 300 l 1
 200 300 l 1xe2
 200 400 l 1
 400 400 l 1xe140
 400 500 l 1xe080
 500 500 l 1
 500 100 l 1
 400 100 l 1
 400 0 l 1
 200 0 l 1xe140
 200 100 l 1
EndSplineSet
Validated: 5
EndChar
StartChar: divide
Encoding: 247 247 176
Width: 700
Flags: W
HStem: 100 100<300 400> 300 100<100 600> 500 100<300 400>
VStem: 300 100<100 200 500 600>
CounterMasks: 1 e0
LayerCount: 3
Fore
SplineSet
300 600 m 1
 400 600 l 9
 400 500 l 25
 300 500 l 25
 300 600 l 1
600 400 m 1
 600 300 l 1
 100 300 l 1
 100 400 l 1
 600 400 l 1
400 100 m 1
 300 100 l 9
 300 200 l 25
 400 200 l 25
 400 100 l 1
EndSplineSet
Validated: 1
EndChar
StartChar: oslash
Encoding: 248 248 127
Width: 700
Flags: W
HStem: 0 100<100 200 300 500> 200 100<300 400> 400 100<200 400 500 600>
VStem: 100 100<200 400> 200 100<100 200> 300 100<200 300> 400 100<300 400> 500 100<100 300>
CounterMasks: 1 e0
AnchorPoint: "ogonek" 350 0 basechar 0
AnchorPoint: "bottom" 350 -100 basechar 0
AnchorPoint: "top" 350 600 basechar 0
LayerCount: 3
Fore
SplineSet
200 100 m 1xe8
 200 200 l 1xf0
 300 200 l 1
 300 100 l 1
 200 100 l 1xe8
300 200 m 1xe8
 300 300 l 1
 400 300 l 1
 400 200 l 1xe4
 300 200 l 1xe8
400 300 m 1
 400 400 l 1
 500 400 l 1
 500 300 l 1xe2
 400 300 l 1
500 100 m 1xe1
 500 300 l 17xe2
 600 300 l 9
 600 100 l 1
 500 100 l 1xe1
200 400 m 1xf1
 200 500 l 1xe8
 600 500 l 17
 600 400 l 9
 200 400 l 1xf1
100 0 m 17xf1
 100 100 l 9
 500 100 l 1
 500 0 l 1
 100 0 l 17xf1
100 200 m 9
 100 400 l 1
 200 400 l 1
 200 200 l 17
 100 200 l 9
EndSplineSet
Validated: 5
EndChar
StartChar: aogonek
Encoding: 261 261 234
Width: 600
VWidth: 1600
Flags: W
HStem: -200 100<400 500> 200 100<200 400> 400 100<200 400>
VStem: 100 100<0 200> 300 100<-100 0> 400 100<100 200 300 400>
LayerCount: 3
Fore
SplineSet
300 -200 m 1xf8
 300 100 l 1xf8
 400 100 l 1
 400 200 l 1
 200 200 l 1
 200 0 l 1
 100 0 l 1
 100 200 l 1
 200 200 l 1
 200 300 l 1
 400 300 l 1
 400 400 l 1
 500 400 l 1
 500 0 l 1xf4
 400 0 l 1
 400 -100 l 1xf8
 500 -100 l 1
 500 -200 l 1xf4
 300 -200 l 1xf8
400 400 m 1xf4
 200 400 l 1
 200 500 l 1
 400 500 l 1
 400 400 l 1xf4
EndSplineSet
Validated: 5
EndChar
StartChar: dcroat
Encoding: 273 273 638
Width: 600
VWidth: 1600
Flags: W
HStem: 0 100<200 400> 400 100<200 400> 600 100<200 400 500 600>
VStem: 100 100<100 400> 200 300<0 100 400 500> 400 100<100 400 500 600 700 800>
AnchorPoint: "bottom-adjoined" 350 0 basechar 0
AnchorPoint: "bottom" 350 -100 basechar 0
AnchorPoint: "top" 450 800 basechar 0
LayerCount: 3
Fore
SplineSet
200 600 m 1xe8
 200 700 l 1xe8
 400 700 l 1
 400 800 l 1
 500 800 l 1
 500 700 l 1
 600 700 l 1
 600 600 l 1
 500 600 l 1xe4
 500 0 l 1
 200 0 l 1xe8
 200 100 l 1
 100 100 l 1
 100 400 l 1
 200 400 l 1xf0
 200 500 l 1xe8
 400 500 l 1
 400 600 l 1xe4
 200 600 l 1xe8
200 400 m 1xf4
 200 100 l 1
 400 100 l 1
 400 400 l 1
 200 400 l 1xf4
EndSplineSet
Validated: 5
EndChar
StartChar: Eogonek
Encoding: 280 280 235
Width: 600
VWidth: 1600
Flags: W
HStem: -300 100<400 500> -120 20G<300 400> -100 100<200 500> 300 100<200 500> 600 100<200 500>
VStem: 100 100<0 300 400 600> 100 400<-100 0 300 400 600 700> 300 100<-200 -100>
LayerCount: 3
Fore
SplineSet
300 -300 m 25xd9
 300 -100 l 25
 400 -100 l 25
 400 -200 l 25xd9
 500 -200 l 25
 500 -300 l 25xda
 300 -300 l 25xd9
EndSplineSet
Refer: 33 69 N 1 0 0 1 0 0 2
Validated: 5
EndChar
StartChar: eogonek
Encoding: 281 281 236
Width: 600
VWidth: 1600
Flags: W
HStem: -200 100<400 500> 0 100<200 300 400 500> 200 100<200 400> 400 100<200 400>
VStem: 100 100<100 200 300 400> 300 100<-100 0> 400 100<300 400>
LayerCount: 3
Fore
SplineSet
300 0 m 1xfc
 200 0 l 1
 200 100 l 1
 500 100 l 1
 500 0 l 1xfa
 400 0 l 1
 400 -100 l 1xfc
 500 -100 l 1
 500 -200 l 1xfa
 300 -200 l 1
 300 0 l 1xfc
200 100 m 1
 100 100 l 1
 100 400 l 1
 200 400 l 1
 200 300 l 1
 400 300 l 1
 400 400 l 1
 500 400 l 1
 500 200 l 1
 200 200 l 1
 200 100 l 1
200 400 m 1
 200 500 l 1
 400 500 l 1
 400 400 l 1
 200 400 l 1
EndSplineSet
Validated: 5
EndChar
StartChar: Hbar
Encoding: 294 294 237
Width: 800
VWidth: 1600
Flags: W
HStem: -100 21G<100 200 600 700> 300 100<200 600> 500 100<0 800> 680 20G<100 200 600 700>
VStem: 100 100<-100 300 400 700> 600 100<-100 300 400 700>
LayerCount: 3
Fore
SplineSet
0 500 m 25
 0 600 l 25
 800 600 l 25
 800 500 l 25
 0 500 l 25
EndSplineSet
Refer: 36 72 N 1 0 0 1 0 0 2
Validated: 5
EndChar
StartChar: hbar
Encoding: 295 295 238
Width: 600
VWidth: 1600
Flags: W
HStem: 400 100<200 400> 600 100<0 100 200 400>
VStem: 100 100<0 400 500 600 700 800> 400 100<0 400>
LayerCount: 3
Fore
SplineSet
0 600 m 1
 0 700 l 1
 100 700 l 1
 100 800 l 1
 200 800 l 1
 200 700 l 1
 400 700 l 1
 400 600 l 1
 200 600 l 1
 200 500 l 1
 400 500 l 1
 400 400 l 1
 500 400 l 1
 500 0 l 1
 400 0 l 1
 400 400 l 1
 200 400 l 1
 200 0 l 1
 100 0 l 1
 100 600 l 1
 0 600 l 1
EndSplineSet
Validated: 5
EndChar
StartChar: dotlessi
Encoding: 305 305 195
Width: 400
VWidth: 1600
Flags: W
HStem: 400 100<100 200>
VStem: 200 100<0 400>
AnchorPoint: "top-even" 150 600 basechar 0
AnchorPoint: "ogonek" 150 0 basechar 0
AnchorPoint: "bottom-adjoined" 250 0 basechar 0
AnchorPoint: "bottom" 250 -100 basechar 0
AnchorPoint: "top" 250 600 basechar 0
LayerCount: 3
Fore
SplineSet
100 400 m 1
 100 500 l 1
 300 500 l 1
 300 0 l 1
 200 0 l 1
 200 400 l 1
 100 400 l 1
EndSplineSet
Validated: 1
EndChar
StartChar: kgreenlandic
Encoding: 312 312 242
Width: 600
VWidth: 1600
Flags: W
HStem: 0 100<400 500> 100 100<300 400> 200 100<200 300> 300 100<300 400> 400 100<400 500>
VStem: 100 100<0 200 300 500> 300 100<100 200 300 400> 400 100<0 100 400 500>
LayerCount: 3
Fore
SplineSet
100 0 m 1xa6
 100 500 l 1
 200 500 l 1
 200 300 l 1
 300 300 l 1xae
 300 400 l 1
 400 400 l 1x16
 400 500 l 1
 500 500 l 1
 500 400 l 1x0d
 400 400 l 1
 400 300 l 1x16
 300 300 l 1x26
 300 200 l 1x46
 200 200 l 1
 200 0 l 1
 100 0 l 1xa6
300 200 m 1x46
 400 200 l 1x46
 400 100 l 1x86
 300 100 l 1
 300 200 l 1x46
400 100 m 1x86
 500 100 l 1
 500 0 l 1
 400 0 l 1x85
 400 100 l 1x86
EndSplineSet
Validated: 5
EndChar
StartChar: Lslash
Encoding: 321 321 206
Width: 700
VWidth: 1600
Flags: W
HStem: -100 100<300 600> 100 100<100 200> 300 100<300 400> 400 100<400 500> 680 20G<200 300>
VStem: 100 100<100 200> 200 100<0 700> 300 100<300 400> 400 100<400 500>
LayerCount: 3
Fore
SplineSet
400 400 m 25xe9
 400 500 l 25
 500 500 l 25
 500 400 l 25xd880
 400 400 l 25xe9
300 300 m 25xea
 300 400 l 25xea
 400 400 l 25
 400 300 l 25xe9
 300 300 l 25xea
100 100 m 25xcc
 100 200 l 25
 200 200 l 25
 200 100 l 25
 100 100 l 25xcc
EndSplineSet
Refer: 40 76 N 1 0 0 1 100 0 2
Validated: 5
EndChar
StartChar: lslash
Encoding: 322 322 207
Width: 500
VWidth: 1600
Flags: W
HStem: 0 100<300 400> 200 100<100 200> 400 100<300 400> 680 20G<200 300>
VStem: 100 100<200 300> 200 100<100 700> 300 100<0 100 400 500>
LayerCount: 3
Fore
SplineSet
300 400 m 25xf4
 300 500 l 25xf4
 400 500 l 17
 400 400 l 9xf2
 300 400 l 25xf4
100 200 m 25xf8
 100 300 l 25
 200 300 l 25
 200 200 l 25
 100 200 l 25xf8
EndSplineSet
Refer: 69 108 N 1 0 0 1 100 0 2
Validated: 5
EndChar
StartChar: Eng
Encoding: 330 330 640
Width: 700
VWidth: 1600
Flags: W
HStem: -200 100<300 500>
AnchorPoint: "bottom-adjoined" 350 -200 basechar 0
AnchorPoint: "top" 350 800 basechar 0
AnchorPoint: "bottom" 350 -200 basechar 0
LayerCount: 3
Fore
SplineSet
500 600 m 1
 500 -100 l 1
 600 -100 l 1
 600 600 l 1
 500 600 l 1
500 600 m 1
 500 700 l 1
 100 700 l 1
 100 0 l 1
 200 0 l 1
 200 600 l 1
 500 600 l 1
300 -200 m 25
 300 -100 l 25
 500 -100 l 25
 500 -200 l 25
 300 -200 l 25
EndSplineSet
Validated: 5
EndChar
StartChar: eng
Encoding: 331 331 639
Width: 600
VWidth: 1600
Flags: W
HStem: -200 100<200 400> -100 21G<400 500> 400 100<200 400>
VStem: 100 100<0 400> 400 100<-100 400>
AnchorPoint: "top-even" 250 600 basechar 0
AnchorPoint: "top" 350 600 basechar 0
LayerCount: 3
Fore
SplineSet
200 -200 m 25xb8
 200 -100 l 25
 400 -100 l 1
 400 -200 l 1
 200 -200 l 25xb8
100 0 m 1
 100 500 l 1
 400 500 l 1
 400 400 l 1
 200 400 l 1
 200 0 l 1
 100 0 l 1
400 400 m 1
 500 400 l 1
 500 -100 l 1x78
 400 -100 l 1
 400 400 l 1
EndSplineSet
Validated: 5
EndChar
StartChar: oe
Encoding: 339 339 205
Width: 1000
VWidth: 1600
Flags: W
HStem: 0 100<200 400 600 800> 100 100<400 500> 200 100<600 800> 300 100<400 500> 400 100<200 400 600 800>
VStem: 100 100<100 400> 200 200<0 100 400 500> 400 200<100 200 300 400> 600 200<0 100 400 500> 800 100<300 400>
AnchorPoint: "top-even" 450 600 basechar 0
AnchorPoint: "bottom" 550 -100 basechar 0
AnchorPoint: "top" 550 600 basechar 0
LayerCount: 3
Back
SplineSet
500 200 m 21x23
 500 233.333007812 500 266.666992188 500 300 c 13
 600 300 l 29
 600 200 l 29
 500 200 l 21x23
900 400 m 5x1080
 833.333007812 400 766.666992188 400 700 400 c 5x41
 700 500 l 5
 766.666992188 500 833.333007812 500 900 500 c 5
 900 400 l 5x1080
900 400 m 5x3080
 1000 400 l 5
 1000 333.333007812 1000 266.666992188 1000 200 c 5
 900 200 800 200 700 200 c 5
 700 166.666992188 700 133.333007812 700 100 c 5xb140
 600 100 l 5
 600 200 600 300 600 400 c 5
 700 400 l 5x4140
 700 366.666992188 700 333.333007812 700 300 c 5
 766.666992188 300 833.333007812 300 900 300 c 5x2140
 900 400 l 5x3080
700 100 m 5
 766.666992188 100 833.333007812 100 900 100 c 5
 900 0 l 5
 833.333007812 0 766.666992188 0 700 0 c 5x8080
 700 100 l 5
200 400 m 5x48
 200 500 l 5
 266.666992188 500 333.333007812 500 400 500 c 5x14
 400 400 l 5x44
 333.333007812 400 266.666992188 400 200 400 c 5x48
200 400 m 5x48
 200 100 l 5x88
 100 100 l 5
 100 400 l 5
 200 400 l 5x48
400 400 m 5x44
 500 400 l 5
 500 100 l 5x42
 400 100 l 5x84
 400 400 l 5x44
400 100 m 5x84
 400 0 l 5
 333.333007812 0 266.666992188 0 200 0 c 5x84
 200 100 l 5x88
 266.666992188 100 333.333007812 100 400 100 c 5x84
EndSplineSet
Fore
SplineSet
400 300 m 25x11
 400 400 l 1x12
 500 400 l 25
 500 300 l 1
 400 300 l 25x11
400 100 m 25x82
 400 200 l 1
 500 200 l 25
 500 100 l 1x41
 400 100 l 25x82
800 400 m 1x0880
 600 400 l 1x09
 600 500 l 1
 800 500 l 1
 800 400 l 1x0880
800 400 m 1x2880
 900 400 l 1
 900 200 l 1
 600 200 l 1
 600 100 l 1xa940
 500 100 l 1
 500 400 l 1x5140
 600 400 l 1
 600 300 l 1
 800 300 l 1x2940
 800 400 l 1x2880
600 100 m 1
 800 100 l 1
 800 0 l 1
 600 0 l 1x8080
 600 100 l 1
200 400 m 1x0c
 200 500 l 1
 400 500 l 1x0a
 400 400 l 1x12
 200 400 l 1x0c
200 400 m 1x4c
 200 100 l 1x8c
 100 100 l 1
 100 400 l 1
 200 400 l 1x4c
400 100 m 1x82
 400 0 l 1
 200 0 l 1x82
 200 100 l 1x84
 400 100 l 1x82
EndSplineSet
Validated: 5
EndChar
StartChar: tbar
Encoding: 359 359 240
Width: 500
VWidth: 1600
Flags: W
HStem: 0 100<200 400> 200 100<0 300> 400 100<200 400>
VStem: 100 100<100 400 500 600>
CounterMasks: 1 e0
LayerCount: 3
Fore
SplineSet
0 200 m 25
 0 300 l 25
 300 300 l 25
 300 200 l 25
 0 200 l 25
EndSplineSet
Refer: 77 116 N 1 0 0 1 0 0 2
Validated: 5
EndChar
StartChar: longs
Encoding: 383 383 174
Width: 400
VWidth: 1600
Flags: W
HStem: -200 21G<100 200> 600 100<200 400>
VStem: 100 100<-200 600>
AnchorPoint: "top" 250 800 basechar 0
LayerCount: 3
Fore
SplineSet
200 700 m 1
 400 700 l 1
 400 600 l 1
 200 600 l 1
 200 700 l 1
100 -200 m 1
 100 600 l 1
 200 600 l 1
 200 -200 l 1
 100 -200 l 1
EndSplineSet
Validated: 5
EndChar
StartChar: uni0181
Encoding: 385 385 641
Width: 800
VWidth: 1600
Flags: W
HStem: -100 100<300 600> 300 100<300 500> 600 100<100 200 300 500>
VStem: 0 100<400 600> 100 100<600 700> 200 100<0 300 400 600> 500 100<400 600> 600 100<0 300>
LayerCount: 3
Fore
SplineSet
0 400 m 25xf0
 0 600 l 1
 100 600 l 1
 100 400 l 25
 0 400 l 25xf0
100 600 m 25
 100 700 l 25
 200 700 l 25
 200 600 l 25xe8
 100 600 l 25
EndSplineSet
Refer: 30 66 N 1 0 0 1 100 0 2
Validated: 5
EndChar
StartChar: uni0183
Encoding: 387 387 694
Width: 600
VWidth: 1600
Flags: W
HStem: 0 100<200 400> 400 100<200 400> 600 100<200 400> 680 20G<100 200>
VStem: 100 100<100 400 500 700> 400 100<100 400>
LayerCount: 3
Fore
SplineSet
200 600 m 25xec
 200 700 l 25
 400 700 l 25
 400 600 l 25
 200 600 l 25xec
EndSplineSet
Refer: 59 98 N 1 0 0 1 0 0 2
Validated: 5
EndChar
StartChar: uni0187
Encoding: 391 391 645
Width: 700
VWidth: 1600
Flags: W
HStem: -100 100<300 600> 0 100<200 300> 480 20G<100 200> 500 100<200 300> 600 100<300 600> 800 100<600 700>
VStem: 100 100<100 500> 200 100<0 100 500 600> 300 300<-100 0 600 700> 500 100<600 800> 600 100<800 900>
LayerCount: 3
Fore
SplineSet
500 600 m 25x0c40
 500 800 l 1
 600 800 l 1x0c40
 600 600 l 25x0c80
 500 600 l 25x0c40
600 800 m 25
 600 900 l 25
 700 900 l 25
 700 800 l 25x0420
 600 800 l 25
EndSplineSet
Refer: 31 67 N 1 0 0 1 0 0 2
Validated: 5
EndChar
StartChar: uni0188
Encoding: 392 392 696
Width: 500
VWidth: 1600
Flags: W
HStem: 0 100<200 400> 400 100<200 400> 600 100<400 500>
VStem: 100 100<100 400> 200 200<0 100 400 500> 300 100<400 600> 400 100<600 700>
LayerCount: 3
Fore
SplineSet
300 400 m 25xe4
 300 600 l 1
 400 600 l 1xe4
 400 400 l 25xe8
 300 400 l 25xe4
400 600 m 25
 400 700 l 25
 500 700 l 25
 500 600 l 25xe2
 400 600 l 25
EndSplineSet
Refer: 60 99 N 1 0 0 1 0 0 2
Validated: 5
EndChar
StartChar: uni018C
Encoding: 396 396 697
Width: 600
VWidth: 1600
Flags: W
HStem: 0 100<200 400> 400 100<200 400> 600 100<200 400> 680 20G<400 500>
VStem: 100 100<100 400> 200 300<0 100 400 500> 400 100<100 400 500 700>
LayerCount: 3
Fore
SplineSet
200 600 m 25xe4
 200 700 l 25xe4
 400 700 l 25
 400 600 l 25xe2
 200 600 l 25xe4
EndSplineSet
Refer: 61 100 N 1 0 0 1 0 0 2
Validated: 5
EndChar
StartChar: uni018F
Encoding: 399 399 665
Width: 900
VWidth: 1600
Flags: W
HStem: -100 100<300 600> 0 100<200 300 600 700> 300 100<200 600> 500 100<600 700> 600 100<300 600>
VStem: 100 100<100 300> 200 100<0 100> 300 300<-100 0 600 700> 600 100<0 100 500 600> 700 100<100 500>
AnchorPoint: "top-even" 450 800 basechar 0
AnchorPoint: "bottom" 450 -200 basechar 0
AnchorPoint: "top" 450 800 basechar 0
LayerCount: 3
Fore
SplineSet
300 600 m 1x29
 300 700 l 1
 600 700 l 1x29
 600 600 l 1x31
 700 600 l 1
 700 500 l 1x3080
 800 500 l 1
 800 100 l 1x7040
 700 100 l 1
 700 0 l 1x7080
 600 0 l 1
 600 -100 l 1
 300 -100 l 1xa1
 300 0 l 1xa2
 600 0 l 1xa1
 600 100 l 1
 700 100 l 1
 700 500 l 1
 600 500 l 1x7080
 600 600 l 1x71
 300 600 l 1x29
300 0 m 1xa2
 200 0 l 1x62
 200 100 l 1x64
 300 100 l 1x62
 300 0 l 1xa2
200 100 m 1x6480
 100 100 l 1
 100 400 l 1
 600 400 l 1
 600 300 l 1
 200 300 l 1
 200 100 l 1x6480
EndSplineSet
Validated: 5
EndChar
StartChar: uni0191
Encoding: 401 401 648
Width: 700
VWidth: 1600
Flags: W
HStem: -200 100<0 200> -100 21G<200 300> 300 100<300 600> 600 100<300 600>
VStem: 200 100<-100 300 400 600>
LayerCount: 3
Fore
SplineSet
-0 -200 m 25xb8
 -0 -100 l 25
 200 -100 l 1
 200 -200 l 1
 -0 -200 l 25xb8
EndSplineSet
Refer: 34 70 N 1 0 0 1 100 0 2
Validated: 5
EndChar
StartChar: florin
Encoding: 402 402 214
Width: 500
VWidth: 1600
Flags: W
HStem: -200 100<0 200> -100 21G<200 300> 300 100<100 200 300 400> 600 100<300 500>
VStem: 200 100<-100 300 400 600>
LayerCount: 3
Fore
SplineSet
100 300 m 25x38
 100 400 l 25
 200 400 l 25
 200 300 l 25
 100 300 l 25x38
0 -200 m 17xb8
 0 -100 l 9
 200 -100 l 1
 200 -200 l 1
 0 -200 l 17xb8
200 -100 m 1
 200 300 l 17
 300 300 l 9
 300 -100 l 1x78
 200 -100 l 1
300 700 m 1
 500 700 l 1
 500 600 l 1
 300 600 l 1
 300 700 l 1
200 300 m 1
 200 600 l 1
 300 600 l 1
 300 400 l 1
 400 400 l 1
 400 300 l 1
 300 300 l 1
 200 300 l 1
EndSplineSet
Validated: 5
EndChar
StartChar: uni0193
Encoding: 403 403 649
Width: 800
VWidth: 1600
Flags: W
HStem: -100 100<300 600> 0 100<200 300> 500 100<200 300> 600 100<300 600> 800 100<600 700>
VStem: 100 100<100 500> 200 100<0 100 500 600> 300 300<-100 0 600 700> 500 100<600 800> 600 100<0 300 800 900>
LayerCount: 3
Fore
SplineSet
500 600 m 25x1880
 500 800 l 1
 600 800 l 1x1880
 600 600 l 25x19
 500 600 l 25x1880
600 800 m 25
 600 900 l 25
 700 900 l 25
 700 800 l 25x0840
 600 800 l 25
EndSplineSet
Refer: 35 71 N 1 0 0 1 0 0 2
Validated: 5
EndChar
StartChar: uni0197
Encoding: 407 407 651
Width: 500
VWidth: 1600
Flags: W
HStem: -100 21G<200 300> 300 100<100 400> 680 20G<200 300>
VStem: 100 300<300 400> 200 100<-100 700>
LayerCount: 3
Fore
SplineSet
100 300 m 25xf0
 100 400 l 25
 400 400 l 25
 400 300 l 25
 100 300 l 25xf0
EndSplineSet
Refer: 37 73 N 1 0 0 1 0 0 2
Validated: 5
EndChar
StartChar: uni0198
Encoding: 408 408 652
Width: 900
VWidth: 1600
Flags: W
HStem: -100 100<600 700> 0 100<500 600> 100 100<400 500> 400 100<400 500> 500 100<500 600 800 900> 600 100<600 700 700 800>
VStem: 100 100<-100 700> 300 100<200 400> 400 100<100 200 400 500> 500 100<0 100 500 600> 600 100<-100 0 600 700> 700 100<600 700> 800 100<500 600>
LayerCount: 3
Fore
SplineSet
800 500 m 1x0a08
 800 500 800 600 800 600 c 1x0a10
 800 600 900 600 900 600 c 1
 900 600 900 500 900 500 c 1
 900 500 800 500 800 500 c 1x0a08
700 600 m 1x0620
 700 600 700 700 700 700 c 1x0620
 700 700 800 700 800 700 c 1x0610
 800 700 800 600 800 600 c 1x0a10
 800 600 700 600 700 600 c 1x0620
EndSplineSet
Refer: 39 75 N 1 0 0 1 0 0 2
Validated: 5
EndChar
StartChar: uni0199
Encoding: 409 409 698
Width: 600
VWidth: 1600
Flags: W
HStem: 0 100<400 500> 100 100<300 400> 200 100<200 300> 300 100<300 400> 400 100<400 500> 680 20G<100 200> 700 100<200 400>
VStem: 100 100<0 200 300 700> 300 100<100 200 300 400> 400 100<0 100 400 500>
LayerCount: 3
Fore
SplineSet
200 700 m 25x0540
 200 800 l 25
 400 800 l 25
 400 700 l 25x0340
 200 700 l 25x0540
EndSplineSet
Refer: 68 107 N 1 0 0 1 0 0 2
Validated: 5
EndChar
StartChar: uni019A
Encoding: 410 410 699
Width: 500
VWidth: 1600
Flags: W
HStem: 0 100<300 400> 300 100<100 400> 680 20G<200 300>
VStem: 100 300<300 400> 200 100<100 700> 300 100<0 100>
LayerCount: 3
Fore
SplineSet
100 300 m 25xf0
 100 400 l 25
 400 400 l 25
 400 300 l 25
 100 300 l 25xf0
EndSplineSet
Refer: 69 108 N 1 0 0 1 100 0 2
Validated: 5
EndChar
StartChar: uni019B
Encoding: 411 411 784
Width: 600
VWidth: 1600
Flags: W
LayerCount: 3
Fore
SplineSet
400 400 m 1
 400 600 l 1
 500 600 l 1
 500 700 l 25
 300 700 l 25
 300 600 l 1
 200 600 l 1
 200 500 l 1
 300 500 l 1
 300 400 l 1
 400 400 l 1
400 400 m 1
 400 100 l 1
 500 100 l 1
 500 400 l 1
 400 400 l 1
300 400 m 1
 200 400 l 1
 200 200 l 1
 300 200 l 1
 300 400 l 1
200 200 m 25
 100 200 l 25
 100 0 l 25
 200 0 l 25
 200 200 l 25
500 100 m 25
 500 0 l 1
 600 0 l 1
 600 100 l 25
 500 100 l 25
300 700 m 1
 300 800 l 1
 200 800 l 1
 200 700 l 1
 300 700 l 1
EndSplineSet
Validated: 5
EndChar
StartChar: uni019C
Encoding: 412 412 666
Width: 900
VWidth: 1600
Flags: W
LayerCount: 3
Fore
SplineSet
400 0 m 1
 200 0 l 1
 200 -100 l 1
 800 -100 l 1
 800 700 l 1
 700 700 l 1
 700 0 l 1
 500 0 l 1
 500 700 l 1
 400 700 l 1
 400 0 l 1
200 0 m 1
 200 700 l 1
 100 700 l 1
 100 0 l 1
 200 0 l 1
EndSplineSet
Validated: 5
EndChar
StartChar: uni019D
Encoding: 413 413 668
Width: 800
VWidth: 1600
Flags: W
HStem: -200 100<0 200>
AnchorPoint: "bottom-adjoined" 450 -200 basechar 0
AnchorPoint: "top" 450 800 basechar 0
AnchorPoint: "bottom" 450 -200 basechar 0
LayerCount: 3
Fore
SplineSet
600 600 m 1
 600 0 l 1
 700 0 l 1
 700 600 l 1
 600 600 l 1
600 600 m 1
 600 700 l 1
 200 700 l 1
 200 -100 l 1
 300 -100 l 1
 300 600 l 1
 600 600 l 1
-0 -200 m 25
 -0 -100 l 25
 200 -100 l 25
 200 -200 l 25
 -0 -200 l 25
EndSplineSet
Validated: 5
EndChar
StartChar: ohorn
Encoding: 417 417 259
Width: 700
VWidth: 1600
Flags: W
HStem: 0 100<200 400> 100 300<100 200 400 500> 400 100<200 400>
VStem: 100 100<100 400> 200 200<0 100 400 500> 400 100<100 400> 500 100<400 600>
AnchorPoint: "ogonek" 250 0 basechar 0
AnchorPoint: "bottom-adjoined" 350 0 basechar 0
AnchorPoint: "bottom" 350 -100 basechar 0
AnchorPoint: "top-even" 250 600 basechar 0
AnchorPoint: "top" 350 600 basechar 0
LayerCount: 3
Fore
SplineSet
500 400 m 25x44
 500 600 l 25
 600 600 l 25
 600 400 l 25x22
 500 400 l 25x44
200 400 m 1x50
 200 500 l 1
 400 500 l 1x28
 400 400 l 1x48
 200 400 l 1x50
200 400 m 1x50
 200 100 l 1x90
 100 100 l 1
 100 400 l 1
 200 400 l 1x50
400 400 m 1x48
 500 400 l 1
 500 100 l 1x44
 400 100 l 1x88
 400 400 l 1x48
400 100 m 1x88
 400 0 l 1
 200 0 l 1x88
 200 100 l 1x90
 400 100 l 1x88
EndSplineSet
Validated: 5
EndChar
StartChar: uni01A2
Encoding: 418 418 669
Width: 1000
VWidth: 1600
Flags: W
HStem: -200 21G<800 900> -100 100<300 500> 0 100<200 300> 500 100<200 300> 600 100<300 500 600 800>
VStem: 100 100<100 500> 200 100<0 100 500 600> 500 100<0 600> 800 100<-200 600>
LayerCount: 3
Fore
SplineSet
300 0 m 1xc380
 500 0 l 1
 500 600 l 1xcb80
 300 600 l 1
 300 500 l 1x9380
 200 500 l 1
 200 100 l 1xb580
 300 100 l 1xb380
 300 0 l 1xc380
300 0 m 1
 200 0 l 1xa380
 200 100 l 1
 100 100 l 1
 100 500 l 1
 200 500 l 1xb580
 200 600 l 1
 300 600 l 1xb380
 300 700 l 1
 900 700 l 1
 900 -200 l 1
 800 -200 l 1
 800 600 l 1
 600 600 l 1
 600 -100 l 1
 300 -100 l 1
 300 0 l 1
EndSplineSet
Validated: 5
EndChar
StartChar: uni01A3
Encoding: 419 419 701
Width: 800
VWidth: 1600
Flags: W
HStem: -200 21G<600 700> 0 100<200 400> 400 100<200 400 500 600>
VStem: 100 100<100 400> 400 100<100 400> 600 100<-200 400>
LayerCount: 3
Fore
SplineSet
400 100 m 1
 400 0 l 1
 200 0 l 1
 200 100 l 1
 400 100 l 1
400 100 m 1
 400 400 l 1
 200 400 l 1
 200 100 l 1
 100 100 l 1
 100 400 l 1
 200 400 l 1
 200 500 l 1
 700 500 l 1
 700 -200 l 1
 600 -200 l 1
 600 400 l 1
 500 400 l 1
 500 100 l 1
 400 100 l 1
EndSplineSet
Validated: 5
EndChar
StartChar: uni01A4
Encoding: 420 420 654
Width: 800
VWidth: 1600
Flags: W
HStem: -100 21G<200 300> 200 100<300 600> 600 100<100 200 300 600>
VStem: 0 100<400 600> 100 100<600 700> 200 100<-100 200 300 600> 600 100<300 600>
LayerCount: 3
Fore
SplineSet
0 400 m 25xf2
 0 600 l 1
 100 600 l 1
 100 400 l 25
 0 400 l 25xf2
100 600 m 25
 100 700 l 25
 200 700 l 25
 200 600 l 25xea
 100 600 l 25
EndSplineSet
Refer: 44 80 N 1 0 0 1 100 0 2
Validated: 5
EndChar
StartChar: uni01A5
Encoding: 421 421 702
Width: 600
VWidth: 1600
Flags: W
HStem: 400 100<100 400> 600 100<200 300>
VStem: 100 100<400 600> 200 100<600 700> 400 100<100 400>
LayerCount: 3
Fore
SplineSet
100 400 m 25xe8
 100 600 l 1
 200 600 l 1
 200 400 l 25
 100 400 l 25xe8
200 600 m 25
 200 700 l 25
 300 700 l 25
 300 600 l 25xd8
 200 600 l 25
EndSplineSet
Refer: 73 112 N 1 0 0 1 0 0 2
Validated: 5
EndChar
StartChar: uni01A7
Encoding: 423 423 670
Width: 600
VWidth: 1600
Flags: W
LayerCount: 3
Fore
SplineSet
400 700 m 1
 100 700 l 1
 100 600 l 1
 400 600 l 1
 400 700 l 1
400 600 m 1
 400 400 l 1
 500 400 l 1
 500 600 l 1
 400 600 l 1
400 400 m 1
 300 400 l 1
 300 300 l 1
 400 300 l 1
 400 400 l 1
300 300 m 1
 200 300 l 1
 200 200 l 1
 300 200 l 1
 300 300 l 1
200 200 m 1
 100 200 l 1
 100 0 l 1
 200 0 l 1
 200 200 l 1
200 0 m 1
 200 -100 l 1
 500 -100 l 1
 500 0 l 1
 200 0 l 1
EndSplineSet
Validated: 5
EndChar
StartChar: uni01A8
Encoding: 424 424 703
Width: 500
VWidth: 1600
Flags: W
LayerCount: 3
Fore
SplineSet
300 500 m 1
 100 500 l 1
 100 400 l 1
 300 400 l 1
 300 500 l 1
300 400 m 1
 300 300 l 1
 400 300 l 1
 400 400 l 1
 300 400 l 1
300 300 m 1
 200 300 l 1
 200 200 l 1
 300 200 l 1
 300 300 l 1
200 200 m 1
 100 200 l 1
 100 100 l 1
 200 100 l 1
 200 200 l 1
200 100 m 1
 200 0 l 1
 400 0 l 1
 400 100 l 1
 200 100 l 1
EndSplineSet
Validated: 5
EndChar
StartChar: uni01A9
Encoding: 425 425 704
Width: 700
VWidth: 1600
Flags: W
HStem: -100 100<200 600> 100 100<200 300> 400 100<200 300> 600 100<200 600>
VStem: 100 100<0 100 500 600> 200 100<100 200 400 500> 300 100<200 400>
LayerCount: 3
Fore
SplineSet
400 200 m 1xf2
 300 200 l 1
 300 100 l 1xf4
 200 100 l 1
 200 0 l 1
 600 0 l 1
 600 -100 l 1
 100 -100 l 1
 100 100 l 1
 200 100 l 1xf8
 200 200 l 1
 300 200 l 1xf4
 300 300 l 1xf2
 300 400 l 1
 200 400 l 1xf4
 200 500 l 1
 100 500 l 1
 100 700 l 1
 600 700 l 1
 600 600 l 1
 200 600 l 1
 200 500 l 1xf8
 300 500 l 1
 300 400 l 1xf4
 400 400 l 1
 400 200 l 1xf2
EndSplineSet
Validated: 5
EndChar
StartChar: uni01AC
Encoding: 428 428 655
Width: 700
VWidth: 1600
Flags: W
HStem: -100 21G<300 400> 600 100<100 300 400 700>
VStem: 0 100<400 600> 300 100<-100 600>
LayerCount: 3
Fore
SplineSet
0 400 m 25
 0 600 l 25
 100 600 l 25
 100 400 l 25
 0 400 l 25
300 -100 m 1
 300 600 l 1
 100 600 l 1
 100 700 l 1
 700 700 l 1
 700 600 l 1
 400 600 l 1
 400 -100 l 1
 300 -100 l 1
EndSplineSet
Validated: 5
EndChar
StartChar: uni01AD
Encoding: 429 429 705
Width: 500
VWidth: 1600
Flags: W
HStem: 0 100<200 400> 400 100<200 400> 500 21G<100 200> 680 20G<100 200> 700 100<200 300>
VStem: 100 100<100 400 500 600 500 700> 200 100<700 800>
LayerCount: 3
Fore
SplineSet
100 500 m 25xa4
 100 700 l 1
 200 700 l 1
 200 500 l 25xd4
 100 500 l 25xa4
200 700 m 25
 200 800 l 25
 300 800 l 25
 300 700 l 25x8a
 200 700 l 25
EndSplineSet
Refer: 77 116 N 1 0 0 1 0 0 2
Validated: 5
EndChar
StartChar: uni01AE
Encoding: 430 430 656
Width: 700
VWidth: 1600
Flags: W
HStem: -200 100<400 600> -100 21<300 400> 600 100<0 300 400 700>
VStem: 300 100<-100 600>
LayerCount: 3
Fore
SplineSet
400 -200 m 25xb0
 400 -100 l 25
 600 -100 l 25
 600 -200 l 25
 400 -200 l 25xb0
EndSplineSet
Refer: 48 84 N 1 0 0 1 0 0 2
Validated: 5
EndChar
StartChar: uhorn
Encoding: 432 432 261
Width: 700
VWidth: 1600
Flags: W
HStem: 0 100<200 400> 300 100<500 600> 480 20G<100 200 400 500>
VStem: 100 100<100 500> 400 100<100 300 400 500> 600 100<400 600>
AnchorPoint: "top" 350 600 basechar 0
AnchorPoint: "bottom" 350 -100 basechar 0
AnchorPoint: "bottom-adjoined" 350 0 basechar 0
AnchorPoint: "top-even" 250 600 basechar 0
AnchorPoint: "ogonek" 350 0 basechar 0
LayerCount: 3
Fore
SplineSet
500 0 m 1
 200 0 l 1
 200 100 l 1
 400 100 l 1
 400 500 l 1
 500 500 l 1
 500 400 l 1
 600 400 l 1
 600 600 l 1
 700 600 l 1
 700 400 l 1
 600 400 l 1
 600 300 l 1
 500 300 l 1
 500 0 l 1
200 100 m 1
 100 100 l 1
 100 500 l 1
 200 500 l 1
 200 100 l 1
EndSplineSet
Validated: 5
EndChar
StartChar: uni01B1
Encoding: 433 433 691
Width: 900
VWidth: 1600
Flags: W
HStem: -100 100<300 600> 0 100<200 300 600 700> 100 300<100 200 700 800> 400 100<200 300 600 700> 500 200<300 400 500 600> 600 100<100 300 600 800>
VStem: 100 100<100 400> 200 100<0 100 400 500> 300 100<500 600> 500 100<500 600> 600 100<0 100 400 500> 700 100<100 400>
LayerCount: 3
Fore
SplineSet
100 600 m 1x1680
 100 700 l 1x1680
 400 700 l 1
 400 500 l 1x0a80
 300 500 l 1x11
 300 600 l 1
 100 600 l 1x1680
500 700 m 1x0850
 800 700 l 1
 800 600 l 1
 600 600 l 1
 600 500 l 1x1450
 500 500 l 1
 500 700 l 1x0850
600 0 m 1x8120
 600 -100 l 1
 300 -100 l 1x80a0
 300 0 l 1
 600 0 l 1x8120
600 0 m 1
 600 100 l 1
 700 100 l 1
 700 0 l 1x4020
 600 0 l 1
300 0 m 1x81
 200 0 l 1x41
 200 100 l 1x42
 300 100 l 1x41
 300 0 l 1x81
700 100 m 1x4020
 700 400 l 1x2020
 800 400 l 1
 800 100 l 1x2010
 700 100 l 1x4020
200 100 m 1x42
 100 100 l 1
 100 400 l 1
 200 400 l 1x22
 200 100 l 1x42
700 400 m 1x2020
 600 400 l 1x1020
 600 500 l 1x1040
 700 500 l 1x1020
 700 400 l 1x2020
200 400 m 1x22
 200 500 l 1
 300 500 l 1
 300 400 l 1x11
 200 400 l 1x22
EndSplineSet
Validated: 5
EndChar
StartChar: uni01B4
Encoding: 436 436 706
Width: 600
VWidth: 1600
Flags: W
HStem: -200 100<100 300> -100 21G<300 400> 480 20G<100 200 400 500> 600 100<500 700>
VStem: 100 100<300 500> 200 100<100 300> 300 100<-100 100> 400 100<100 500 400 600>
LayerCount: 3
Fore
SplineSet
400 400 m 25x31
 400 600 l 1
 500 600 l 1
 500 400 l 25
 400 400 l 25x31
500 600 m 1
 500 700 l 1
 700 700 l 25
 700 600 l 25
 500 600 l 1
EndSplineSet
Refer: 82 121 N 1 0 0 1 0 0 2
Validated: 5
EndChar
StartChar: uni01B8
Encoding: 440 440 730
Width: 700
Flags: W
LayerCount: 3
Fore
SplineSet
600 600 m 1
 600 700 l 1
 100 700 l 1
 100 500 l 1
 200 500 l 1
 200 600 l 1
 600 600 l 1
500 200 m 1
 500 300 l 1
 400 300 l 1
 400 400 l 1
 300 400 l 1
 300 500 l 1
 200 500 l 1
 200 400 l 1
 300 400 l 1
 300 300 l 1
 200 300 l 1
 200 200 l 1
 500 200 l 1
600 -200 m 1
 600 -100 l 1
 200 -100 l 1
 200 200 l 1
 100 200 l 1
 100 -100 l 1
 200 -100 l 1
 200 -200 l 1
 600 -200 l 1
EndSplineSet
Validated: 5
EndChar
StartChar: uni01B9
Encoding: 441 441 731
Width: 500
Flags: W
VStem: 100 300
LayerCount: 3
Fore
SplineSet
400 400 m 1
 400 500 l 1
 100 500 l 1
 100 300 l 1
 200 300 l 1
 200 400 l 1
 400 400 l 1
400 100 m 1
 400 200 l 1
 300 200 l 1
 300 300 l 1
 200 300 l 1
 200 100 l 1
 400 100 l 1
400 -200 m 1
 400 -100 l 1
 200 -100 l 1
 200 100 l 1
 100 100 l 1
 100 -100 l 1
 200 -100 l 1
 200 -200 l 1
 400 -200 l 1
EndSplineSet
Validated: 5
EndChar
StartChar: uni01BC
Encoding: 444 444 685
Width: 700
Flags: W
LayerCount: 3
Fore
SplineSet
100 0 m 1
 100 -100 l 1
 500 -100 l 1
 500 0 l 1
 100 0 l 1
500 0 m 1
 600 0 l 1
 600 300 l 1
 500 300 l 1
 500 0 l 1
500 300 m 1
 500 400 l 1
 300 400 l 1
 300 600 l 1
 600 600 l 1
 600 700 l 1
 100 700 l 1
 100 600 l 1
 199.75 600 l 1
 199 300 l 1
 500 300 l 1
EndSplineSet
Validated: 5
EndChar
StartChar: uni01BD
Encoding: 445 445 709
Width: 600
Flags: W
LayerCount: 3
Fore
SplineSet
100 100 m 1
 100 0 l 1
 400 0 l 1
 400 100 l 1
 500 100 l 1
 500 200 l 1
 400 200 l 1
 400 300 l 1
 300 300 l 1
 300 400 l 1
 500 400 l 1
 500 500 l 1
 100 500 l 1
 100 400 l 1
 200 400 l 1
 200 300 l 1
 300 300 l 1
 300 200 l 1
 400 200 l 1
 400 100 l 1
 100 100 l 1
EndSplineSet
Validated: 5
EndChar
StartChar: uni01C0
Encoding: 448 448 659
Width: 400
Flags: W
HStem: -200 21G<100 200>
VStem: 100 100<-200 300> 200 100<300 800>
LayerCount: 3
Fore
SplineSet
100 -200 m 1xc0
 100 300 l 1
 200 300 l 1
 200 -200 l 1
 100 -200 l 1xc0
200 300 m 1
 200 800 l 1
 300 800 l 1
 300 300 l 1xa0
 200 300 l 1
EndSplineSet
Validated: 5
EndChar
StartChar: uni01C1
Encoding: 449 449 660
Width: 600
Flags: W
HStem: -200 21G<100 200 300 400>
VStem: 100 100<-200 300> 200 100<300 800> 300 100<-200 300> 400 100<300 800>
LayerCount: 3
Fore
SplineSet
300 -200 m 1x90
 300 300 l 1xa0
 400 300 l 1
 400 -200 l 1
 300 -200 l 1x90
400 300 m 1x90
 400 800 l 1
 500 800 l 1
 500 300 l 1x88
 400 300 l 1x90
100 -200 m 1xc0
 100 300 l 1
 200 300 l 1
 200 -200 l 1
 100 -200 l 1xc0
200 300 m 1
 200 800 l 1
 300 800 l 1
 300 300 l 1xa0
 200 300 l 1
EndSplineSet
Validated: 5
EndChar
StartChar: uni01C2
Encoding: 450 450 661
Width: 500
Flags: W
HStem: -200 21G<200 300> 100 100<100 200 300 400> 400 100<100 200 300 400>
VStem: 100 300<100 200 400 500> 200 100<-200 100 200 400 500 800>
LayerCount: 3
Fore
SplineSet
100 400 m 1xf0
 100 500 l 1xf0
 200 500 l 1
 200 800 l 1
 300 800 l 1
 300 500 l 1xe8
 400 500 l 1
 400 400 l 1xf0
 300 400 l 1
 300 200 l 1xe8
 400 200 l 1
 400 100 l 1xf0
 300 100 l 1
 300 -200 l 1
 200 -200 l 1
 200 100 l 1xe8
 100 100 l 1
 100 200 l 1xf0
 200 200 l 1
 200 400 l 1xe8
 100 400 l 1xf0
EndSplineSet
Validated: 1
EndChar
StartChar: uni01DD
Encoding: 477 477 710
Width: 600
VWidth: 1600
Flags: W
HStem: 0 100<200 400> 200 100<200 400> 400 100<200 400>
VStem: 100 100<100 200> 200 200<0 100 400 500> 400 100<100 200 300 400>
CounterMasks: 1 e0
LayerCount: 3
Fore
SplineSet
200 100 m 1xf0
 400 100 l 1
 400 0 l 1
 200 0 l 1xe8
 200 100 l 1xf0
200 100 m 1xf4
 100 100 l 1
 100 300 l 1
 400 300 l 1xf4
 400 400 l 1xe8
 500 400 l 1
 500 100 l 1xe4
 400 100 l 1xe8
 400 200 l 1
 200 200 l 1
 200 100 l 1xf4
400 400 m 1xe8
 200 400 l 1
 200 500 l 1
 400 500 l 1
 400 400 l 1xe8
EndSplineSet
Validated: 5
EndChar
StartChar: uni01E4
Encoding: 484 484 690
Width: 800
VWidth: 1600
Flags: W
HStem: -100 100<300 600> 0 100<200 300> 200 100<0 400> 500 100<200 300> 600 100<300 600>
VStem: 100 100<100 500> 200 100<0 100 500 600> 300 300<-100 0 600 700> 600 100<0 300>
LayerCount: 3
Fore
SplineSet
-0 200 m 25x20
 -0 300 l 25
 400 300 l 25
 400 200 l 25
 -0 200 l 25x20
EndSplineSet
Refer: 35 71 N 1 0 0 1 0 0 2
Validated: 5
EndChar
StartChar: uni01E5
Encoding: 485 485 711
Width: 600
VWidth: 1600
Flags: W
HStem: -300 100<200 400>
LayerCount: 3
Fore
SplineSet
500 400 m 1
 500 500 l 1
 200 500 l 1
 200 400 l 1
 500 400 l 1
400 -200 m 1
 400 -300 l 1
 200 -300 l 1
 200 -200 l 1
 400 -200 l 1
400 -200 m 1
 500 -200 l 1
 500 300 l 1
 400 300 l 1
 400 100 l 1
 200 100 l 1
 200 400 l 1
 100 400 l 1
 100 100 l 1
 200 100 l 1
 200 0 l 1
 400 0 l 1
 400 -200 l 1
100 -100 m 25
 600 -100 l 1
 600 0 l 1
 100 0 l 25
 100 -100 l 25
EndSplineSet
Validated: 5
EndChar
StartChar: uni0220
Encoding: 544 544 687
Width: 700
VWidth: 1600
Flags: W
LayerCount: 3
Fore
SplineSet
500 600 m 1
 500 -200 l 1
 600 -200 l 1
 600 600 l 1
 500 600 l 1
500 600 m 1
 500 700 l 1
 100 700 l 1
 100 0 l 1
 200 0 l 1
 200 600 l 1
 500 600 l 1
EndSplineSet
Validated: 5
EndChar
StartChar: uni0222
Encoding: 546 546 688
Width: 900
VWidth: 1600
Flags: W
HStem: -100 100<300 600> 0 100<200 300 600 700> 100 200<100 200 700 800> 300 100<200 300 600 700> 400 100<300 600> 500 200<200 300 600 700>
VStem: 100 100<100 300> 200 100<0 100 300 400 500 700> 300 300<-100 0 400 500> 600 100<0 100 300 400 500 700> 700 100<100 300>
LayerCount: 3
Fore
SplineSet
600 500 m 25x0880
 600 700 l 25
 700 700 l 25
 700 500 l 25x0440
 600 500 l 25x0880
200 500 m 25x05
 200 700 l 25
 300 700 l 25x05
 300 500 l 25x09
 200 500 l 25x05
300 400 m 1x11
 300 500 l 1x09
 600 500 l 1x0880
 600 400 l 1x1080
 300 400 l 1x11
300 400 m 1x11
 300 300 l 1x11
 200 300 l 1x22
 200 400 l 1
 300 400 l 1x11
600 400 m 1x1080
 700 400 l 1x1040
 700 300 l 1x2040
 600 300 l 1x1040
 600 400 l 1x1080
200 300 m 1x22
 200 100 l 1x42
 100 100 l 1
 100 300 l 1
 200 300 l 1x22
700 300 m 1x2040
 800 300 l 1
 800 100 l 1x2020
 700 100 l 1x4040
 700 300 l 1x2040
200 100 m 1x42
 300 100 l 1x41
 300 0 l 1x81
 200 0 l 1x41
 200 100 l 1x42
700 100 m 1x4040
 700 0 l 1x4040
 600 0 l 1x8080
 600 100 l 1
 700 100 l 1x4040
600 0 m 1x8080
 600 -100 l 1
 300 -100 l 1x8080
 300 0 l 1x81
 600 0 l 1x8080
EndSplineSet
Validated: 5
EndChar
StartChar: uni0223
Encoding: 547 547 689
Width: 600
Flags: W
HStem: 0 100<200 400> 100 300<100 200 400 500> 400 100<200 400> 500 200<100 200 400 500>
VStem: 100 100<100 400 500 700> 200 200<0 100 400 500> 400 100<100 400 500 700>
LayerCount: 3
Fore
SplineSet
100 500 m 1x18
 100 700 l 1
 200 700 l 1x18
 200 500 l 1x28
 100 500 l 1x18
500 700 m 1x12
 500 500 l 1x12
 400 500 l 1x24
 400 400 l 1x44
 200 400 l 1x48
 200 100 l 1x88
 100 100 l 1
 100 400 l 1
 200 400 l 1x48
 200 500 l 1x28
 400 500 l 1x24
 400 700 l 1
 500 700 l 1x12
400 400 m 1x44
 500 400 l 1
 500 100 l 1x42
 400 100 l 1x84
 400 400 l 1x44
400 100 m 1x84
 400 0 l 1
 200 0 l 1x84
 200 100 l 1x88
 400 100 l 1x84
EndSplineSet
Validated: 5
EndChar
StartChar: uni0237
Encoding: 567 567 229
Width: 300
VWidth: 1600
Flags: W
HStem: -200 100<0 100> 480 20G<100 200>
VStem: 0 100<-200 -100> 100 100<-100 500>
AnchorPoint: "bottom" 50 -300 basechar 0
AnchorPoint: "bottom-adjoined" 50 -200 basechar 0
AnchorPoint: "ogonek" 50 -100 basechar 0
AnchorPoint: "top" 150 600 basechar 0
LayerCount: 3
Fore
SplineSet
0 -200 m 1xe0
 0 -100 l 1
 100 -100 l 1xe0
 100 500 l 1
 200 500 l 1
 200 -100 l 1xd0
 100 -100 l 1
 100 -200 l 1
 0 -200 l 1xe0
EndSplineSet
Validated: 5
EndChar
StartChar: uni023A
Encoding: 570 570 671
Width: 700
VWidth: 1600
Flags: W
HStem: -200 21G<200 300> -100 200<2.84217e-014 100 600 700> 100 100<200 500> 100 200<100 200 500 600> 300 200<200 300 400 500> 500 21G<500 600> 680 20G<300 400>
VStem: 2.84217e-014 100<-100 100> 100 100<200 300> 200 100<-200 100> 200 100<300 500> 300 100<100 300 500 700> 400 100<300 500> 500 100<200 300 500 800> 600 100<-100 100>
LayerCount: 3
Fore
SplineSet
300 100 m 1xaa40
 300 300 l 1
 400 300 l 1
 400 100 l 1xaa10
 300 100 l 1xaa40
200 -200 m 1xa240
 200 100 l 1x9240
 300 100 l 1
 300 -200 l 1
 200 -200 l 1xa240
500 500 m 1x8a08
 500 800 l 1
 600 800 l 1
 600 500 l 1x8604
 500 500 l 1x8a08
EndSplineSet
Refer: 29 65 N 1 0 0 1 2.84217e-014 0 2
Validated: 5
EndChar
StartChar: uni023B
Encoding: 571 571 672
Width: 700
VWidth: 1600
Flags: W
HStem: -200 21G<200 300> -100 100<300.8 602> 0 100<200.4 300.8> 480 20G<100 200.4 400 500> 500 21G<500 600> 500 100<200.4 300.8> 600 100<300.8 602>
VStem: 100 100.4<100 500> 200 100<-200 100> 200.4 100.4<0 100 500 600> 300 100<100 300> 300.8 301.2<-100 0 600 700> 400 100<300 500> 500 100<500 800>
LayerCount: 3
Fore
SplineSet
400 300 m 1x9020
 400 500 l 1
 500 500 l 1
 500 300 l 1x9008
 400 300 l 1x9020
300 100 m 1xa080
 300 300 l 1
 400 300 l 1
 400 100 l 1xa020
 300 100 l 1xa080
200 -200 m 1xa080
 200 100 l 1
 300 100 l 1
 300 -200 l 1
 200 -200 l 1xa080
500 500 m 1x9008
 500 800 l 1
 600 800 l 1
 600 500 l 1x8804
 500 500 l 1x9008
EndSplineSet
Refer: 31 67 N 1.004 0 0 1 -0.4 0 2
Validated: 5
EndChar
StartChar: uni023D
Encoding: 573 573 675
Width: 600
VWidth: 1600
Flags: W
HStem: -100 100<200 500> 300 100<0 400> 680 20G<100 200>
VStem: 100 100<0 700>
LayerCount: 3
Fore
SplineSet
0 300 m 25
 0 400 l 25
 400 400 l 25
 400 300 l 25
 0 300 l 25
EndSplineSet
Refer: 40 76 N 1 0 0 1 0 0 2
Validated: 5
EndChar
StartChar: uni023F
Encoding: 575 575 762
Width: 500
VWidth: 1600
Flags: W
HStem: -200 100<300 500> -100 100<200 300> 0 100<100 300> 100 100<300 400> 200 100<200 300> 300 100<100 200> 400 100<200 400>
VStem: 100 100<300 400> 200 100<-100 0 200 300> 300 100<100 200>
LayerCount: 3
Fore
SplineSet
300 -200 m 1x8040
 300 -100 l 1x8080
 500 -100 l 1
 500 -200 l 1
 300 -200 l 1x8040
200 -100 m 1x4080
 200 0 l 1
 300 0 l 1x4080
 300 -100 l 1x8080
 200 -100 l 1x4080
EndSplineSet
Refer: 76 115 N 1 0 0 1 0 0 2
Validated: 5
EndChar
StartChar: uni0240
Encoding: 576 576 763
Width: 600
VWidth: 1600
Flags: W
HStem: -200 100<400 600> -100 100<300 400> 0 100<200 300> 200 100<200 300> 400 100<100 300 400 500>
VStem: 100 100<100 200> 200 100<200 300> 300 100<-100 0 300 400>
LayerCount: 3
Fore
SplineSet
400 -200 m 1x99
 400 -100 l 1
 600 -100 l 1
 600 -200 l 1
 400 -200 l 1x99
300 -100 m 1x59
 300 0 l 1
 400 0 l 1x59
 400 -100 l 1x99
 300 -100 l 1x59
200 100 m 1x3c
 300 100 l 1x3d
 300 0 l 1x5d
 100 0 l 1
 100 200 l 1
 200 200 l 1x3d
 200 300 l 1
 300 300 l 1x3a
 300 400 l 1
 100 400 l 1
 100 500 l 1
 500 500 l 1
 500 400 l 1
 400 400 l 1
 400 300 l 1x3d
 300 300 l 1
 300 200 l 1x3a
 200 200 l 1
 200 100 l 1x3c
EndSplineSet
Validated: 5
EndChar
StartChar: uni0242
Encoding: 578 578 708
Width: 600
Flags: W
HStem: 200 100<300 400> 300 100<400 500> 400 100<100 400>
VStem: 200 100<0 200> 300 100<200 300> 400 100<300 400>
LayerCount: 3
Fore
SplineSet
100 400 m 1x24
 100 500 l 1
 400 500 l 1x24
 400 400 l 1x44
 100 400 l 1x24
200 0 m 1x90
 200 200 l 1
 300 200 l 1x90
 300 300 l 1
 400 300 l 1x88
 400 400 l 1
 500 400 l 1
 500 300 l 1x44
 400 300 l 1
 400 200 l 1x88
 300 200 l 1
 300 0 l 1
 200 0 l 1x90
EndSplineSet
Validated: 5
EndChar
StartChar: uni0245
Encoding: 581 581 674
Width: 700
VWidth: 1600
Flags: W
HStem: -100 200<0 100 600 700> 680 20G<300 400>
VStem: -0 100<-100 100> 100 100<100 300> 200 100<300 500> 300 100<500 700> 600 100<-100 100>
LayerCount: 3
Fore
SplineSet
600 100 m 1xc6
 600 300 l 1
 500 300 l 1
 500 500 l 1
 400 500 l 1
 400 300 l 1
 500 300 l 1
 500 100 l 1
 600 100 l 1xc6
100 100 m 1xe2
 100 -100 l 1
 -0 -100 l 1
 -0 100 l 1
 100 100 l 1xe2
 100 300 l 1
 200 300 l 1xd2
 200 500 l 1
 300 500 l 1xca
 300 700 l 1
 400 700 l 1
 400 500 l 1xc6
 300 500 l 1
 300 300 l 1xca
 200 300 l 1
 200 100 l 1xd2
 100 100 l 1xe2
600 100 m 1
 700 100 l 1
 700 -100 l 1
 600 -100 l 1
 600 100 l 1
EndSplineSet
Validated: 5
EndChar
StartChar: uni0247
Encoding: 583 583 712
Width: 600
VWidth: 1600
Flags: W
HStem: -100 21G<200 300> 0 100<200 400> 200 100<200 400> 400 100<200 400>
VStem: 100 100<100 200 300 400> 200 100<-100 200> 200 200<0 100 400 500> 300 100<300 600> 400 100<300 400>
LayerCount: 3
Fore
SplineSet
200 -100 m 1xf4
 200 200 l 1xf8
 300 200 l 1
 300 -100 l 1
 200 -100 l 1xf4
300 300 m 1xf1
 300 600 l 1
 400 600 l 1
 400 300 l 1
 300 300 l 1xf1
EndSplineSet
Refer: 62 101 N 1 0 0 1 0 0 2
Validated: 5
EndChar
StartChar: uni024B
Encoding: 587 587 726
Width: 600
VWidth: 1600
Flags: W
HStem: -200 100<500 700> -100 21G<400 500> 0 100<200 300> 100 100<300 400> 400 100<200 400>
VStem: 100 100<100 400> 200 100<0 100> 400 100<-100 100 200 400>
LayerCount: 3
Fore
SplineSet
500 -200 m 1x89
 500 -100 l 1
 700 -100 l 25
 700 -200 l 25
 500 -200 l 1x89
400 -100 m 1x4b
 400 100 l 1x5b
 300 100 l 1
 300 0 l 1
 200 0 l 1x2b
 200 100 l 1x2d
 100 100 l 1
 100 400 l 1
 200 400 l 1x1d
 200 500 l 1
 500 500 l 1
 500 -100 l 1x9b
 400 -100 l 1x4b
200 100 m 1x2d
 300 100 l 1x2b
 300 200 l 1
 400 200 l 1x1b
 400 400 l 1
 200 400 l 1
 200 100 l 1x2d
EndSplineSet
Validated: 5
EndChar
StartChar: uni024E
Encoding: 590 590 682
Width: 700
VWidth: 1600
Flags: W
HStem: -100 21G<300 400> 300 100<200 300 400 500> 400 100<0 700> 400 200<100 200 500 600> 600 100<0 100 600 700>
VStem: 0 100<600 700> 100 100<400 600> 200 100<300 400> 300 100<-100 300> 400 100<300 400> 500 100<400 600> 600 100<600 700>
LayerCount: 3
Fore
SplineSet
0 400 m 1xa410
 0 500 l 1
 700 500 l 25
 700 400 l 25
 0 400 l 1xa410
EndSplineSet
Refer: 53 89 N 1 0 0 1 0 0 2
Validated: 5
EndChar
StartChar: uni0251
Encoding: 593 593 720
Width: 600
VWidth: 1600
Flags: W
HStem: 0 100<200 400> 400 100<200 400>
VStem: 100 100<100 400> 200 300<0 100 400 500> 400 100<100 400>
AnchorPoint: "bottom" 350 -100 basechar 0
AnchorPoint: "top" 350 600 basechar 0
AnchorPoint: "top-even" 250 600 basechar 0
LayerCount: 3
Fore
SplineSet
200 100 m 1xe8
 400 100 l 1
 400 400 l 1
 200 400 l 1
 200 100 l 1xe8
200 100 m 1
 100 100 l 1
 100 400 l 1
 200 400 l 1xe0
 200 500 l 1
 500 500 l 1
 500 0 l 1
 200 0 l 1xd0
 200 100 l 1
EndSplineSet
Validated: 5
EndChar
StartChar: uni0253
Encoding: 595 595 716
Width: 600
VWidth: 1600
Flags: W
HStem: 0 100<200 400> 400 100<200 400> 680 20G<100 200> 700 100<200 400>
VStem: 100 100<100 400 500 700> 400 100<100 400>
LayerCount: 3
Fore
SplineSet
200 700 m 1xec
 200 800 l 1
 400 800 l 25
 400 700 l 25xdc
 200 700 l 1xec
EndSplineSet
Refer: 59 98 N 1 0 0 1 0 0 2
Validated: 5
EndChar
StartChar: uni0254
Encoding: 596 596 717
Width: 500
VWidth: 1600
Flags: W
HStem: 0 100<100 300> 400 100<100 300>
VStem: 100 200<0 100 400 500> 300 100<100 400>
AnchorPoint: "bottom" 250 -100 basechar 0
AnchorPoint: "top-even" 250 600 basechar 0
AnchorPoint: "top" 250 600 basechar 0
LayerCount: 3
Fore
SplineSet
300 0 m 1xe0
 100 0 l 1
 100 100 l 1
 300 100 l 1
 300 0 l 1xe0
300 100 m 1
 300 400 l 1xe0
 400 400 l 1
 400 100 l 1xd0
 300 100 l 1
300 400 m 1
 100 400 l 1
 100 500 l 1
 300 500 l 1
 300 400 l 1
EndSplineSet
Validated: 5
EndChar
StartChar: uni0256
Encoding: 598 598 809
Width: 600
VWidth: 1600
Flags: W
HStem: -200 100<500 700> -100 100<400 500> 0 100<200 400> 400 100<200 400> 680 20G<400 500>
VStem: 100 100<100 400> 200 300<0 100 400 500> 400 100<-100 0 100 400 500 700>
LayerCount: 3
Fore
SplineSet
500 -200 m 1x99
 500 -100 l 1
 500 -100 700 -100 700 -100 c 25
 700 -100 700 -200 700 -200 c 25
 500 -200 l 1x99
400 -100 m 25x59
 400 -100 400 0 400 0 c 25x59
 400 0 500 0 500 0 c 25x5a
 500 0 500 -100 500 -100 c 25x99
 500 -100 400 -100 400 -100 c 25x59
EndSplineSet
Refer: 61 100 N 1 0 0 1 0 0 2
Validated: 5
EndChar
StartChar: uni0257
Encoding: 599 599 718
Width: 600
VWidth: 1600
Flags: W
HStem: 0 100<200 400> 400 100<200 400> 500 21G<400 500> 680 20G<400 500 400 500> 700 100<500 700>
VStem: 100 100<100 400> 200 300<0 100 400 500> 400 100<100 400 500 700 500 700>
LayerCount: 3
Fore
SplineSet
400 500 m 25xc1
 400 700 l 1
 500 700 l 1xd1
 500 500 l 25xb2
 400 500 l 25xc1
500 700 m 1
 500 800 l 1
 700 800 l 25
 700 700 l 25x89
 500 700 l 1
EndSplineSet
Refer: 61 100 N 1 0 0 1 0 0 2
Validated: 5
EndChar
StartChar: uni025B
Encoding: 603 603 719
Width: 600
VWidth: 1600
Flags: W
HStem: 0 100<200 500> 100 100<100 200> 200 100<200 400> 300 100<100 200> 400 100<200 500>
VStem: 100 100<100 200 300 400> 200 300<0 100 400 500>
AnchorPoint: "bottom" 350 -100 basechar 0
AnchorPoint: "top-even" 250 600 basechar 0
AnchorPoint: "top" 350 600 basechar 0
LayerCount: 3
Fore
SplineSet
200 100 m 1x84
 100 100 l 1
 100 200 l 1
 200 200 l 1x44
 200 100 l 1x84
200 300 m 1x24
 100 300 l 1
 100 400 l 1
 200 400 l 1x14
 200 300 l 1x24
400 200 m 25x24
 200 200 l 1x44
 200 300 l 1
 400 300 l 25
 400 200 l 25x24
500 400 m 1x0a
 200 400 l 1x14
 200 500 l 1
 500 500 l 1
 500 400 l 1x0a
200 100 m 1x84
 500 100 l 1
 500 0 l 1
 200 0 l 1x82
 200 100 l 1x84
EndSplineSet
Validated: 5
EndChar
StartChar: uni0260
Encoding: 608 608 811
Width: 600
VWidth: 1600
Flags: W
HStem: -200 100<200 400> 500 21G<400 500> 680 20G<400 500> 700 100<500 700>
VStem: 400 100<500 700>
LayerCount: 3
Fore
SplineSet
400 500 m 25xe8
 400 500 400 700 400 700 c 1
 400 700 500 700 500 700 c 1
 500 700 500 500 500 500 c 25
 500 500 400 500 400 500 c 25xe8
500 700 m 1
 500 700 500 800 500 800 c 1
 500 800 700 800 700 800 c 25
 700 800 700 700 700 700 c 25xd8
 700 700 500 700 500 700 c 1
EndSplineSet
Refer: 64 103 N 1 0 0 1 0 0 2
Validated: 5
EndChar
StartChar: uni0263
Encoding: 611 611 721
Width: 700
VWidth: 1600
Flags: W
HStem: -200 100<300 400> -100 100<200 300 400 500> 0 100<300 400> 100 200<200 300 400 500> 300 200<100 200 500 600>
VStem: 100 100<300 500> 200 100<-100 0 100 300> 300 100<-200 -100 0 100> 400 100<-100 0 100 300> 500 100<300 500>
LayerCount: 3
Fore
SplineSet
300 -100 m 1x82
 200 -100 l 1
 200 0 l 1
 300 0 l 1x42
 300 -100 l 1x82
300 -100 m 1x82
 400 -100 l 1x81
 400 0 l 1x41
 500 0 l 1
 500 -100 l 1x4080
 400 -100 l 1
 400 -200 l 1
 300 -200 l 1x81
 300 -100 l 1x82
300 0 m 1x42
 300 100 l 1x22
 400 100 l 1x21
 400 0 l 1x41
 300 0 l 1x42
400 100 m 1x21
 400 300 l 1
 500 300 l 1
 500 100 l 1x1080
 400 100 l 1x21
500 300 m 1
 500 500 l 1
 600 500 l 1
 600 300 l 1x0840
 500 300 l 1
300 100 m 1x22
 200 100 l 1x12
 200 300 l 1x14
 300 300 l 1x12
 300 100 l 1x22
200 300 m 1x14
 100 300 l 1
 100 500 l 1
 200 500 l 1x0c
 200 300 l 1x14
EndSplineSet
Validated: 5
EndChar
StartChar: uni0265
Encoding: 613 613 764
Width: 600
VWidth: 1600
Flags: W
HStem: -200 21G<400 500> 0 100<200 300> 100 100<300 400> 480 20G<100 200 400 500>
VStem: 100 100<100 500> 200 100<0 100> 400 100<-200 100 200 500>
LayerCount: 3
Fore
SplineSet
200 0 m 25xd6
 200 100 l 25xda
 300 100 l 25
 300 0 l 25
 200 0 l 25xd6
500 500 m 1
 500 -200 l 1
 400 -200 l 1
 400 100 l 1xb6
 300 100 l 1xd6
 300 200 l 1
 400 200 l 1xb6
 400 500 l 1
 500 500 l 1
200 100 m 1xda
 100 100 l 1xba
 100 500 l 1
 200 500 l 1
 200 100 l 1xda
EndSplineSet
Validated: 5
EndChar
StartChar: uni0266
Encoding: 614 614 765
Width: 600
VWidth: 1600
Flags: W
HStem: 400 100<200 400> 680 20G<100 200> 700 100<200 400>
VStem: 100 100<0 400 500 700> 400 100<0 400>
LayerCount: 3
Fore
SplineSet
200 700 m 25xd8
 200 800 l 25
 400 800 l 25
 400 700 l 25xb8
 200 700 l 25xd8
EndSplineSet
Refer: 65 104 N 1 0 0 1 0 0 2
Validated: 5
EndChar
StartChar: uni0268
Encoding: 616 616 761
Width: 500
VWidth: 1600
Flags: W
HStem: 200 100<100 400> 400 100<100 200> 600 100<200 300>
VStem: 100 300<200 300> 200 100<0 400 600 700>
CounterMasks: 1 e0
LayerCount: 3
Fore
SplineSet
100 200 m 25xf0
 100 300 l 25
 400 300 l 25
 400 200 l 25
 100 200 l 25xf0
EndSplineSet
Refer: 66 105 N 1 0 0 1 0 0 2
Validated: 5
EndChar
StartChar: uni0269
Encoding: 617 617 723
Width: 500
VWidth: 1600
Flags: W
HStem: 0 100<300 500> 400 100<100 200>
VStem: 200 100<100 400>
LayerCount: 3
Fore
SplineSet
300 0 m 1
 300 100 l 1
 500 100 l 25
 500 0 l 25
 300 0 l 1
100 400 m 1
 100 500 l 1
 300 500 l 1
 300 100 l 1
 200 100 l 1
 200 400 l 1
 100 400 l 1
EndSplineSet
Validated: 5
EndChar
StartChar: uni026A
Encoding: 618 618 722
Width: 500
Flags: W
HStem: 0 100<100 200 300 400> 400 100<100 200 300 400>
VStem: 100 300<0 100 400 500>
LayerCount: 3
Fore
SplineSet
100 400 m 1
 100 500 l 1
 400 500 l 1
 400 400 l 1
 300 400 l 1
 300 100 l 1
 400 100 l 1
 400 0 l 1
 100 0 l 1
 100 100 l 1
 200 100 l 1
 200 400 l 1
 100 400 l 1
EndSplineSet
Validated: 1
EndChar
StartChar: uni026B
Encoding: 619 619 760
Width: 500
VWidth: 1600
Flags: W
HStem: 0 100<300 400> 200 100<0 100> 300 100<100 200 300 400> 400 100<400 500> 680 20G<200 300>
VStem: -0 100<200 300> 100 100<300 400> 200 100<100 700> 300 100<0 100 300 400> 400 100<400 500>
LayerCount: 3
Fore
SplineSet
100 300 m 25xcc
 100 400 l 25
 200 400 l 25
 200 300 l 25xaa
 100 300 l 25xcc
400 400 m 25xa880
 400 500 l 25
 500 500 l 25
 500 400 l 25x9840
 400 400 l 25xa880
300 300 m 25xa9
 300 400 l 25xa9
 400 400 l 25
 400 300 l 25xa880
 300 300 l 25xa9
-0 200 m 25xcc
 -0 300 l 25
 100 300 l 25
 100 200 l 25
 -0 200 l 25xcc
EndSplineSet
Refer: 69 108 N 1 0 0 1 100 0 2
Validated: 5
EndChar
StartChar: uni026C
Encoding: 620 620 766
Width: 600
VWidth: 1600
Flags: W
HStem: 0 100<400 500> 200 100<200 300> 300 100<100 200 400 500> 400 100<200 300> 680 20G<300 400>
VStem: 100 100<300 400> 200 100<200 300 400 500> 300 100<100 700> 400 100<0 100 300 400>
LayerCount: 3
Fore
SplineSet
200 200 m 29xca
 200 300 l 29xcc
 300 300 l 29
 300 200 l 29
 200 200 l 29xca
200 400 m 29xac
 200 500 l 29
 300 500 l 29
 300 400 l 29x9a
 200 400 l 29xac
400 300 m 29xa9
 400 400 l 29xa9
 500 400 l 29
 500 300 l 29xa880
 400 300 l 29xa9
100 300 m 29xac
 100 400 l 29
 200 400 l 29xac
 200 300 l 29xcc
 100 300 l 29xac
EndSplineSet
Refer: 69 108 N 1 0 0 1 200 0 2
Validated: 5
EndChar
StartChar: uni026F
Encoding: 623 623 812
Width: 900
VWidth: 1600
Flags: W
HStem: 0 100<200 400 500 700> 480 20G<100 200 400 500 700 800>
VStem: 100 100<100 500> 400 100<100 500> 700 100<100 500>
CounterMasks: 1 38
AnchorPoint: "bottom" 450 -100 basechar 0
AnchorPoint: "top-even" 450 600 basechar 0
AnchorPoint: "top" 450 600 basechar 0
LayerCount: 3
Fore
SplineSet
200 0 m 5
 200 100 l 5
 400 100 l 5
 400 0 l 5
 200 0 l 5
200 100 m 5
 100 100 l 5
 100 500 l 5
 200 500 l 5
 200 100 l 5
800 500 m 5
 800 0 l 5
 500 0 l 5
 500 100 l 5
 700 100 l 5
 700 500 l 5
 800 500 l 5
500 100 m 5
 400 100 l 5
 400 500 l 5
 500 500 l 5
 500 100 l 5
EndSplineSet
Validated: 5
EndChar
StartChar: uni0272
Encoding: 626 626 724
Width: 600
VWidth: 1600
Flags: W
HStem: -200 100<-100 100> -100 21G<100 200> 400 100<200 400>
VStem: 100 100<-100 400> 400 100<0 400>
LayerCount: 3
Fore
SplineSet
-100 -200 m 25xb8
 -100 -100 l 25
 100 -100 l 29
 100 -200 l 29
 -100 -200 l 25xb8
100 -100 m 5
 100 500 l 5
 400 500 l 5
 400 400 l 5
 200 400 l 5
 200 -100 l 5x78
 100 -100 l 5
400 400 m 5
 500 400 l 5
 500 0 l 5
 400 0 l 5
 400 400 l 5
EndSplineSet
Validated: 5
EndChar
StartChar: uni027D
Encoding: 637 637 727
Width: 400
VWidth: 1600
Flags: W
HStem: -200 100<200 300> -100 21G<100 200> 400 100<200 400>
VStem: 100 100<-100 400> 200 100<-200 -100>
LayerCount: 3
Fore
SplineSet
200 -200 m 29xa8
 200 -100 l 29xb0
 300 -100 l 29
 300 -200 l 29
 200 -200 l 29xa8
200 500 m 5x28
 400 500 l 5
 400 400 l 5
 200 400 l 5x30
 200 500 l 5x28
100 -100 m 5x70
 100 400 l 5
 200 400 l 5
 200 -100 l 5xb0
 100 -100 l 5x70
EndSplineSet
Validated: 5
EndChar
StartChar: uni0283
Encoding: 643 643 728
Width: 500
VWidth: 1600
Flags: W
HStem: -200 100<0 200> -100 21G<200 300> 600 100<300 500>
VStem: 200 100<-100 600>
LayerCount: 3
Fore
SplineSet
300 700 m 5xb0
 500 700 l 5
 500 600 l 5
 300 600 l 5
 300 -100 l 5x70
 200 -100 l 5
 200 600 l 5
 300 600 l 5
 300 700 l 5xb0
0 -200 m 5xb0
 0 -100 l 5
 200 -100 l 5
 200 -200 l 5
 0 -200 l 5xb0
EndSplineSet
Validated: 5
EndChar
StartChar: uni0288
Encoding: 648 648 729
Width: 500
VWidth: 1600
Flags: W
HStem: -200 100<200 400> -100 21G<100 200> 400 100<200 400>
VStem: 100 100<-100 400 500 600>
LayerCount: 3
Fore
SplineSet
200 -100 m 5xb0
 100 -100 l 5x70
 100 600 l 1
 200 600 l 1
 200 500 l 5
 400 500 l 5
 400 400 l 5
 200 400 l 5
 200 -100 l 5xb0
200 -100 m 5xb0
 400 -100 l 5
 400 -200 l 5
 200 -200 l 5
 200 -100 l 5xb0
EndSplineSet
Validated: 5
EndChar
StartChar: uni028B
Encoding: 651 651 808
Width: 600
VWidth: 0
Flags: W
HStem: 0 100<200 400> 400 100<300 400>
VStem: 100 100<100 500> 300 100<400 500> 400 100<100 400>
LayerCount: 3
Fore
SplineSet
300 400 m 25xf0
 300 400 300 500 300 500 c 25
 300 500 400 500 400 500 c 25
 400 500 400 400 400 400 c 25
 400 400 300 400 300 400 c 25xf0
400 100 m 25xe8
 400 100 400 400 400 400 c 25xf0
 400 400 500 400 500 400 c 25
 500 400 500 100 500 100 c 25
 500 100 400 100 400 100 c 25xe8
200 0 m 25
 200 0 200 100 200 100 c 25
 200 100 400 100 400 100 c 25
 400 100 400 0 400 0 c 25xe8
 400 0 200 0 200 0 c 25
100 100 m 25
 100 100 100 500 100 500 c 25
 100 500 200 500 200 500 c 25
 200 500 200 100 200 100 c 25
 200 100 100 100 100 100 c 25
EndSplineSet
Validated: 5
EndChar
StartChar: uni028C
Encoding: 652 652 686
Width: 700
VWidth: 1600
Flags: W
LayerCount: 3
Fore
SplineSet
200 200 m 5
 100 200 l 5
 100 0 l 5
 200 0 l 5
 200 200 l 5
200 200 m 5
 300 200 l 5
 300 400 l 5
 200 400 l 5
 200 200 l 5
500 200 m 5
 500 0 l 5
 600 0 l 5
 600 200 l 5
 500 200 l 5
500 200 m 5
 500 400 l 5
 400 400 l 5
 400 200 l 5
 500 200 l 5
400 400 m 5
 400 500 l 5
 300 500 l 5
 300 400 l 5
 400 400 l 5
EndSplineSet
Validated: 5
EndChar
StartChar: uni0292
Encoding: 658 658 262
Width: 500
Flags: W
HStem: -200 100<100 300> 100 100<100 200> 400 100<100 300>
VStem: 100 200<-200 -100 100 200> 200 100<200 300> 300 100<-100 100 300 400>
CounterMasks: 1 e0
AnchorPoint: "bottom" 250 -300 basechar 0
AnchorPoint: "top" 250 600 basechar 0
LayerCount: 3
Fore
SplineSet
100 400 m 5xf0
 100 500 l 5xf0
 400 500 l 5
 400 300 l 5xe4
 300 300 l 5xe8
 300 400 l 5xe4
 100 400 l 5xf0
100 100 m 5
 100 200 l 5xf0
 200 200 l 5
 200 300 l 5
 300 300 l 5xe8
 300 100 l 5
 100 100 l 5
100 -200 m 5
 100 -100 l 5
 300 -100 l 5
 300 100 l 5xf0
 400 100 l 5
 400 -100 l 5xe4
 300 -100 l 5
 300 -200 l 5
 100 -200 l 5
EndSplineSet
Validated: 5
EndChar
StartChar: uni0294
Encoding: 660 660 684
Width: 600
Flags: W
HStem: 300 100<300 400> 600 100<100 400>
VStem: 200 100<0 300> 300 100<300 400> 400 100<400 600>
LayerCount: 3
Fore
SplineSet
100 600 m 1xc8
 100 700 l 1
 400 700 l 1
 400 600 l 1
 100 600 l 1xc8
200 0 m 1xe0
 200 300 l 1
 300 300 l 1xe0
 300 400 l 1
 400 400 l 1xd0
 400 600 l 1
 500 600 l 1
 500 400 l 1xc8
 400 400 l 1
 400 300 l 1xd0
 300 300 l 1
 300 0 l 1
 200 0 l 1xe0
EndSplineSet
Validated: 5
EndChar
StartChar: uni029D
Encoding: 669 669 818
Width: 401
VWidth: 1600
Flags: W
HStem: -200 100<100 200> -100 100<0 100> 0 100<100 200 300 400> 480 20G<200 300> 600 100<200 300>
VStem: 0 100<-100 0> 100 100<-200 -100> 200 100<-100 0 100 500 600 700>
LayerCount: 3
Fore
SplineSet
200 600 m 1x19
 200 700 l 1
 300 700 l 1
 300 600 l 1
 200 600 l 1x19
0 -100 m 1x5c
 0 0 l 1
 100 0 l 1x5c
 100 -100 l 1x9c
 200 -100 l 1
 200 -200 l 1
 100 -200 l 1x9a
 100 -100 l 1x9c
 0 -100 l 1x5c
200 -100 m 1x9a
 200 0 l 1xb9
 100 0 l 1x5d
 100 100 l 1x3a
 200 100 l 1
 200 500 l 1
 300 500 l 1
 300 100 l 1
 400 100 l 1
 400 0 l 1
 300 0 l 1x39
 300 -100 l 1x59
 200 -100 l 1x9a
EndSplineSet
Validated: 5
EndChar
StartChar: uni02B7
Encoding: 695 695 774
Width: 700
Flags: W
HStem: 400 100<200 300 400 500> 500 200<100 200 300 400 500 600>
VStem: 100 100<500 700> 200 100<400 500> 300 100<500 700> 400 100<400 500> 500 100<500 700>
LayerCount: 3
Fore
SplineSet
500 500 m 25x84
 500 700 l 25
 600 700 l 25
 600 500 l 25x42
 500 500 l 25x84
400 400 m 25x84
 400 500 l 25x88
 500 500 l 25
 500 400 l 25
 400 400 l 25x84
300 500 m 25x90
 300 700 l 25
 400 700 l 25x48
 400 500 l 25x88
 300 500 l 25x90
200 400 m 25x90
 200 500 l 25xa0
 300 500 l 25
 300 400 l 25
 200 400 l 25x90
100 500 m 25x60
 100 700 l 25
 200 700 l 25x60
 200 500 l 25xa0
 100 500 l 25x60
EndSplineSet
Validated: 5
EndChar
StartChar: gravecomb
Encoding: 768 768 128
Width: 0
Flags: W
HStem: 600 100<-300 -200> 700 100<-400 -300>
VStem: -400 100<700 800> -300 100<600 700>
AnchorPoint: "stack" -250 600 mark 0
AnchorPoint: "top" -250 600 mark 0
LayerCount: 3
Fore
SplineSet
-300 800 m 25x60
 -300 700 l 25xa0
 -400 700 l 25
 -400 800 l 25
 -300 800 l 25x60
-200 700 m 25x90
 -200 600 l 25
 -300 600 l 25x90
 -300 700 l 25xa0
 -200 700 l 25x90
EndSplineSet
Validated: 5
EndChar
StartChar: uni0302
Encoding: 770 770 130
Width: 0
Flags: W
HStem: 600 100<-400 -300 -200 -100> 700 100<-300 -200>
VStem: -400 100<600 700> -300 100<700 800> -200 100<600 700>
AnchorPoint: "stack" -250 900 basemark 0
AnchorPoint: "stack-even" -250 900 basemark 0
AnchorPoint: "top" -250 600 mark 0
LayerCount: 3
Fore
SplineSet
-200 600 m 25x88
 -200 700 l 25x90
 -100 700 l 25
 -100 600 l 25
 -200 600 l 25x88
-300 700 m 25xa0
 -300 800 l 25
 -200 800 l 25x50
 -200 700 l 25x90
 -300 700 l 25xa0
-400 600 m 25xa0
 -400 700 l 25
 -300 700 l 25
 -300 600 l 25
 -400 600 l 25xa0
EndSplineSet
Validated: 5
EndChar
StartChar: tildecomb
Encoding: 771 771 131
Width: 0
Flags: W
HStem: 600 100<-600 -500 -300 -200> 700 100<-500 -300 -200 -100>
VStem: -600 100<600 700> -300 100<600 700> -200 100<700 800>
AnchorPoint: "stack" -350 900 basemark 0
AnchorPoint: "top" -350 600 mark 0
LayerCount: 3
Fore
SplineSet
-200 700 m 29xb0
 -200 800 l 25
 -100 800 l 25
 -100 700 l 29x68
 -200 700 l 29xb0
-300 600 m 13xb0
 -300 700 l 29
 -200 700 l 29
 -200 600 l 21
 -300 600 l 13xb0
-500 700 m 5
 -500 800 l 1
 -300 800 l 25x70
 -300 700 l 29
 -500 700 l 5
-600 600 m 29xa0
 -600 700 l 29
 -500 700 l 29
 -500 600 l 29
 -600 600 l 29xa0
EndSplineSet
Validated: 5
EndChar
StartChar: uni0306
Encoding: 774 774 134
Width: 0
Flags: W
HStem: 600 100<-500 -200> 700 100<-600 -500 -200 -100>
VStem: -600 100<700 800> -200 100<700 800>
AnchorPoint: "stack" -350 900 basemark 0
AnchorPoint: "top" -350 600 mark 0
LayerCount: 3
Fore
SplineSet
-200 700 m 25xb0
 -200 800 l 25
 -100 800 l 25
 -100 700 l 25x70
 -200 700 l 25xb0
-500 600 m 25xb0
 -500 700 l 25
 -200 700 l 25
 -200 600 l 25
 -500 600 l 25xb0
-600 700 m 25x70
 -600 800 l 25
 -500 800 l 25x70
 -500 700 l 25xb0
 -600 700 l 25x70
EndSplineSet
Validated: 5
EndChar
StartChar: hookabovecomb
Encoding: 777 777 518
Width: 0
Flags: W
HStem: 600 100<-300 -200> 700 100<-200 -100> 800 100<-400 -200>
VStem: -300 100<600 700> -200 100<700 800>
AnchorPoint: "stack" -250 700 mark 0
AnchorPoint: "top" -250 600 mark 0
LayerCount: 3
Fore
SplineSet
-300 600 m 5x90
 -300 700 l 5
 -200 700 l 5x90
 -200 800 l 5
 -100 800 l 5
 -100 700 l 5x48
 -200 700 l 5
 -200 600 l 5
 -300 600 l 5x90
-400 800 m 5x28
 -400 900 l 5
 -200 900 l 5x28
 -200 800 l 5x48
 -400 800 l 5x28
EndSplineSet
Validated: 5
EndChar
StartChar: uni030A
Encoding: 778 778 138
Width: 0
Flags: W
HStem: 600 100<-300 -200> 800 100<-300 -200>
VStem: -400 100<700 800> -200 100<700 800>
AnchorPoint: "top" -250 600 mark 0
LayerCount: 3
Fore
SplineSet
-300 700 m 25
 -200 700 l 25
 -200 800 l 25
 -300 800 l 25
 -300 700 l 25
-400 600 m 25
 -400 900 l 25
 -100 900 l 25
 -100 600 l 25
 -400 600 l 25
EndSplineSet
Validated: 1
EndChar
StartChar: uni030B
Encoding: 779 779 139
Width: 0
Flags: W
HStem: 600 100<-600 -500 -300 -200> 700 100<-500 -400 -200 -100>
VStem: -600 100<600 700> -500 100<700 800> -300 100<600 700> -200 100<700 800>
AnchorPoint: "top-even" -450 600 mark 0
LayerCount: 3
Fore
SplineSet
-200 700 m 25x88
 -200 800 l 25
 -100 800 l 25
 -100 700 l 25x44
 -200 700 l 25x88
-300 600 m 25x88
 -300 700 l 25
 -200 700 l 25
 -200 600 l 25
 -300 600 l 25x88
-500 700 m 25xa0
 -500 800 l 25
 -400 800 l 25
 -400 700 l 25x50
 -500 700 l 25xa0
-600 600 m 25xa0
 -600 700 l 25
 -500 700 l 25
 -500 600 l 25
 -600 600 l 25xa0
EndSplineSet
Validated: 5
EndChar
StartChar: uni030D
Encoding: 781 781 141
Width: 0
Flags: W
HStem: 600 200<-300 -200>
VStem: -300 100<600 800>
AnchorPoint: "top" -250 600 mark 0
LayerCount: 3
Fore
SplineSet
-300 600 m 1
 -300 800 l 21
 -200 800 l 13
 -200 600 l 1
 -300 600 l 1
EndSplineSet
Validated: 1
EndChar
StartChar: uni0311
Encoding: 785 785 144
Width: 0
Flags: W
HStem: 600 100<-600 -500 -200 -100> 700 100<-500 -200>
VStem: -600 100<600 700> -200 100<600 700>
AnchorPoint: "top" -350 600 mark 0
LayerCount: 3
Fore
SplineSet
-500 700 m 25xb0
 -500 600 l 25
 -600 600 l 25
 -600 700 l 25
 -500 700 l 25xb0
-200 800 m 25x70
 -200 700 l 25
 -500 700 l 25xb0
 -500 800 l 25
 -200 800 l 25x70
-100 700 m 25
 -100 600 l 25
 -200 600 l 25
 -200 700 l 25
 -100 700 l 25
EndSplineSet
Validated: 5
EndChar
StartChar: uni0313
Encoding: 787 787 775
Width: 0
Flags: W
HStem: 500 100<-300 -200>
VStem: -300 100<500 600>
AnchorPoint: "top" -150 700 mark 0
LayerCount: 3
Fore
SplineSet
-300 500 m 1
 -300 600 l 1
 -200 600 l 1
 -200 500 l 1
 -300 500 l 1
-200 600 m 1
 -100 600 l 1
 -100 800 l 1
 -200 800 l 1
 -200 600 l 1
EndSplineSet
Validated: 5
EndChar
StartChar: uni0316
Encoding: 790 790 146
Width: 0
Flags: W
HStem: -200 100<-200 -100> -100 100<-300 -200>
VStem: -300 100<-100 0> -200 100<-200 -100>
AnchorPoint: "bottom" -250 0 mark 0
LayerCount: 3
Fore
SplineSet
-200 0 m 25x60
 -200 -100 l 25xa0
 -300 -100 l 25
 -300 0 l 25
 -200 0 l 25x60
-100 -100 m 25x90
 -100 -200 l 25
 -200 -200 l 25x90
 -200 -100 l 25xa0
 -100 -100 l 25x90
EndSplineSet
Validated: 5
EndChar
StartChar: uni0317
Encoding: 791 791 147
Width: 0
Flags: W
HStem: -200 100<-400 -300> -100 100<-300 -200>
VStem: -400 100<-200 -100> -300 100<-100 0>
AnchorPoint: "bottom" -250 0 mark 0
LayerCount: 3
Fore
SplineSet
-300 -100 m 25xa0
 -300 0 l 25
 -200 0 l 25
 -200 -100 l 25x50
 -300 -100 l 25xa0
-400 -200 m 25xa0
 -400 -100 l 25
 -300 -100 l 25
 -300 -200 l 25
 -400 -200 l 25xa0
EndSplineSet
Validated: 5
EndChar
StartChar: uni0328
Encoding: 808 808 152
Width: 0
Flags: W
HStem: -200 100<-300 -200>
VStem: -400 100<-100 0>
AnchorPoint: "ogonek" -350 0 mark 0
LayerCount: 3
Fore
SplineSet
-400 -200 m 1
 -400 0 l 1
 -300 0 l 1
 -300 -100 l 1
 -200 -100 l 1
 -200 -200 l 1
 -400 -200 l 1
EndSplineSet
Validated: 1
EndChar
StartChar: uni0329
Encoding: 809 809 153
Width: 0
Flags: W
HStem: -200 200<-300 -200>
VStem: -300 100<-200 0>
AnchorPoint: "bottom-adjoined" -250 0 mark 0
LayerCount: 3
Fore
SplineSet
-300 -200 m 1
 -300 0 l 21
 -200 0 l 13
 -200 -200 l 1
 -300 -200 l 1
EndSplineSet
Validated: 1
EndChar
StartChar: uni0437
Encoding: 1079 1079 781
Width: 600
VWidth: 1600
Flags: W
LayerCount: 3
Fore
SplineSet
400 100 m 5
 500 100 l 5
 500 200 l 5
 400 200 l 5
 400 100 l 5
400 300 m 5
 500 300 l 5
 500 400 l 5
 400 400 l 5
 400 300 l 5
200 200 m 29
 400 200 l 5
 400 300 l 5
 200 300 l 29
 200 200 l 29
100 400 m 5
 400 400 l 5
 400 500 l 5
 100 500 l 5
 100 400 l 5
400 100 m 5
 100 100 l 5
 100 0 l 5
 400 0 l 5
 400 100 l 5
EndSplineSet
Validated: 5
EndChar
StartChar: uni0447
Encoding: 1095 1095 782
Width: 600
VWidth: 1600
Flags: W
HStem: 200 100<200 400> 480 20G<100 200 400 500>
VStem: 100 100<300 500> 400 100<0 200 300 500>
LayerCount: 3
Fore
SplineSet
500 500 m 5
 500 0 l 5
 400 0 l 5
 400 200 l 5
 200 200 l 5
 200 300 l 5
 400 300 l 5
 400 500 l 5
 500 500 l 5
200 300 m 5
 100 300 l 5
 100 500 l 5
 200 500 l 5
 200 300 l 5
EndSplineSet
Validated: 5
EndChar
StartChar: uni1D7D
Encoding: 7549 7549 779
Width: 600
VWidth: 1600
Flags: W
HStem: 400 100<100 400>
LayerCount: 3
Fore
SplineSet
100 400 m 5
 100 500 l 5
 400 500 l 5
 400 400 l 5
 100 400 l 5
500 200 m 1
 600 200 l 1
 600 300 l 1
 500 300 l 1
 500 400 l 1
 400 400 l 5
 400 300 l 1
 0 300 l 1
 0 200 l 1
 100 200 l 1
 100 -200 l 1
 200 -200 l 1
 200 0 l 1
 400 0 l 1
 400 100 l 1
 500 100 l 1
 500 200 l 1
400 200 m 1
 400 100 l 1
 200 100 l 1
 200 200 l 1
 400 200 l 1
EndSplineSet
Validated: 5
EndChar
StartChar: uni1E9C
Encoding: 7836 7836 744
Width: 400
VWidth: 1600
Flags: W
HStem: -200 21G<100 200> 100 100<0 100> 300 100<200 300> 600 100<200 400>
VStem: 0 100<100 200> 100 100<-200 600> 200 100<300 400>
LayerCount: 3
Fore
SplineSet
200 300 m 25xf4
 200 400 l 25xf4
 300 400 l 25
 300 300 l 25xf2
 200 300 l 25xf4
0 100 m 25xf8
 0 200 l 25
 100 200 l 25
 100 100 l 25
 0 100 l 25xf8
EndSplineSet
Refer: 174 383 N 1 0 0 1 0 0 2
Validated: 5
EndChar
StartChar: uni1EB0
Encoding: 7856 7856 466
Width: 700
Flags: W
HStem: -100 200<0 100 600 700> 100 200<100 200 500 600> 100 100<200 500> 300 200<200 300 400 500> 700 100<200 300 400 500> 800 100<100 200 500 600> 900 100<300 400> 1000 100<200 300>
VStem: 0 100<-100 100> 100 100<200 300 800 900> 200 100<300 500 1000 1100> 300 100<500 700 900 1000> 400 100<300 500> 500 100<200 300 800 900> 600 100<-100 100>
LayerCount: 3
Fore
SplineSet
400 1000 m 1x0210
 400 900 l 1
 300 900 l 1x0210
 300 1000 l 1x0220
 400 1000 l 1x0210
100 800 m 1x0440
 100 900 l 1
 200 900 l 1x0440
 200 800 l 1x0840
 100 800 l 1x0440
0 -100 m 1x8080
 0 100 l 1
 100 100 l 1
 100 -100 l 1
 0 -100 l 1x8080
300 1000 m 1x0220
 200 1000 l 1
 200 1100 l 1
 300 1100 l 1x0120
 300 1000 l 1x0220
200 800 m 1x1840
 500 800 l 1
 500 700 l 1
 400 700 l 1
 400 500 l 1x1854
 500 500 l 1x1808
 500 300 l 1x4008
 600 300 l 1x4004
 600 100 l 1
 700 100 l 1
 700 -100 l 1
 600 -100 l 1
 600 100 l 1
 100 100 l 1x8082
 100 300 l 1
 200 300 l 1x4040
 200 200 l 1
 500 200 l 1x2044
 500 300 l 1x4008
 400 300 l 1x1008
 400 500 l 1x1010
 300 500 l 1
 300 300 l 1x1020
 200 300 l 1x4040
 200 500 l 1
 300 500 l 1x1020
 300 700 l 1x1810
 200 700 l 1x1820
 200 800 l 1x1840
500 800 m 1
 500 900 l 1
 600 900 l 1
 600 800 l 1x0404
 500 800 l 1
EndSplineSet
Validated: 5
EndChar
StartChar: uni1EB4
Encoding: 7860 7860 468
Width: 700
Flags: W
HStem: -100 200<0 100 600 700> 100 200<100 200 500 600> 100 100<200 500> 300 200<200 300 400 500> 600 100<200 300 400 500> 700 100<100 200 500 600> 900 100<101 201 401 501> 1000 100<201 401 501 601>
VStem: 0 100<-100 100> 100 100<200 300 700 800 900 1000> 200 100<300 500> 300 100<500 600> 400 100<300 500 900 1000> 500 100<200 300 700 800 1000 1100> 600 100<-100 100>
LayerCount: 3
Fore
SplineSet
101 900 m 1x02
 101 1000 l 1
 201 1000 l 1
 201 900 l 1
 101 900 l 1x02
100 700 m 1x0440
 100 800 l 1
 200 800 l 1x0440
 200 700 l 1x0840
 100 700 l 1x0440
0 -100 m 1x8080
 0 100 l 1
 100 100 l 1
 100 -100 l 1
 0 -100 l 1x8080
201 1000 m 1x02
 201 1100 l 1
 401 1100 l 1x01
 401 1000 l 1
 201 1000 l 1x02
401 1000 m 1x02
 501 1000 l 1
 501 900 l 1
 401 900 l 1
 401 1000 l 1x02
501 1000 m 1
 501 1100 l 1
 601 1100 l 1
 601 1000 l 1x01
 501 1000 l 1
200 700 m 1x1840
 500 700 l 1
 500 600 l 1
 400 600 l 1
 400 500 l 1x1854
 500 500 l 1x1808
 500 300 l 1x4008
 600 300 l 1x4004
 600 100 l 1
 700 100 l 1
 700 -100 l 1
 600 -100 l 1
 600 100 l 1
 100 100 l 1x8082
 100 300 l 1
 200 300 l 1x4040
 200 200 l 1
 500 200 l 1x2044
 500 300 l 1x4008
 400 300 l 1x1008
 400 500 l 1x1010
 300 500 l 1
 300 300 l 1x1020
 200 300 l 1x4040
 200 500 l 1
 300 500 l 1x1020
 300 600 l 1x1810
 200 600 l 1x1820
 200 700 l 1x1840
500 700 m 1
 500 800 l 1
 600 800 l 1
 600 700 l 1x0404
 500 700 l 1
EndSplineSet
Validated: 5
EndChar
StartChar: emdash
Encoding: 8212 8212 734
Width: 1000
Flags: W
HStem: 200 100<0 1000>
LayerCount: 3
Fore
SplineSet
0 200 m 1
 0 300 l 1
 1000 300 l 25
 1000 200 l 25
 0 200 l 1
EndSplineSet
EndChar
StartChar: quoteleft
Encoding: 8216 8216 216
Width: 400
Flags: W
HStem: 500 21G<100 200> 680 20G<100 200> 700 100<200 300>
VStem: 100 100<500 700> 200 100<700 800>
LayerCount: 3
Fore
SplineSet
200 700 m 25xd0
 200 500 l 25
 100 500 l 25
 100 700 l 25
 200 700 l 25xd0
300 800 m 25xa8
 300 700 l 25xa8
 200 700 l 25xd0
 200 800 l 25
 300 800 l 25xa8
EndSplineSet
Validated: 5
EndChar
StartChar: quoteright
Encoding: 8217 8217 213
Width: 400
Flags: W
HStem: 500 100<100 200>
VStem: 100 100<500 600> 200 100<600 800>
LayerCount: 3
Fore
SplineSet
200 600 m 13xc0
 200 800 l 29
 300 800 l 29
 300 600 l 21xa0
 200 600 l 13xc0
100 500 m 29xc0
 100 600 l 29
 200 600 l 29
 200 500 l 29
 100 500 l 29xc0
EndSplineSet
Validated: 5
EndChar
StartChar: quotesinglbase
Encoding: 8218 8218 201
Width: 400
Flags: W
HStem: -100 100<100 200>
VStem: 100 100<-100 0> 200 100<0 200>
LayerCount: 3
Fore
SplineSet
100 -100 m 1xc0
 100 0 l 1
 200 0 l 1
 200 -100 l 1
 100 -100 l 1xc0
200 0 m 1
 200 200 l 1
 300 200 l 1
 300 0 l 1xa0
 200 0 l 1
EndSplineSet
Validated: 5
EndChar
StartChar: quotereversed
Encoding: 8219 8219 733
Width: 400
Flags: W
LayerCount: 3
Fore
SplineSet
200 600 m 25
 200 800 l 25
 100 800 l 25
 100 600 l 25
 200 600 l 25
300 500 m 25
 300 600 l 25
 200 600 l 25
 200 500 l 25
 300 500 l 25
EndSplineSet
Validated: 5
EndChar
StartChar: quotedblleft
Encoding: 8220 8220 199
Width: 600
Flags: W
HStem: 500 200<100 200 300 400> 700 100<200 300 400 500>
VStem: 100 100<500 700> 200 100<700 800> 300 100<500 700> 400 100<700 800>
LayerCount: 3
Fore
SplineSet
200 700 m 25xa0
 200 500 l 25
 100 500 l 25
 100 700 l 25
 200 700 l 25xa0
300 800 m 25x50
 300 700 l 25x90
 200 700 l 25xa0
 200 800 l 25
 300 800 l 25x50
400 700 m 25x88
 400 500 l 25
 300 500 l 25x88
 300 700 l 25x90
 400 700 l 25x88
500 800 m 25x44
 500 700 l 25x44
 400 700 l 25x88
 400 800 l 25
 500 800 l 25x44
EndSplineSet
Validated: 5
EndChar
StartChar: quotedblright
Encoding: 8221 8221 200
Width: 600
Flags: W
HStem: 500 100<100 200 300 400> 600 200<200 300 400 500>
VStem: 100 100<500 600> 200 100<600 800> 300 100<500 600> 400 100<600 800>
LayerCount: 3
Fore
SplineSet
400 600 m 29x88
 400 800 l 29
 500 800 l 29
 500 600 l 29x44
 400 600 l 29x88
300 500 m 29x88
 300 600 l 21x90
 400 600 l 13
 400 500 l 29
 300 500 l 29x88
200 600 m 13xa0
 200 800 l 29
 300 800 l 29x50
 300 600 l 21x90
 200 600 l 13xa0
100 500 m 29xa0
 100 600 l 29
 200 600 l 29
 200 500 l 29
 100 500 l 29xa0
EndSplineSet
Validated: 5
EndChar
StartChar: quotedblbase
Encoding: 8222 8222 202
Width: 600
Flags: W
HStem: -100 100<100 200 300 400> 0 200<200 300 400 500>
VStem: 100 100<-100 0> 200 100<0 200> 300 100<-100 0> 400 100<0 200>
LayerCount: 3
Fore
SplineSet
400 0 m 25x88
 400 200 l 25
 500 200 l 25
 500 0 l 25x44
 400 0 l 25x88
300 -100 m 25x88
 300 0 l 25x90
 400 0 l 25
 400 -100 l 25
 300 -100 l 25x88
200 0 m 25xa0
 200 200 l 25
 300 200 l 25x50
 300 0 l 25x90
 200 0 l 25xa0
100 -100 m 25xa0
 100 0 l 25
 200 0 l 25
 200 -100 l 25
 100 -100 l 25xa0
EndSplineSet
Validated: 5
EndChar
StartChar: uni201F
Encoding: 8223 8223 732
Width: 600
Flags: W
LayerCount: 3
Fore
SplineSet
200 600 m 25
 200 800 l 25
 100 800 l 25
 100 600 l 25
 200 600 l 25
300 500 m 25
 300 600 l 25
 200 600 l 25
 200 500 l 25
 300 500 l 25
400 600 m 25
 400 800 l 25
 300 800 l 25
 300 600 l 25
 400 600 l 25
500 500 m 25
 500 600 l 25
 400 600 l 25
 400 500 l 25
 500 500 l 25
EndSplineSet
Validated: 5
EndChar
StartChar: dagger
Encoding: 8224 8224 210
Width: 500
Flags: W
HStem: -100 21G<200 300> 400 100<100 200 300 400> 680 20G<200 300>
VStem: 200 100<-100 400 500 700>
LayerCount: 3
Fore
SplineSet
100 400 m 25
 100 500 l 25
 200 500 l 25
 200 700 l 25
 300 700 l 25
 300 500 l 25
 400 500 l 25
 400 400 l 25
 300 400 l 25
 300 -100 l 25
 200 -100 l 25
 200 400 l 25
 100 400 l 25
EndSplineSet
Validated: 1
EndChar
StartChar: daggerdbl
Encoding: 8225 8225 211
Width: 500
Flags: W
HStem: -100 21G<200 300> 100 100<100 200 300 400> 400 100<100 200 300 400> 680 20G<200 300>
VStem: 100 300<100 200 400 500> 200 100<-100 100 200 400 500 700>
LayerCount: 3
Fore
SplineSet
100 400 m 1xf8
 100 500 l 1xf8
 200 500 l 1
 200 700 l 1
 300 700 l 1
 300 500 l 1xf4
 400 500 l 1
 400 400 l 1xf8
 300 400 l 1
 300 200 l 1xf4
 400 200 l 1
 400 100 l 1xf8
 300 100 l 1
 300 -100 l 1
 200 -100 l 1
 200 100 l 1xf4
 100 100 l 1
 100 200 l 1xf8
 200 200 l 1
 200 400 l 1xf4
 100 400 l 1xf8
EndSplineSet
Validated: 1
EndChar
StartChar: bullet
Encoding: 8226 8226 196
Width: 400
Flags: W
HStem: 200 200<100 300>
VStem: 100 200<200 400>
LayerCount: 3
Fore
SplineSet
100 200 m 25
 100 400 l 25
 300 400 l 25
 300 200 l 25
 100 200 l 25
EndSplineSet
Validated: 1
EndChar
StartChar: ellipsis
Encoding: 8230 8230 209
Width: 900
Flags: W
HStem: 0 200<100 200 400 500 700 800>
VStem: 100 100<0 200> 400 100<0 200> 700 100<0 200>
CounterMasks: 1 70
LayerCount: 3
Fore
SplineSet
700 0 m 29
 700 200 l 29
 800 200 l 21
 800 0 l 13
 700 0 l 29
400 0 m 25
 400 200 l 25
 500 200 l 25
 500 0 l 25
 400 0 l 25
100 0 m 25
 100 200 l 25
 200 200 l 25
 200 0 l 25
 100 0 l 25
EndSplineSet
Validated: 1
EndChar
StartChar: uni2034
Encoding: 8244 8244 245
Width: 900
Flags: W
HStem: 500 300<200 300 400 500 600 700>
VStem: 200 100<500 800> 400 100<500 800> 600 100<500 800>
CounterMasks: 1 70
LayerCount: 3
Fore
SplineSet
600 500 m 1
 600 800 l 1
 700 800 l 1
 700 500 l 1
 600 500 l 1
200 500 m 1
 200 800 l 1
 300 800 l 1
 300 500 l 1
 200 500 l 1
400 500 m 1
 400 800 l 1
 500 800 l 1
 500 500 l 1
 400 500 l 1
EndSplineSet
Validated: 1
EndChar
StartChar: guilsinglleft
Encoding: 8249 8249 197
Width: 500
Flags: W
HStem: 0 100<300 400> 100 100<200 300> 300 100<200 300> 400 100<300 400>
VStem: 100 100<200 300> 200 100<100 200 300 400> 300 100<0 100 400 500>
LayerCount: 3
Fore
SplineSet
100 200 m 1x48
 100 300 l 1
 200 300 l 1x68
 200 400 l 1
 300 400 l 1x64
 300 500 l 1
 400 500 l 1
 400 400 l 1x12
 300 400 l 1
 300 300 l 1x24
 200 300 l 1
 200 200 l 1x68
 300 200 l 1x64
 300 100 l 1x84
 400 100 l 1
 400 0 l 1
 300 0 l 1x82
 300 100 l 1x84
 200 100 l 1x44
 200 200 l 1
 100 200 l 1x48
EndSplineSet
Validated: 5
EndChar
StartChar: fraction
Encoding: 8260 8260 215
Width: 0
Flags: W
LayerCount: 3
Fore
SplineSet
300 700 m 1
 400 700 l 1
 400 800 l 1
 300 800 l 1
 300 700 l 1
300 700 m 1
 200 700 l 1
 200 600 l 1
 300 600 l 1
 300 700 l 1
200 600 m 1
 100 600 l 1
 100 500 l 1
 200 500 l 1
 200 600 l 1
-200 100 m 1
 -100 100 l 1
 -100 200 l 1
 -200 200 l 1
 -200 100 l 1
-200 100 m 1
 -300 100 l 1
 -300 0 l 1
 -200 0 l 1
 -200 100 l 1
-300 0 m 1
 -400 0 l 1
 -400 -100 l 1
 -300 -100 l 1
 -300 0 l 1
EndSplineSet
Validated: 5
EndChar
StartChar: uni207F
Encoding: 8319 8319 828
Width: 500
VWidth: 1600
Flags: W
HStem: 600 100<200 300>
VStem: 100 100<400 600> 300 100<400 600>
LayerCount: 3
Fore
SplineSet
100 400 m 1
 100 700 l 1
 300 700 l 1
 300 600 l 1
 200 600 l 1
 200 400 l 1
 100 400 l 1
300 600 m 1
 400 600 l 1
 400 400 l 1
 300 400 l 1
 300 600 l 1
EndSplineSet
Validated: 5
EndChar
StartChar: colonmonetary
Encoding: 8353 8353 790
Width: 800
VWidth: 1600
Flags: W
HStem: 480 20G<200 300> 700 21G<400 500>
LayerCount: 3
Fore
SplineSet
200 -100 m 1
 300 -100 l 1
 300 -0 l 1
 400 -0 l 1
 400 -100 l 1
 500 -100 l 1
 500 -0 l 1
 700 -0 l 1
 700 100 l 1
 500 100 l 1
 500 300 l 1
 600 300 l 1
 600 600 l 1
 700 600 l 1
 700 700 l 1
 600 700 l 1
 600 800 l 1
 500 800 l 1
 500 700 l 1
 400 700 l 1
 400 800 l 1
 300 800 l 1
 300 600 l 1
 200 600 l 1
 200 500 l 1
 100 500 l 1
 100 200 l 1
 200 200 l 1
 200 -100 l 1
200 500 m 1
 300 500 l 1
 300 300 l 1
 400 300 l 1
 400 600 l 1
 500 600 l 1
 500 300 l 1
 400 300 l 1
 400 100 l 1
 300 100 l 1
 300 300 l 1
 200 300 l 1
 200 500 l 1
EndSplineSet
Validated: 5
EndChar
StartChar: uni20A2
Encoding: 8354 8354 791
Width: 800
VWidth: 1600
Flags: W
HStem: 0 100<300 400 500 600> 100 100<200 300> 400 100<500 700> 600 100<200 300> 700 100<300 600>
VStem: 100 100<200 600> 200 100<100 200 600 700> 300 300<0 100 700 800> 400 100<100 400>
LayerCount: 3
Fore
SplineSet
500 500 m 5xa280
 700 500 l 5
 700 400 l 5
 500 400 l 5
 500 100 l 5xa280
 600 100 l 5
 600 0 l 5
 300 0 l 5xa1
 300 100 l 5
 400 100 l 5
 400 400 l 5
 500 400 l 5
 500 500 l 5xa280
200 100 m 5x62
 200 200 l 5x64
 300 200 l 5x62
 300 100 l 5xa2
 200 100 l 5x62
100 600 m 5x74
 200 600 l 5
 200 200 l 5
 100 200 l 5
 100 600 l 5x74
200 700 m 5x32
 300 700 l 5
 300 600 l 5x32
 200 600 l 5x34
 200 700 l 5x32
300 700 m 5
 300 800 l 5
 600 800 l 5
 600 700 l 5x29
 300 700 l 5
EndSplineSet
Validated: 5
EndChar
StartChar: uni20A6
Encoding: 8358 8358 792
Width: 1000
VWidth: 1600
Flags: W
HStem: 500 21G<300 400 500 700>
LayerCount: 3
Fore
SplineSet
500 500 m 21
 500 600 l 5
 400 600 l 5
 400 700 l 5
 300 700 l 5
 300 800 l 5
 200 800 l 5
 200 500 l 5
 100 500 l 5
 100 300 l 5
 200 300 l 5
 200 0 l 5
 300 0 l 5
 300 300 l 5
 500 300 l 5
 500 200 l 5
 600 200 l 5
 600 300 l 5
 700 300 l 5
 700 200 l 5
 600 200 l 5
 600 100 l 5
 700 100 l 5
 700 0 l 5
 800 0 l 5
 800 300 l 5
 900 300 l 5
 900 500 l 5
 800 500 l 5
 800 800 l 5
 700 800 l 5
 700 500 l 5
 500 500 l 21
400 600 m 5
 400 500 l 5
 300 500 l 5
 300 600 l 5
 400 600 l 5
EndSplineSet
Validated: 5
EndChar
StartChar: uni20A8
Encoding: 8360 8360 793
Width: 900
VWidth: 1600
Flags: W
HStem: 0 100<500 700> 100 100<400 500 700 800> 200 100<600 700> 300 100<200 300 500 600> 400 100<600 800> 680 20G<400 500> 700 100<200 400>
VStem: 100 100<0 300 400 700> 300 100<200 300> 400 100<100 200 400 700> 500 100<300 400> 600 100<200 300> 700 100<100 200>
LayerCount: 3
Fore
SplineSet
200 300 m 1x1180
 200 0 l 1
 100 0 l 1
 100 800 l 1
 400 800 l 1x9340
 400 700 l 1x0540
 200 700 l 1
 200 400 l 1x1340
 400 400 l 1x0940
 400 700 l 1
 500 700 l 1
 500 400 l 1x1540
 400 400 l 1x0940
 400 200 l 1x4980
 300 200 l 1x2180
 300 300 l 1
 200 300 l 1x1180
600 500 m 1x0910
 800 500 l 1
 800 400 l 1x0908
 600 400 l 1x1128
 600 300 l 1x2128
 700 300 l 1x2110
 700 200 l 1x4110
 800 200 l 1
 800 100 l 1x4108
 700 100 l 1
 700 0 l 1
 500 0 l 1x8128
 500 100 l 1
 700 100 l 1x8148
 700 200 l 1x4110
 600 200 l 1x2110
 600 300 l 1x2120
 500 300 l 1x1120
 500 400 l 1x1140
 600 400 l 1x1120
 600 500 l 1x0910
400 200 m 1x4180
 500 200 l 1x4140
 500 100 l 1x8140
 400 100 l 1x4140
 400 200 l 1x4180
EndSplineSet
Validated: 5
EndChar
StartChar: uni20A9
Encoding: 8361 8361 794
Width: 1100
VWidth: 1600
Flags: W
HStem: 0 200<300 400 700 800> 200 200<400 500 600 700> 300 100<100 200 300 400 500 600 700 800 900 1000> 500 300<100 200 900 1000> 500 100<300 500 600 800>
VStem: 100 100<600 800> 200 100<200 300 400 500> 400 100<200 300> 600 100<200 300> 800 100<200 300 400 500> 900 100<600 800>
LayerCount: 3
Fore
SplineSet
100 300 m 1x2580
 100 400 l 1x2580
 200 400 l 1
 200 500 l 1x3380
 100 500 l 1
 100 800 l 1
 200 800 l 1x3580
 200 600 l 1x0d80
 500 600 l 1
 500 500 l 1
 300 500 l 1
 300 400 l 1x2b80
 500 400 l 1
 600 400 l 1
 600 500 l 1
 600 600 l 1
 900 600 l 1x4ba0
 900 800 l 1
 1000 800 l 1
 1000 500 l 1x13a0
 900 500 l 1
 900 400 l 1x31c0
 1000 400 l 1
 1000 300 l 1x31a0
 900 300 l 1x31c0
 900 200 l 1x41c0
 800 200 l 1
 800 0 l 1
 700 0 l 1
 700 200 l 1x81c0
 600 200 l 1x41c0
 600 300 l 1
 500 300 l 1x21c0
 500 200 l 1x41c0
 400 200 l 1
 400 0 l 1
 300 0 l 1
 300 200 l 1x83c0
 200 200 l 1x43c0
 200 300 l 1x23c0
 100 300 l 1x2580
300 200 m 1xa380
 400 200 l 1
 400 300 l 1
 300 300 l 1
 300 200 l 1xa380
700 200 m 1
 800 200 l 1
 800 300 l 1xa1c0
 700 300 l 1
 700 200 l 1
600 600 m 1x29c0
 600 700 l 1
 500 700 l 1
 500 600 l 1
 500 500 l 1
 500 400 l 1
 600 400 l 1x49c0
 800 400 l 1
 800 500 l 1
 600 500 l 1
 600 600 l 1x29c0
EndSplineSet
Validated: 5
EndChar
StartChar: uni20AA
Encoding: 8362 8362 806
Width: 900
Flags: W
HStem: 0 100<402 700> 480 20G<500 600> 500 100<200 500>
VStem: 100 100<0 500> 302 100<100 400> 500 100<200 500> 700 100<100 600>
LayerCount: 3
Fore
SplineSet
402 400 m 25x9e
 402 100 l 1
 302 100 l 1
 302 400 l 25
 402 400 l 25x9e
800 600 m 25xbe
 800 0 l 1
 402 0 l 25
 402 100 l 17
 700 100 l 1
 700 600 l 25
 800 600 l 25xbe
500 200 m 25
 500 500 l 1
 600 500 l 1xde
 600 200 l 25
 500 200 l 25
100 0 m 25
 100 600 l 1
 500 600 l 25xbe
 500 500 l 25xde
 200 500 l 1xbe
 200 0 l 25
 100 0 l 25
EndSplineSet
Validated: 5
EndChar
StartChar: uni20AD
Encoding: 8365 8365 796
Width: 900
VWidth: 1600
Flags: W
HStem: 0 100<700 800> 100 100<600 700> 200 100<500 600> 400 100<100 200 300 400 600 800> 600 100<600 700> 700 100<700 800>
VStem: 200 100<0 400 500 800> 400 100<300 400> 500 100<200 300 500 600> 600 100<100 200 600 700> 700 100<0 100 700 800>
LayerCount: 3
Fore
SplineSet
100 400 m 1xb3
 100 500 l 1
 200 500 l 1
 200 800 l 1
 300 800 l 1xb7
 300 500 l 1
 500 500 l 1
 500 600 l 1
 600 600 l 1
 600 500 l 1x1a80
 800 500 l 1
 800 400 l 1
 500 400 l 1
 500 300 l 1x3b20
 600 300 l 1x3a80
 600 200 l 1x5280
 700 200 l 1x5240
 700 100 l 1x9240
 800 100 l 1
 800 0 l 1
 700 0 l 1x9220
 700 100 l 1x9240
 600 100 l 1x5240
 600 200 l 1x5280
 500 200 l 1x3280
 500 300 l 1
 400 300 l 1
 400 400 l 1
 300 400 l 1
 300 0 l 1
 200 0 l 1
 200 400 l 1
 100 400 l 1xb3
600 600 m 1x1a80
 600 700 l 1
 700 700 l 1
 700 600 l 1x1a40
 600 600 l 1x1a80
700 700 m 1
 700 800 l 1
 800 800 l 1
 800 700 l 1x1620
 700 700 l 1
EndSplineSet
Validated: 5
EndChar
StartChar: uni20B1
Encoding: 8369 8369 798
Width: 900
VWidth: 1600
Flags: W
HStem: 300 100<300 600> 500 100<100 200 300 600 700 800> 700 100<300 600>
VStem: 200 100<0 300 400 500 600 700> 600 100<400 500 600 700>
CounterMasks: 1 e0
LayerCount: 3
Fore
SplineSet
100 500 m 1
 100 600 l 1
 200 600 l 1
 200 800 l 1
 600 800 l 1
 600 700 l 1
 700 700 l 1
 700 600 l 1
 800 600 l 1
 800 500 l 1
 700 500 l 1
 700 400 l 1
 600 400 l 1
 600 500 l 1
 300 500 l 1
 300 400 l 1
 600 400 l 1
 600 300 l 1
 300 300 l 1
 300 0 l 1
 200 0 l 1
 200 500 l 1
 100 500 l 1
600 700 m 1
 300 700 l 1
 300 600 l 1
 600 600 l 1
 600 700 l 1
EndSplineSet
Validated: 5
EndChar
StartChar: uni20B2
Encoding: 8370 8370 803
Width: 800
VWidth: 1600
Flags: W
HStem: -100 21G<400 500> 0 100<300 400 500 600> 100 100<200 300> 500 100<200 300> 600 100<300 400 500 600>
VStem: 100 100<200 500> 200 100<100 200 500 600> 300 300<2.22045e-014 100 600 700> 400 100<-100 0 100 600 700 800> 600 100<100 400>
LayerCount: 3
Fore
SplineSet
600 100 m 5xc1
 600 400 l 5
 700 400 l 5
 700 100 l 5xa040
 600 100 l 5xc1
600 100 m 5xc9
 600 0 l 5
 500 2.22044604925e-014 l 5
 500 -100 l 5
 400 -100 l 5
 400 -2.77555756156e-015 l 5xc8c0
 300 0 l 5xc9
 300 100 l 5
 400 100 l 5
 400 600 l 5xca80
 300 600 l 5
 300 500 l 5x9280
 200 500 l 5
 200 200 l 5xb4
 300 200 l 5xb2
 300 100 l 5xc2
 200 100 l 5xa2
 200 200 l 5
 100 200 l 5
 100 500 l 5
 200 500 l 5xb4
 200 600 l 5
 300 600 l 5xb2
 300 700 l 5x89
 400 700 l 5
 400 800 l 5
 500 800 l 5
 500 700 l 5x8880
 600 700 l 5
 600 600 l 5x89
 500 600 l 5
 500 100 l 5xc880
 600 100 l 5xc9
EndSplineSet
Validated: 5
EndChar
StartChar: uni20B4
Encoding: 8372 8372 799
Width: 800
VWidth: 1600
Flags: W
LayerCount: 3
Fore
SplineSet
500 800 m 1
 200 800 l 1
 200 700 l 1
 500 700 l 1
 500 500 l 1
 100 500 l 1
 100 300 l 1
 200 300 l 1
 200 100 l 1
 300 100 l 1
 300 0 l 1
 600 0 l 1
 600 100 l 1
 300 100 l 1
 300 300 l 1
 700 300 l 1
 700 500 l 1
 600 500 l 1
 600 700 l 1
 500 700 l 1
 500 800 l 1
EndSplineSet
Validated: 5
EndChar
StartChar: uni20B5
Encoding: 8373 8373 802
Width: 800
VWidth: 1600
Flags: W
HStem: -100 21G<400 500> 2.22045e-014 100<300 400 500 700> 100 100<200 300> 500 100<200 300> 600 100<300 400 500 700>
VStem: 100 100<200 500> 200 100<100 200 500 600> 400 100<-100 0 100 600 700 800>
LayerCount: 3
Fore
SplineSet
200 500 m 5x95
 200 200 l 5xb5
 300 200 l 5
 300 100 l 5
 400 100 l 5
 400 600 l 5xab
 300 600 l 5
 300 500 l 5x93
 200 500 l 5x95
200 500 m 5
 200 600 l 5
 300 600 l 5xf3
 300 700 l 5
 400 700 l 5
 400 800 l 5
 500 800 l 5
 500 700 l 5
 700 700 l 5
 700 600 l 5
 500 600 l 5
 500 100 l 5
 700 100 l 5
 700 0 l 5
 500 2.22044604925e-014 l 5
 500 -100 l 5
 400 -100 l 5
 400 -2.77555756156e-015 l 5
 300 0 l 5
 300 100 l 5
 200 100 l 5xeb
 200 200 l 5
 100 200 l 5
 100 500 l 5
 200 500 l 5
EndSplineSet
Validated: 5
EndChar
StartChar: uni20B8
Encoding: 8376 8376 800
Width: 700
VWidth: 1600
Flags: W
HStem: 500 100<100 300 400 600> 700 100<100 600>
VStem: 300 100<0 500>
LayerCount: 3
Fore
SplineSet
100 700 m 1
 100 800 l 1
 600 800 l 1
 600 700 l 1
 100 700 l 1
300 0 m 1
 300 500 l 1
 100 500 l 1
 100 600 l 1
 600 600 l 1
 600 500 l 1
 400 500 l 1
 400 0 l 1
 300 0 l 1
EndSplineSet
Validated: 1
EndChar
StartChar: uni20B9
Encoding: 8377 8377 804
Width: 700
Flags: W
HStem: 0 100<500 600> 100 100<400 500> 200 100<300 400> 300 100<100 300> 500 100<100 300 400 600> 700 100<100 300 400 600>
VStem: 300 100<200 300 400 500 600 700> 400 100<100 200> 500 100<0 100>
LayerCount: 3
Fore
SplineSet
100 700 m 1x1e80
 100 800 l 1
 600 800 l 1
 600 700 l 1
 400 700 l 1
 400 600 l 1
 600 600 l 1
 600 500 l 1
 400 500 l 1
 400 400 l 1
 300 400 l 1
 300 500 l 1
 100 500 l 1
 100 600 l 1
 300 600 l 1
 300 700 l 1
 100 700 l 1x1e80
100 300 m 1
 100 400 l 1
 300 400 l 1x1e
 300 300 l 1x2e
 100 300 l 1
300 300 m 1x2e
 400 300 l 1x2e
 400 200 l 1x4e
 300 200 l 1
 300 300 l 1x2e
400 200 m 1x4e
 500 200 l 1x4d
 500 100 l 1x8d
 400 100 l 1x4d
 400 200 l 1x4e
500 100 m 1x8d
 600 100 l 1
 600 0 l 1
 500 0 l 1x8c80
 500 100 l 1x8d
EndSplineSet
Validated: 5
EndChar
StartChar: uni20BA
Encoding: 8378 8378 805
Width: 800
Flags: W
HStem: 0 100<300 500> 100 100<500 600> 300 100<100 200> 400 100<300 500> 500 100<100 200> 600 100<300 500>
VStem: 100 200<300 400 500 600> 200 300<0 100 400 500 600 700> 200 100<100 300 700 800> 500 100<100 200> 600 100<200 400>
LayerCount: 3
Fore
SplineSet
100 300 m 1xa2
 100 400 l 1xa2
 200 400 l 1
 200 500 l 1xa9
 100 500 l 1
 100 600 l 1xaa
 200 600 l 1xa9
 200 800 l 1
 300 800 l 1
 300 700 l 1x0480
 500 700 l 1
 500 600 l 1x05
 300 600 l 1
 300 500 l 1x16
 500 500 l 1
 500 400 l 1x15
 300 400 l 1x16
 300 100 l 1x9480
 500 100 l 1
 500 0 l 1
 400 -0 300 0 200 0 c 1x95
 200 300 l 1xa080
 100 300 l 1xa2
500 100 m 1x81
 500 200 l 1
 600 200 l 1
 600 100 l 1x4040
 500 100 l 1x81
600 200 m 1
 600 400 l 1
 700 400 l 1
 700 200 l 1x5020
 600 200 l 1
EndSplineSet
Validated: 5
EndChar
StartChar: uni20BD
Encoding: 8381 8381 801
Width: 800
VWidth: 1600
Flags: W
HStem: 100 100<100 200 300 600> 300 100<100 200 300 600> 700 100<300 600>
VStem: 200 100<0 100 200 300 400 700> 600 100<400 700>
LayerCount: 3
Fore
SplineSet
100 100 m 1
 100 200 l 1
 200 200 l 1
 200 300 l 1
 100 300 l 1
 100 400 l 1
 200 400 l 1
 200 800 l 5
 600 800 l 5
 600 700 l 5
 700 700 l 5
 700 400 l 1
 600 400 l 1
 600 700 l 5
 300 700 l 5
 300 400 l 1
 600 400 l 1
 600 300 l 1
 300 300 l 1
 300 200 l 1
 600 200 l 1
 600 100 l 1
 300 100 l 1
 300 0 l 1
 200 0 l 1
 200 100 l 1
 100 100 l 1
EndSplineSet
Validated: 5
EndChar
StartChar: uni2117
Encoding: 8471 8471 785
Width: 900
VWidth: 1600
Flags: W
HStem: -100 100<300 600> -0 100<200 300 600 700> 100 400<100 200 300 400 700 800> 200 100<400 500> 300 100<500 600> 400 100<400 500> 500 100<200 300 600 700> 600 100<300 600>
VStem: 100 100<100 500> 200 100<0 100 500 600> 300 200<200 300 400 500> 300 100<100 200 300 400> 500 100<300 400> 600 100<0 100 500 600> 700 100<100 500>
LayerCount: 3
Fore
SplineSet
600 -0 m 5x8044
 600 -100 l 5
 300 -100 l 5x8014
 300 -0 l 5
 600 -0 l 5x8044
600 -0 m 5
 600 100 l 5
 700 100 l 5
 700 -0 l 5x4004
 600 -0 l 5
300 -0 m 5x8040
 200 -0 l 5x4040
 200 100 l 5x4080
 300 100 l 5x4040
 300 -0 l 5x8040
700 100 m 5x4004
 700 500 l 5x2004
 800 500 l 5
 800 100 l 5x2002
 700 100 l 5x4004
200 100 m 5x4080
 100 100 l 5
 100 500 l 5
 200 500 l 5x2080
 200 100 l 5x4080
700 500 m 5x2004
 600 500 l 5
 600 600 l 5
 700 600 l 5x0204
 700 500 l 5x2004
200 500 m 5x2080
 200 600 l 5
 300 600 l 5x0240
 300 500 l 5x2040
 200 500 l 5x2080
600 600 m 5x0214
 300 600 l 5x0244
 300 700 l 5
 600 700 l 5x0114
 600 600 l 5x0214
300 500 m 5x2040
 500 500 l 5x0420
 500 400 l 5x0820
 400 400 l 5
 400 300 l 5x1410
 500 300 l 5x1420
 500 400 l 5x0820
 600 400 l 5
 600 300 l 5x0808
 500 300 l 5
 500 200 l 5x1020
 400 200 l 5x1010
 400 100 l 5x2010
 300 100 l 5x4040
 300 500 l 5x2040
EndSplineSet
Validated: 5
EndChar
StartChar: uni2120
Encoding: 8480 8480 786
Width: 1100
Flags: W
HStem: 400 100<100 300> 500 100<300 400> 600 100<100 200> 700 100<200 400>
VStem: 100 100<600 700> 300 100<500 600>
LayerCount: 3
Fore
SplineSet
300 500 m 1x8c
 300 400 l 25
 100 400 l 1
 100 500 l 1
 300 500 l 1x8c
 300 600 l 25
 400 600 l 25
 400 500 l 1x4c
 300 500 l 1x8c
200 700 m 1x2c
 200 800 l 25
 400 800 l 1
 400 700 l 1x1c
 200 700 l 1
 200 600 l 25
 100 600 l 25
 100 700 l 1
 200 700 l 1x2c
900 600 m 25xac
 900 400 l 25
 1000 400 l 25
 1000 600 l 25
 900 600 l 25xac
800 800 m 1x1c
 800 600 l 25
 900 600 l 25x2c
 900 800 l 1
 800 800 l 1x1c
700 600 m 25
 700 400 l 25
 800 400 l 25xac
 800 600 l 25
 700 600 l 25
600 800 m 1x1c
 600 600 l 25
 700 600 l 25x2c
 700 800 l 1
 600 800 l 1x1c
500 600 m 25
 500 400 l 25
 600 400 l 25xac
 600 600 l 25
 500 600 l 25
EndSplineSet
Validated: 5
EndChar
StartChar: trademark
Encoding: 8482 8482 787
Width: 1100
Flags: W
HStem: 700 100<100 200 300 400>
VStem: 200 100<400 700>
LayerCount: 3
Fore
SplineSet
100 700 m 25
 100 800 l 25
 400 800 l 25
 400 700 l 25
 300 700 l 1
 300 400 l 25
 200 400 l 25
 200 700 l 1
 100 700 l 25
900 600 m 25
 900 400 l 25
 1000 400 l 25
 1000 600 l 25
 900 600 l 25
800 800 m 1
 800 600 l 25
 900 600 l 25
 900 800 l 1
 800 800 l 1
700 600 m 25
 700 400 l 25
 800 400 l 25
 800 600 l 25
 700 600 l 25
600 800 m 1
 600 600 l 25
 700 600 l 25
 700 800 l 1
 600 800 l 1
500 600 m 25
 500 400 l 25
 600 400 l 25
 600 600 l 25
 500 600 l 25
EndSplineSet
Validated: 5
EndChar
StartChar: minus
Encoding: 8722 8722 830
Width: 600
VWidth: 0
Flags: HW
HStem: 300 100<100 500>
LayerCount: 3
Fore
SplineSet
100 300 m 1
 100 400 l 1
 500 400 l 1
 500 300 l 1
 100 300 l 1
EndSplineSet
EndChar
StartChar: uni2C60
Encoding: 11360 11360 746
Width: 600
VWidth: 1600
Flags: W
HStem: -100 100<200 500> 200 100<0 400> 400 100<0 400> 680 20G<100 200>
VStem: 100 100<0 700>
LayerCount: 3
Fore
SplineSet
-0 200 m 25
 -0 300 l 25
 400 300 l 25
 400 200 l 25
 -0 200 l 25
0 400 m 25
 0 500 l 25
 400 500 l 25
 400 400 l 25
 0 400 l 25
EndSplineSet
Refer: 40 76 N 1 0 0 1 0 0 2
Validated: 5
EndChar
StartChar: uni2C61
Encoding: 11361 11361 747
Width: 500
VWidth: 1600
Flags: W
HStem: 0 100<300 400> 200 100<100 400> 400 100<100 400> 680 20G<200 300>
VStem: 100 300<200 300 400 500> 200 100<100 700> 300 100<0 100>
LayerCount: 3
Fore
SplineSet
100 200 m 25xf8
 100 300 l 25
 400 300 l 25
 400 200 l 25
 100 200 l 25xf8
100 400 m 25
 100 500 l 25
 400 500 l 25
 400 400 l 25
 100 400 l 25
EndSplineSet
Refer: 69 108 N 1 0 0 1 100 0 2
Validated: 5
EndChar
StartChar: uni2C62
Encoding: 11362 11362 748
Width: 700
VWidth: 1600
Flags: W
HStem: -100 100<300 600> 200 100<0 100 300 400> 300 100<100 200 400 500> 680 20G<200 300>
VStem: -0 100<200 300> 100 100<300 400> 200 100<0 700> 300 100<200 300> 400 100<300 400>
LayerCount: 3
Fore
SplineSet
-0 200 m 25xd8
 -0 300 l 25
 100 300 l 25
 100 200 l 25
 -0 200 l 25xd8
400 300 m 25xd1
 400 400 l 25
 500 400 l 25
 500 300 l 25xb080
 400 300 l 25xd1
300 200 m 25xd2
 300 300 l 25xd2
 400 300 l 25
 400 200 l 25xd1
 300 200 l 25xd2
100 300 m 25xd8
 100 400 l 25
 200 400 l 25
 200 300 l 25xb4
 100 300 l 25xd8
EndSplineSet
Refer: 40 76 N 1 0 0 1 100 0 2
Validated: 5
EndChar
StartChar: uni2C67
Encoding: 11367 11367 751
Width: 800
VWidth: 1600
Flags: W
HStem: -200 21G<700 800> -100 21G<100 200 600 700> 300 100<200 600> 680 20G<100 200 600 700>
VStem: 100 100<-100 300 400 700> 600 100<-100 300 400 700> 700 100<-200 0>
LayerCount: 3
Fore
SplineSet
700 -200 m 25xfa
 700 0 l 25xfc
 800 0 l 25
 800 -200 l 25
 700 -200 l 25xfa
EndSplineSet
Refer: 36 72 N 1 0 0 1 0 0 2
Validated: 5
EndChar
StartChar: uni2C68
Encoding: 11368 11368 752
Width: 600
VWidth: 1600
Flags: W
HStem: -200 21G<500 600> 400 100<200 400> 680 20G<100 200>
VStem: 100 100<0 400 500 700> 400 100<0 400> 500 100<-200 0>
LayerCount: 3
Fore
SplineSet
500 -200 m 25xf4
 500 0 l 25xf8
 600 0 l 25
 600 -200 l 25
 500 -200 l 25xf4
EndSplineSet
Refer: 65 104 N 1 0 0 1 0 0 2
Validated: 5
EndChar
StartChar: uni2C69
Encoding: 11369 11369 753
Width: 700
VWidth: 1600
Flags: W
HStem: -200 21G<600 700> -100 100<600 700> 0 100<500 600> 100 100<400 500> 400 100<400 500> 500 100<500 600> 600 100<600 700>
VStem: 100 100<-100 700> 300 100<200 400> 400 100<100 200 400 500> 500 100<0 100 500 600> 600 100<-200 0 -100 0 600 700>
LayerCount: 3
Fore
SplineSet
600 -200 m 25xc110
 600 0 l 25xc120
 700 0 l 25
 700 -200 l 25
 600 -200 l 25xc110
EndSplineSet
Refer: 39 75 N 1 0 0 1 0 0 2
Validated: 5
EndChar
StartChar: uni2C6A
Encoding: 11370 11370 754
Width: 600
VWidth: 1600
Flags: W
HStem: -200 21G<500 600> 0 100<400 500> 100 100<300 400> 200 100<200 300> 300 100<300 400> 400 100<400 500> 680 20G<100 200>
VStem: 100 100<0 200 300 700> 300 100<100 200 300 400> 400 100<0 100 400 500> 500 100<-200 0>
LayerCount: 3
Fore
SplineSet
500 -200 m 25xc320
 500 0 l 25xc340
 600 0 l 25
 600 -200 l 25
 500 -200 l 25xc320
EndSplineSet
Refer: 68 107 N 1 0 0 1 0 0 2
Validated: 5
EndChar
StartChar: uni2C6C
Encoding: 11372 11372 756
Width: 600
VWidth: 1600
Flags: W
HStem: -200 21G<500 600> 0 100<200 500> 200 100<200 300> 400 100<100 300 400 500>
VStem: 100 100<100 200> 200 100<200 300> 300 100<300 400> 500 100<-200 0>
LayerCount: 3
Fore
SplineSet
500 -200 m 25xf1
 500 0 l 25
 600 0 l 25
 600 -200 l 25
 500 -200 l 25xf1
EndSplineSet
Refer: 83 122 N 1 0 0 1 0 0 2
Validated: 5
EndChar
StartChar: uni2C6D
Encoding: 11373 11373 757
Width: 900
VWidth: 1600
Flags: W
HStem: -100 100<300 600> 0 100<200 300 600 700> 480 20G<100 200> 500 100<200 300 600 700> 600 100<300 600>
VStem: 100 100<100 500> 200 100<0 100 500 600> 300 300<-100 0 600 700> 600 200<0 100 500 600> 700 100<-100 0 100 500 600 700>
AnchorPoint: "top-even" 450 800 basechar 0
AnchorPoint: "bottom" 450 -200 basechar 0
AnchorPoint: "top" 450 800 basechar 0
LayerCount: 3
Fore
SplineSet
600 0 m 1x81
 600 -100 l 1
 300 -100 l 1x81
 300 0 l 1x82
 600 0 l 1x81
600 0 m 1
 600 100 l 1x4080
 700 100 l 25
 700 500 l 25x5040
 600 500 l 1x5080
 600 600 l 1
 700 600 l 1x5140
 700 700 l 1
 800 700 l 1x0940
 800 500 l 1
 800 100 l 1x5080
 800 -100 l 1
 700 -100 l 1x8040
 700 0 l 1x4040
 600 0 l 1
300 0 m 1x82
 200 0 l 1x42
 200 100 l 1x44
 300 100 l 1x42
 300 0 l 1x82
200 100 m 25x64
 100 100 l 25
 100 500 l 25
 200 500 l 25
 200 100 l 25x64
200 500 m 1
 200 600 l 1
 300 600 l 1
 300 500 l 1x12
 200 500 l 1
600 600 m 1x11
 300 600 l 1x12
 300 700 l 1
 600 700 l 1x09
 600 600 l 1x11
EndSplineSet
Validated: 5
EndChar
StartChar: uni2C7E
Encoding: 11390 11390 758
Width: 600
VWidth: 1600
Flags: W
HStem: -300 100<400 600> -200 100<300 400> -100 100<100 400> 200 100<300 400> 300 100<200 300> 600 100<200 500>
VStem: 100 100<400 600> 200 100<300 400> 300 100<-200 -100 200 300> 400 100<0 200>
LayerCount: 3
Fore
SplineSet
300 -200 m 25x4480
 300 -100 l 25
 400 -100 l 25x4480
 400 -200 l 25x8480
 300 -200 l 25x4480
400 -300 m 25x8440
 400 -200 l 25x8480
 600 -200 l 25
 600 -300 l 25
 400 -300 l 25x8440
EndSplineSet
Refer: 47 83 N 1 0 0 1 0 0 2
Validated: 5
EndChar
StartChar: uni2C7F
Encoding: 11391 11391 759
Width: 800
VWidth: 1600
Flags: W
HStem: -300 100<600 800> -200 100<500 600> -100 100<200 500> 100 100<200 300> 200 100<300 400> 300 100<400 500> 400 100<500 600> 600 100<100 600>
VStem: 100 100<0 100> 200 100<100 200> 300 100<200 300> 400 100<300 400> 500 100<-200 -100 400 500> 600 100<500 600>
LayerCount: 3
Fore
SplineSet
500 -200 m 25x4108
 500 -100 l 25
 600 -100 l 25x4108
 600 -200 l 25x8108
 500 -200 l 25x4108
600 -300 m 25x8104
 600 -200 l 25x8108
 800 -200 l 25
 800 -300 l 25
 600 -300 l 25x8104
200 0 m 1x3180
 500 0 l 1x3188
 500 -100 l 1x4188
 100 -100 l 1
 100 100 l 1
 200 100 l 1x3188
 200 200 l 1
 300 200 l 1x3140
 300 300 l 1
 400 300 l 1x0920
 400 400 l 1
 500 400 l 1x0510
 500 500 l 1
 600 500 l 1x0308
 600 600 l 1
 100 600 l 1
 100 700 l 1
 700 700 l 1
 700 500 l 1x0384
 600 500 l 1
 600 400 l 1x0308
 500 400 l 1
 500 300 l 1x0510
 400 300 l 1
 400 200 l 1x0920
 300 200 l 1
 300 100 l 1x1140
 200 100 l 1
 200 0 l 1x3180
EndSplineSet
Validated: 5
EndChar
StartChar: uniA740
Encoding: 42816 42816 778
Width: 800
VWidth: 1600
Flags: W
HStem: -100 100<600 700> 0 100<500 600> 100 100<400 500> 300 100<0 100 200 300 500 700> 480 20G<400 500> 500 100<500 600> 600 100<600 700>
VStem: 100 100<-100 300 400 700> 300 100<200 300> 400 100<100 200 400 500> 500 100<0 100 500 600> 600 100<-100 0 600 700>
LayerCount: 3
Fore
SplineSet
0 300 m 1xb180
 0 400 l 1
 100 400 l 1
 100 700 l 1
 200 700 l 1
 200 400 l 1
 400 400 l 1
 400 500 l 1
 500 500 l 1
 500 400 l 1xbb40
 700 400 l 1
 700 300 l 1
 400 300 l 1
 400 200 l 1xbb90
 500 200 l 1xbb40
 500 100 l 1x5140
 600 100 l 1x5120
 600 0 l 1x9120
 700 0 l 1
 700 -100 l 1
 600 -100 l 1x9110
 600 0 l 1x9120
 500 0 l 1x5120
 500 100 l 1x5140
 400 100 l 1x3140
 400 200 l 1
 300 200 l 1
 300 300 l 1
 200 300 l 1
 200 -100 l 1
 100 -100 l 1
 100 300 l 1
 0 300 l 1xb180
500 500 m 1
 500 600 l 1
 600 600 l 1
 600 500 l 1x1520
 500 500 l 1
600 600 m 1
 600 700 l 1
 700 700 l 1
 700 600 l 1x1310
 600 600 l 1
EndSplineSet
Validated: 5
EndChar
StartChar: uniA741
Encoding: 42817 42817 807
Width: 600
VWidth: 1600
Flags: W
HStem: 0 100<400 500> 100 100<300 400> 200 100<200 300> 300 100<300 400> 400 100<400 500> 500 100<0 300> 680 20G<100 200>
VStem: 100 100<0 200 300 700> 300 100<100 200 300 400> 400 100<0 100 400 500>
LayerCount: 3
Fore
SplineSet
0 500 m 25x0780
 0 600 l 25
 300 600 l 25
 300 500 l 25
 0 500 l 25x0780
EndSplineSet
Refer: 68 107 N 1 0 0 1 0 0 2
Validated: 5
EndChar
StartChar: uniA78A
Encoding: 42890 42890 773
Width: 500
Flags: W
HStem: 200 100<100 400> 400 100<100 400>
VStem: 100 300<200 300 400 500>
LayerCount: 3
Fore
SplineSet
100 200 m 1
 100 300 l 1
 400 300 l 1
 400 200 l 1
 100 200 l 1
100 400 m 1
 100 500 l 1
 400 500 l 1
 400 400 l 1
 100 400 l 1
EndSplineSet
Validated: 1
EndChar
StartChar: uniA78B
Encoding: 42891 42891 770
Width: 300
Flags: W
HStem: 680 20G<100 200>
VStem: 100 100<300 700>
LayerCount: 3
Fore
SplineSet
100 300 m 1
 100 700 l 1
 200 700 l 1
 200 300 l 1
 100 300 l 1
EndSplineSet
Validated: 1
EndChar
StartChar: uniA78C
Encoding: 42892 42892 771
Width: 300
Flags: W
VStem: 100 100<400 900>
LayerCount: 3
Fore
SplineSet
100 400 m 1
 100 900 l 1
 200 900 l 1
 200 400 l 1
 100 400 l 1
EndSplineSet
Validated: 1
EndChar
StartChar: uniA790
Encoding: 42896 42896 776
Width: 800
VWidth: 1600
Flags: W
HStem: -200 21G<700 800> -100 21G<100 200 600 700> 0 100<500 600> 480 20G<300 400> 500 100<200 300> 680 20G<100 200 600 700>
VStem: 100 100<-100 500 600 700> 300 100<300 500> 400 100<100 300> 600 100<-100 0 100 700> 700 100<-200 0>
LayerCount: 3
Fore
SplineSet
700 -200 m 25xe620
 700 0 l 25xe640
 800 0 l 25
 800 -200 l 25
 700 -200 l 25xe620
EndSplineSet
Refer: 42 78 N 1 0 0 1 0 0 2
Validated: 5
EndChar
StartChar: uniA791
Encoding: 42897 42897 777
Width: 600
VWidth: 1600
Flags: W
HStem: -200 21G<500 600> 400 100<200 400>
VStem: 100 100<0 400> 400 100<0 400> 500 100<-200 0>
LayerCount: 3
Fore
SplineSet
500 -200 m 25xe8
 500 0 l 25xf0
 600 0 l 25
 600 -200 l 25
 500 -200 l 25xe8
EndSplineSet
Refer: 71 110 N 1 0 0 1 0 0 2
Validated: 5
EndChar
StartChar: uniA7AA
Encoding: 42922 42922 768
Width: 900
VWidth: 1600
Flags: W
HStem: -100 21G<200 300 700 800> 300 100<300 700> 600 100<100 200> 680 20G<200 300 700 800>
VStem: 0 100<400 600> 100 100<600 700> 200 100<-100 300 400 700> 700 100<-100 300 400 700>
LayerCount: 3
Fore
SplineSet
0 400 m 25xe9
 0 600 l 1
 100 600 l 1
 100 400 l 25
 0 400 l 25xe9
100 600 m 25
 100 700 l 25
 200 700 l 25
 200 600 l 25xe5
 100 600 l 25
EndSplineSet
Refer: 36 72 N 1 0 0 1 100 0 2
Validated: 5
EndChar
StartChar: uniA7AD
Encoding: 42925 42925 769
Width: 700
VWidth: 1600
Flags: W
HStem: -100 100<300 600> 200 100<100 200 300 400> 300 100<0 100> 400 100<100 200> 680 20G<200 300>
VStem: 0 100<300 400> 100 100<200 300 400 500> 200 100<0 700> 300 100<200 300>
LayerCount: 3
Fore
SplineSet
100 200 m 25xca
 100 300 l 25xcc
 200 300 l 25
 200 200 l 25
 100 200 l 25xca
100 400 m 25xac
 100 500 l 25
 200 500 l 25
 200 400 l 25x9a
 100 400 l 25xac
300 200 m 25xc9
 300 300 l 25xc9
 400 300 l 25
 400 200 l 25xc880
 300 200 l 25xc9
0 300 m 25xac
 0 400 l 25
 100 400 l 25xac
 100 300 l 25xcc
 0 300 l 25xac
EndSplineSet
Refer: 40 76 N 1 0 0 1 100 0 2
Validated: 5
EndChar
StartChar: uniA7B2
Encoding: 42930 42930 813
Width: 500
VWidth: 1600
Flags: W
HStem: -200 100<100 300> -100 100<0 100> 0 100<100 500> 680 20G<300 400>
VStem: -0 100<-100 0> 300 100<-100 700>
LayerCount: 3
Fore
SplineSet
500 100 m 1x3c
 500 -0 l 1x3c
 100 0 l 1x5c
 100 100 l 1
 500 100 l 1x3c
100 0 m 1x5c
 100 -100 l 1x9c
 -0 -100 l 1
 -0 0 l 1
 100 0 l 1x5c
300 -100 m 1
 300 700 l 1
 400 700 l 1
 400 -100 l 1x5c
 300 -100 l 1
300 -100 m 1x9c
 300 -200 l 1
 100 -200 l 1
 100 -100 l 1
 300 -100 l 1x9c
EndSplineSet
Validated: 5
EndChar
StartChar: uniA7B4
Encoding: 42932 42932 814
Width: 700
VWidth: 1600
Flags: W
LayerCount: 3
Fore
SplineSet
200 300 m 17
 500 300 l 1
 500 0 l 1
 300 0 l 1
 300 -100 l 17
 500 -100 l 1
 500 0 l 1
 600 0 l 1
 600 300 l 1
 500 300 l 1
 500 600 l 1
 400 600 l 1
 400 400 l 1
 200 400 l 1
 200 600 l 1
 400 600 l 1
 400 700 l 1
 100 700 l 1
 100 -200 l 1
 200 -200 l 1
 200 300 l 17
EndSplineSet
Validated: 5
EndChar
StartChar: uniA7B5
Encoding: 42933 42933 817
Width: 600
Flags: W
HStem: 480 20G<300 400>
VStem: 300 100<300 500> 400 100<100 300>
LayerCount: 3
Back
SplineSet
400 300 m 1xfa
 500 300 l 1
 500 100 l 1
 400 100 l 1
 400 300 l 1xfa
400 300 m 1
 200 300 l 1
 200 100 l 1
 400 100 l 1
 400 0 l 1xfa
 200 0 l 1
 200 -200 l 1
 100 -200 l 1
 100 700 l 1
 300 700 l 1
 300 600 l 1
 400 600 l 9xfc
 400 300 l 1
300 600 m 9xfc
 200 600 l 1
 200 400 l 1
 300 400 l 1
 300 600 l 9xfc
EndSplineSet
Fore
SplineSet
300 500 m 1xc0
 400 500 l 1
 400 300 l 1
 300 300 l 1
 300 500 l 1xc0
200 600 m 1
 400 600 l 1xa0
 400 500 l 1xc0
 500 500 l 1
 500 600 l 1
 400 600 l 1
 400 700 l 1
 200 700 l 1
 200 600 l 1
 100 600 l 1
 100 -200 l 1
 200 -200 l 1
 200 0 l 1
 400 0 l 1
 400 100 l 1xa0
 200 100 l 1
 200 600 l 1
400 300 m 1xc0
 500 300 l 1
 500 100 l 1
 400 100 l 1xa0
 400 300 l 1xc0
EndSplineSet
Validated: 5
EndChar
StartChar: uniA7B6
Encoding: 42934 42934 815
Width: 1100
VWidth: 1600
Flags: W
HStem: 0 100<200 300> 500 100<200 300> 600 100<700 800>
VStem: 100 100<100 500> 200 100<0 100 500 600> 700 100<600 700>
LayerCount: 3
Back
SplineSet
700 600 m 5
 700 700 l 5
 900 700 l 29
 900 600 l 29
 700 600 l 5
200 600 m 5
 200 700 l 5
 400 700 l 29
 400 600 l 29
 200 600 l 5
500 0 m 5
 200 0 l 5
 200 -100 l 5
 500 -100 l 5
 500 0 l 5
 600 0 l 5
 600 -100 l 5
 900 -100 l 5
 900 0 l 5
 1000 0 l 5
 1000 600 l 5
 900 600 l 5
 900 0 l 5
 600 0 l 5
 600 300 l 5
 500 300 l 5
 500 0 l 5
200 0 m 5
 200 600 l 5
 100 600 l 5
 100 0 l 5
 200 0 l 5
EndSplineSet
Fore
SplineSet
800 0 m 1xcc
 600 0 l 1
 600 400 l 1
 500 400 l 1
 500 0 l 1
 300 0 l 1
 300 -100 l 1
 500 -100 l 17
 500 0 l 1
 600 0 l 1
 600 -100 l 1
 800 -100 l 17
 800 0 l 1
 900 0 l 1
 900 100 l 1
 1000 100 l 1
 1000 500 l 1
 900 500 l 1xcc
 900 600 l 1
 700 600 l 1
 700 700 l 1
 800 700 l 1xac
 800 500 l 1
 900 500 l 1
 900 100 l 1
 800 100 l 1
 800 0 l 1xcc
400 600 m 1xac
 400 700 l 1
 300 700 l 1xac
 300 600 l 1xcc
 400 600 l 1xac
300 600 m 1xcc
 300 500 l 1xcc
 200 500 l 1xd4
 200 600 l 1
 300 600 l 1xcc
200 500 m 1xd4
 200 100 l 1
 100 100 l 1
 100 500 l 1
 200 500 l 1xd4
200 100 m 1
 300 100 l 1
 300 0 l 1
 200 0 l 1x8c
 200 100 l 1
EndSplineSet
Validated: 5
EndChar
StartChar: uniA7B7
Encoding: 42935 42935 816
Width: 900
VWidth: 1600
Flags: W
HStem: 0 100<200 400 500 700> 100 300<100 200 700 800> 400 100<200 300 600 700>
VStem: 100 100<100 400> 200 100<400 500> 400 100<100 300> 600 100<400 500> 700 100<100 400>
LayerCount: 3
Fore
SplineSet
600 400 m 25x26
 600 500 l 25
 700 500 l 25x26
 700 400 l 25x46
 600 400 l 25x26
200 400 m 29x54
 200 500 l 29
 300 500 l 29
 300 400 l 29x2c
 200 400 l 29x54
200 0 m 1x8c
 200 100 l 1x94
 400 100 l 1
 400 0 l 1
 200 0 l 1x8c
200 100 m 1
 100 100 l 1
 100 400 l 1
 200 400 l 1x54
 200 100 l 1
800 400 m 1x45
 800 100 l 1x45
 700 100 l 1
 700 0 l 1
 500 0 l 1
 500 100 l 1
 700 100 l 1x85
 700 400 l 1x46
 800 400 l 1x45
500 100 m 1x84
 400 100 l 1
 400 300 l 1
 500 300 l 1
 500 100 l 1x84
EndSplineSet
Validated: 5
EndChar
StartChar: Circumtilde
Encoding: 65561 -1 788
Width: 0
Flags: W
HStem: 600 100<-400 -300 -200 -100> 700 100<-300 -200> 800 100<-500 -400 -200 -100> 900 100<-400 -200 -100 0>
VStem: -500 100<800 900> -400 100<600 700> -300 100<700 800> -200 100<600 700 800 900> -100 100<900 1000>
AnchorPoint: "top-even" -250 700 mark 0
LayerCount: 3
Fore
SplineSet
-500 800 m 1x28
 -500 900 l 1
 -400 900 l 25
 -400 800 l 25
 -500 800 l 1x28
-100 900 m 1x21
 -100 1000 l 1
 -0 1000 l 25
 -0 900 l 25x1080
 -100 900 l 1x21
-200 800 m 1x42
 -200 900 l 1
 -100 900 l 25
 -100 800 l 25x21
 -200 800 l 1x42
-400 900 m 25x29
 -400 1000 l 25
 -200 1000 l 1x15
 -200 900 l 1
 -400 900 l 25x29
EndSplineSet
Refer: 130 770 N 1 0 0 1 0 0 2
Validated: 5
EndChar
StartChar: tildecomb.four
Encoding: 65537 -1 249
Width: 0
Flags: W
HStem: 600 100<-500 -400 -300 -200> 700 100<-400 -300 -200 -100>
VStem: -500 100<600 700> -400 100<700 800> -300 100<600 700> -200 100<700 800>
AnchorPoint: "stack" -250 900 basemark 0
AnchorPoint: "stack-even" -350 900 basemark 0
AnchorPoint: "top-even" -350 600 mark 0
LayerCount: 3
Fore
SplineSet
-200 700 m 29x88
 -200 800 l 29
 -100 800 l 29
 -100 700 l 29x44
 -200 700 l 29x88
-300 600 m 13x88
 -300 700 l 29x90
 -200 700 l 29
 -200 600 l 21
 -300 600 l 13x88
-400 700 m 5xa0
 -400 800 l 5
 -300 800 l 5x50
 -300 700 l 5x90
 -400 700 l 5xa0
-500 600 m 29xa0
 -500 700 l 29
 -400 700 l 29
 -400 600 l 29
 -500 600 l 29xa0
EndSplineSet
Validated: 5
EndChar
StartChar: uni0304.five
Encoding: 65539 -1 251
Width: 0
Flags: W
HStem: 700 100<-600 -100>
AnchorPoint: "stack" -350 900 basemark 0
AnchorPoint: "stack" -350 700 mark 0
AnchorPoint: "top" -350 700 mark 0
LayerCount: 3
Fore
SplineSet
-600 700 m 25
 -600 800 l 25
 -100 800 l 1
 -100 700 l 1
 -600 700 l 25
EndSplineSet
Validated: 1
EndChar
StartChar: uni0304.three
Encoding: 65538 -1 250
Width: 0
Flags: W
HStem: 700 100<-400 -100>
VStem: -400 300<700 800>
AnchorPoint: "stack" -250 700 mark 0
AnchorPoint: "top" -250 700 mark 0
LayerCount: 3
Fore
SplineSet
-400 700 m 25
 -400 800 l 25
 -100 800 l 1
 -100 700 l 1
 -400 700 l 25
EndSplineSet
Validated: 1
EndChar
StartChar: uni0306.four
Encoding: 65548 -1 619
Width: 0
Flags: W
HStem: 600 100<-500 -300> 700 100<-600 -500>
VStem: -600 100<700 800> -300 100<700 800>
AnchorPoint: "stack" -350 900 basemark 0
AnchorPoint: "stack-even" -450 900 basemark 0
AnchorPoint: "top-even" -450 600 mark 0
LayerCount: 3
Fore
SplineSet
-600 700 m 5x70
 -600 800 l 5
 -500 800 l 5x70
 -500 700 l 5xb0
 -600 700 l 5x70
-500 700 m 5xb0
 -300 700 l 5xb0
 -300 800 l 5
 -200 800 l 5x70
 -200 600 l 5
 -500 600 l 5
 -500 700 l 5xb0
EndSplineSet
Validated: 5
EndChar
StartChar: uni0306.six
Encoding: 65549 -1 620
Width: 0
Flags: W
HStem: 600 100<-500 -100> 700 100<-600 -500 -100 0>
VStem: -600 100<700 800> -100 100<700 800>
AnchorPoint: "top-even" -350 600 mark 0
LayerCount: 3
Fore
SplineSet
-100 700 m 25xb0
 -100 800 l 25
 -0 800 l 25
 -0 700 l 25x70
 -100 700 l 25xb0
-500 600 m 1xb0
 -500 700 l 1
 -100 700 l 25
 -100 600 l 25
 -500 600 l 1xb0
-600 700 m 25x70
 -600 800 l 25
 -500 800 l 25x70
 -500 700 l 25xb0
 -600 700 l 25x70
EndSplineSet
Validated: 5
EndChar
StartChar: uni0308.five
Encoding: 65557 -1 637
Width: 0
Flags: W
HStem: 600 100<-600 -500 -200 -100>
VStem: -600 100<600 700> -200 100<600 700>
LayerCount: 3
Fore
SplineSet
-600 600 m 1
 -600 700 l 1
 -500 700 l 1
 -500 600 l 1
 -600 600 l 1
-200 600 m 1
 -200 700 l 1
 -100 700 l 1
 -100 600 l 1
 -200 600 l 1
EndSplineSet
Validated: 1
EndChar
StartChar: uni030C.alt
Encoding: 65545 -1 257
Width: 0
Flags: W
HStem: 600 200<-100 0>
VStem: -100 100<600 800>
AnchorPoint: "caron-alt" -50 600 mark 0
LayerCount: 3
Fore
SplineSet
-100 600 m 5
 -100 800 l 5
 -0 800 l 5
 0 600 l 5
 -100 600 l 5
EndSplineSet
Validated: 1
EndChar
StartChar: uni030C.four
Encoding: 65542 -1 254
Width: 0
Flags: W
HStem: 600 100<-400 -200> 700 100<-500 -400 -200 -100>
VStem: -500 100<700 800> -200 100<700 800>
AnchorPoint: "stack-even" -350 600 mark 0
AnchorPoint: "top-even" -350 600 mark 0
LayerCount: 3
Fore
SplineSet
-400 800 m 25x70
 -400 700 l 25xb0
 -500 700 l 25
 -500 800 l 25
 -400 800 l 25x70
-200 700 m 1
 -200 600 l 1
 -400 600 l 9
 -400 700 l 25
 -200 700 l 1
-100 800 m 25x70
 -100 700 l 25x70
 -200 700 l 25xb0
 -200 800 l 25
 -100 800 l 25x70
EndSplineSet
Validated: 5
EndChar
StartChar: uni030E.four
Encoding: 65543 -1 255
Width: 0
Flags: W
HStem: 600 200<-500 -400 -200 -100>
VStem: -500 100<600 800> -200 100<600 800>
AnchorPoint: "top-even" -350 600 mark 0
LayerCount: 3
Fore
SplineSet
-500 600 m 1
 -500 800 l 21
 -400 800 l 13
 -400 600 l 1
 -500 600 l 1
-200 600 m 1
 -200 800 l 21
 -100 800 l 13
 -100 600 l 1
 -200 600 l 1
EndSplineSet
Validated: 1
EndChar
StartChar: uni032D.four
Encoding: 65553 -1 630
Width: 0
Flags: W
HStem: -200 100<-500 -400 -200 -100> -100 100<-400 -200>
VStem: -500 100<-200 -100> -200 100<-200 -100>
AnchorPoint: "bottom" -250 0 mark 0
LayerCount: 3
Fore
SplineSet
-200 -200 m 25xb0
 -200 -100 l 25
 -100 -100 l 25
 -100 -200 l 25
 -200 -200 l 25xb0
-400 -100 m 25
 -400 0 l 25
 -200 0 l 1x70
 -200 -100 l 1
 -400 -100 l 25
-500 -200 m 25xb0
 -500 -100 l 25
 -400 -100 l 25
 -400 -200 l 25
 -500 -200 l 25xb0
EndSplineSet
Validated: 5
EndChar
StartChar: uni0330.four
Encoding: 65552 -1 629
Width: 0
Flags: W
HStem: -200 100<-500 -400 -300 -200> -100 100<-400 -300 -200 -100>
VStem: -500 100<-200 -100> -400 100<-100 0> -300 100<-200 -100> -200 100<-100 0>
AnchorPoint: "bottom" -250 0 mark 0
LayerCount: 3
Fore
SplineSet
-200 -100 m 25x88
 -200 0 l 25
 -100 0 l 25
 -100 -100 l 25x44
 -200 -100 l 25x88
-300 -200 m 13x88
 -300 -100 l 25x90
 -200 -100 l 25
 -200 -200 l 21
 -300 -200 l 13x88
-400 -100 m 1xa0
 -400 0 l 1
 -300 0 l 1x50
 -300 -100 l 1x90
 -400 -100 l 1xa0
-500 -200 m 29xa0
 -500 -100 l 25
 -400 -100 l 25
 -400 -200 l 29
 -500 -200 l 29xa0
EndSplineSet
Validated: 5
EndChar
StartChar: uni0331.three
Encoding: 65554 -1 631
Width: 0
Flags: W
HStem: -200 100<-400 -100>
VStem: -400 300<-200 -100>
AnchorPoint: "bottom" -250 -100 mark 0
LayerCount: 3
Fore
SplineSet
-400 -200 m 25
 -400 -100 l 25
 -100 -100 l 1
 -100 -200 l 1
 -400 -200 l 25
EndSplineSet
Validated: 1
EndChar
